<svg id="Layer_1" data-name="Layer 1" xmlns="http://www.w3.org/2000/svg" viewBox="0 0 278 278"><defs><style>.cls-1{fill:#8592a3;}</style></defs><path class="cls-1" d="M231.75,154a2.91,2.91,0,0,0,1.48,1.51c4,2,7.94,4.17,12.27,5.45a30.37,30.37,0,0,0,12.08,1.24,24.57,24.57,0,0,0,10-3.75,37.7,37.7,0,0,0,8-6.48c.56-.61,1-1.43,2.17-1.57.61,1.62.19,3.13-.2,4.65-.64.28-.89.9-1.24,1.43A34.15,34.15,0,0,1,255,171,89.33,89.33,0,0,1,233.75,173c-2.65,0-5.1-.2-7.16-2.08a3.79,3.79,0,0,0-1.09-.45l0,0L225,170a19,19,0,0,0-5.36-2.7.78.78,0,0,0-.06,1c1.12,2.56,2.24,5.13,3.38,7.69a188.22,188.22,0,0,1,9.82,26.31c1.44,5.17,2.71,10.39,2.33,15.82-.42,5.8-2.84,10.41-8.25,13.14a55.38,55.38,0,0,1-6,2.18c3.33,1.14,6.29,2,9.65,1.3,1.86-.39,3.65-1.27,5.61-1.14a43.58,43.58,0,0,1-2.74,12.7,5.86,5.86,0,0,0-.67,2.73c-1.89,1.85-3.2,4.15-4.8,6.23a55.67,55.67,0,0,1-14.85,13.44,13.37,13.37,0,0,1-2,.84c-6.86,1.42-13.24-.06-19.44-3.48,1.19,3.64,1,4-1.74,4.79a.56.56,0,0,0-.63.21l-4.65.46a57.88,57.88,0,0,1-10.57-3.39l0-.51c1.2-.24,2.39-.53,3.6-.72a32.69,32.69,0,0,0,13.18-4.83,28,28,0,0,0,9.27-10.19c.82-1.53,2-2.93,2.17-4.76.93-.09,1.27-.91,1.74-1.52a62.65,62.65,0,0,0,8.38-14.71,20.59,20.59,0,0,0,1.89-5.89c2.07-6,1.87-12.17,1.31-18.26a60,60,0,0,0-4.75-18c-1.11-2.62-1.93-5.42-3.75-7.71-.12-.16.2-.63-.34-.49l.34.49a4.88,4.88,0,0,0,.24,1.89,53.6,53.6,0,0,1,3.29,13.68,32.09,32.09,0,0,1-.59,10.18,44.12,44.12,0,0,1-4.35,11.91l-.06.91,0,0c-1.63,1.2-1.79,3.54-4.06,5,1.32-4.55,2.75-8.55,3.5-12.86-.33.17-.52.21-.59.32-.33.55-.62,1.12-.95,1.67-3.29,5.61-6.66,11.17-11.58,15.56a16.78,16.78,0,0,1-8.38,4.42c-.67-.45-.41-.9,0-1.4a27.72,27.72,0,0,0,2.63-4.58,30.33,30.33,0,0,0,3.09-13.43c-.05-3.69,0-7.38,0-11.07-.32-2.12-.64-4.25-1-6.37a64.2,64.2,0,0,0-2.41-11,1.33,1.33,0,0,0-.82-1.14l.3-.73a8.88,8.88,0,0,0-1-4,1,1,0,0,0-.42-1l0,0c-.24-2.74-1.37-5.23-2.32-7.76-.6-1.61-.82-3.43-2-4.8a8.56,8.56,0,0,0-.68-3,170.71,170.71,0,0,0-7.83-20.41,161.81,161.81,0,0,0-8.92-16.49c-.21-.54-.28-1.2-1.15-1.34a1.63,1.63,0,0,0,.73,1.74,7.85,7.85,0,0,0,.42,1.12,136.22,136.22,0,0,1,7.83,16.74c2.64,6.49,4.55,13.15,4.38,20.26l-1.06,0c-.12-.1-.22-.26-.36-.31a55.35,55.35,0,0,1-10.16-4.92,3.31,3.31,0,0,0-2.06-.55c-.06-1.21-1-1.22-1.87-1.42-1.93-2.33-4.45-4-6.81-5.81-.87-1.5-2.5-2.33-3.35-3.84l-.46-.51h0a11,11,0,0,0-1.23-3.86,78.49,78.49,0,0,1-3.63-9.62,5.47,5.47,0,0,0,2.51-.75c4.32-1.74,8.58-1.88,12.68.63a20.78,20.78,0,0,1,4,3.08c.35.35.68,1,1.47.45a76.25,76.25,0,0,0-6.06-12.21c-.93-1.59-1.85-3.19-2.85-4.73-.5-.78-1.09-1.11-1.85-.08a14.47,14.47,0,0,1-2.33,2.43c-2.69,2.29-5.59,4-9.37,3.15-.17,0-.4.22-.6.34a129.24,129.24,0,0,1-4.3-15.7,6.92,6.92,0,0,0-.93-2.48,31.75,31.75,0,0,0,0,5.21c.74,4.2.24,8.46.8,12.68.48,3.64.85,7.29,1.55,10.89a15.34,15.34,0,0,0,.11,1.92c.95,5.67,2.27,11.26,3.73,16.82.39,1.13.81,2.25,1.17,3.38a83,83,0,0,0,9,19.51,12.78,12.78,0,0,0,1.91,2.73,5.72,5.72,0,0,0,1.83-1.14,18.76,18.76,0,0,1,7.26-3.07c8.23-1.53,17.88,5.48,15.48,15.27-1.3.64-1.54,2-2.07,3.14-2.91,6.2-9.08,8.39-15.48,6.69-4.34-1.15-6.31-4.44-7.47-8.36a24.13,24.13,0,0,1-1.08-8.78,1.63,1.63,0,0,0-1.49-2,17.6,17.6,0,0,0-3.81-.34l-4.26-1a6.73,6.73,0,0,0-1.11-.9c-7.1-3.76-13-9-18.4-14.86-1.08-1.16-1.85-2.62-3.25-3.49-.08-.21-.14-.25-.16-.11s.12.06.18.08a3.16,3.16,0,0,0,.72,2A149.08,149.08,0,0,0,130,178.18a34.2,34.2,0,0,1-9.69-5.59c-4.9-3.69-8.68-8.42-12.14-13.42-1.31-1.89-2.82-3.68-3.32-6a4.72,4.72,0,0,0-.45-2.34c-2.51-9.2-4.58-18.45-4.39-28.11a53.6,53.6,0,0,1,2.76-16.49,7.44,7.44,0,0,0,.7-3.26c.17-.17.59-.26.17-.6l-.17.6c-2.44,3.38-3.21,7.4-4.33,11.28a51.26,51.26,0,0,0-1.34,8.7,29.84,29.84,0,0,0,.07,8.12,12.38,12.38,0,0,1-.18,5.65,1.05,1.05,0,0,0-.49,1c-1.46,2-2.12,4.45-2.93,6.77a88,88,0,0,0-4.79,28.9c-1.08,2.69-1.11,5.58-1.36,8.38-.41,4.57-.59,9.17-1,13.74l.07,0,.15-.06a7.27,7.27,0,0,0-.58,1.82c-.11,2.4-.68,4.76-.64,7.18.08,4.41,0,8.82.4,13.23.45,5.44,1.12,10.83,1.86,16.23.33,2.42.64,4.85,1,7.51a8.57,8.57,0,0,1-2.67-1.58,57.39,57.39,0,0,1-8.4-7.94,50.75,50.75,0,0,1-11.47-20.93,88.2,88.2,0,0,1-3-22.58c0-2.16-.39-4.34-.2-6.48.24-2.63.13-5.25.12-7.89a26.44,26.44,0,0,0-.84,3.93c-.49,4.15-.66,8.32-1.09,12.45a70.39,70.39,0,0,0,.33,14.88A74.66,74.66,0,0,0,68.58,228c1.29,2.85,2.8,5.58,4,8.45l0,0a1.72,1.72,0,0,1-1.27-.59,72.29,72.29,0,0,1-14.94-18.41,49.92,49.92,0,0,1-6.11-20.31,94.3,94.3,0,0,1,.48-15.32c.23-2.88,1.07-5.67,1.13-8.56.14-.2.37-.38.39-.59a43.27,43.27,0,0,1,1.53-7.49c.61-2.3,1.27-4.57,1.9-6.83-.41-.17-.62-.08-.78.09-4.19,4.28-9.5,6.39-15.15,7.85a55.29,55.29,0,0,1-6.88.87,67.91,67.91,0,0,1-13.67.15,94.12,94.12,0,0,1-9.77-.79c-1.66-.26-2.82-1.46-4.15-2.31a31.49,31.49,0,0,1-5.37-3.91c.61-.63,1-.14,1.41,0a27.92,27.92,0,0,0,13.16,1.52c7.66-1.07,14.15-4.39,20.07-9.1,6.57-5.23,11.86-11.64,16.76-18.4,5.45-7.5,10.62-15.2,16.3-22.54A118.93,118.93,0,0,1,81.94,96.35a78.13,78.13,0,0,1,19.35-12.81A76.17,76.17,0,0,1,116,78.45a9.77,9.77,0,0,1,1.44-.09c-.12,1.25-1.1,1.89-1.95,2.56-1.5,1.17-1.54,1.12-.74,2.67.32.63.61,1.29,1.36,1.56.4,1.87,1.88,2.95,3.25,3.92a13.32,13.32,0,0,1,4.77,6.11c.19.46.38.88,1,.87.19,2.76,1.34,5.23,2.24,8,.92-2.33.59-4.63,1.2-6.78a12,12,0,0,0,.49-4,3.32,3.32,0,0,0,.93-2.11,5,5,0,0,1,1.22-2.54,11.43,11.43,0,0,0,3.09-6.76c0-.4,0-.79.05-1.18.1-1.28,0-2.26-1.69-2.5A4,4,0,0,1,130,76c3.54,0,7.07,0,10.61,0a65.86,65.86,0,0,1,23.66,4.64c8.8,3.28,16.58,8.28,23.88,14.15,5.31,4.26,10.33,8.83,15.36,13.42,6.33,5.75,12.54,11.67,19.88,16.21s15,8.33,23.62,9.77a13.76,13.76,0,0,0,2.4.15,3.17,3.17,0,0,1,2.61,1,27.78,27.78,0,0,1-16.09,6.67,91.41,91.41,0,0,1-11,.65c-1.35-.09-2.68-1-4.24-.12A26.35,26.35,0,0,0,230,153.34,2.91,2.91,0,0,0,231.75,154Zm-29.9,5.35v0c.09.88.78,1.5,1,2.31a4.34,4.34,0,0,0,1.38,2.49l.09.09-.1-.07a4.18,4.18,0,0,0-.76-2.95,8.46,8.46,0,0,0-.9-2.54c-.39-.45-.77-.42-1.12.05a1.06,1.06,0,0,0-.18.33.39.39,0,0,1,.19-.3c.92.06.91-.51.79-1.16a.65.65,0,0,0-.3-.84q-1.68-6.15-3.37-12.29a15.33,15.33,0,0,0-.19-1.66c-1.31-6-2.2-12-1.65-18.16,0-.11-.17-.24-.32-.45-2.5.63-5,1.53-7.64,1.58l-6.25-6c-4-4.14-7.26-9.09-12.4-12.24a5.39,5.39,0,0,0,.51,2.43,57.76,57.76,0,0,1,2.08,9.36,21,21,0,0,1-.82,10.42,30.87,30.87,0,0,1-2.88,4.95c-.4.31-.51.69.06.84,1,.27,2,.4,3,.63,10.2,2.33,18.8,7.19,24.93,15.88,1.34,1.9,2.6,3.86,3.89,5.79.11.37.23.75.34,1.11ZM155.55,195c1.41,4.1,4.48,6.06,8.59,6.69,3.91.12,7.19-1,9.26-4.6,1.61-1.28,2-3.12,2.29-5a12.38,12.38,0,0,0-1.4-8.11c-3-5.36-9.37-7.29-14.38-4.23a11.4,11.4,0,0,0-5.66,10C154.17,191.57,154.21,193.44,155.55,195Zm-21.19-70a3.13,3.13,0,0,0-2,.82,48.58,48.58,0,0,1-6,3.54c-4.77,2.24-9.47,2.56-14.22-.12a44.56,44.56,0,0,1-3.8-2.51c-.92-.65-1.48-.56-1.77.48a21.71,21.71,0,0,0-1.15,8.27,9.64,9.64,0,0,0,3,5.86c.9.9,1.39.81,1.87-.45a5.22,5.22,0,0,1,4-3.17c3-.79,6-.33,9,.2a25.89,25.89,0,0,1,11,4.62c.53.39,1.11.91,2,.49A66.73,66.73,0,0,1,134.36,125Zm26-1.43c-.24-.08-.38,0-.42.17a.55.55,0,0,0,.23.63c.26.13.49,0,.47-.27S160.48,123.73,160.4,123.59Z"/><path class="cls-1" d="M185.12,184.75a1.33,1.33,0,0,1,.82,1.14,1.59,1.59,0,0,0-.48,1.06c-1,5.26-2,10.51-2.85,15.77-.45,2.6-1.39,5.09-1.49,7.75a28.49,28.49,0,0,0-1.67,4.24,33.54,33.54,0,0,1-11.61,14.94,65.88,65.88,0,0,1-24.58,11,19.05,19.05,0,0,1-6.94.12A97.62,97.62,0,0,1,118.78,237a49.62,49.62,0,0,1-15.91-8.68c-2.42-2-3.77-4.74-5.12-7.46a27.47,27.47,0,0,0-1.52-2.7,6.26,6.26,0,0,0-.59-3c-1.56-4.17-3.19-8.31-4.73-12.49-.82-2.22-2.06-4.3-2.4-6.7a4.43,4.43,0,0,1,4.29,2.35,41.69,41.69,0,0,0,2.9,3.75c1.52,1.9,3.62,3.06,5.54,4.46a13.79,13.79,0,0,0,11.18,2.34c5.61-1.17,8.54-4.47,8.86-10.86a26.87,26.87,0,0,0-2.27-11.4,8.11,8.11,0,0,1-.66-3,.49.49,0,0,1-.23-.77c.09-.13.41-.14.64-.15a4.65,4.65,0,0,1,.76.12c-1.94-1.65-4.19-2.14-6.37-2.81a.91.91,0,0,1,1-.88,5.14,5.14,0,0,0,2.55-.81,11.38,11.38,0,0,0-8-1.31c-2.53.5-4.48,2.11-6.71,3.15l-3-.31c1.57,2.17,1.57,2.17-.43,3.7a4.15,4.15,0,0,0-.56.46c-1.8,2.09-3.83,3.53-6.86,2.18a25.09,25.09,0,0,0,1.73,2.16,1.4,1.4,0,0,1,.31,1.51c-1.33,3.78-1.41,3.89-5.36,5.26a5.49,5.49,0,0,0-.63.34c.43-4.57.61-9.17,1-13.74.25-2.8.28-5.69,1.36-8.38a2.75,2.75,0,0,0,1-1.93,8.89,8.89,0,0,0,3.23-1.48,38.61,38.61,0,0,1,11.38-4.15c1.4-.29,2.89.08,4.22-.6,3.23,3.44,6.14,7.16,9.85,10.16A56,56,0,0,0,131.28,183c5.32,2.4,10.95,3.6,16.62,4.66a8.36,8.36,0,0,0,3.65-.05c-1.35-1.87-3.09-3-4.19-4.66a17.6,17.6,0,0,1,3.81.34,1.63,1.63,0,0,1,1.49,2,24.13,24.13,0,0,0,1.08,8.78c1.16,3.92,3.13,7.21,7.47,8.36,6.4,1.7,12.57-.49,15.48-6.69.53-1.13.77-2.5,2.07-3.14,1.54-1.06,2-2.81,2.42-4.4A4.41,4.41,0,0,1,185.12,184.75Zm-55.62,30.1c-1-.14-2-.3-2.29,1-.65,2.61-1.13,5.23.34,7.76a8.55,8.55,0,0,0,6.77,7.14,21.68,21.68,0,0,0,7.58.08,10.53,10.53,0,0,0,9.26-10.72,15.16,15.16,0,0,0-1-6,1.55,1.55,0,0,0-2.23-1.09c-.5-.7-1.25-.59-2-.59-1.67,0-3.34,0-5,0a56.4,56.4,0,0,0-9.43,1.08C130.72,213.6,129.64,213.65,129.5,214.85Z"/><path class="cls-1" d="M72.62,236.49c-1.24-2.87-2.75-5.6-4-8.45a74.66,74.66,0,0,1-6.42-22.84,70.39,70.39,0,0,1-.33-14.88c.43-4.13.6-8.3,1.09-12.45a26.44,26.44,0,0,1,.84-3.93c0,2.64.12,5.26-.12,7.89-.19,2.14.18,4.32.2,6.48a88.2,88.2,0,0,0,3,22.58,50.75,50.75,0,0,0,11.47,20.93,57.39,57.39,0,0,0,8.4,7.94,8.57,8.57,0,0,0,2.67,1.58c-.35-2.66-.66-5.09-1-7.51C87.62,228.43,87,223,86.5,217.6c-.37-4.41-.32-8.82-.4-13.23,0-2.42.53-4.78.64-7.18a7.67,7.67,0,0,1,.57-1.82c.19,0,.32.07.31.29,0,3.69-.26,7.4,0,11.06.2,2.36,0,4.81.83,7.12,1.18,10.68,3.55,21,9.6,30.11,2.32,3.5,5,6.68,8.84,8.62a4.41,4.41,0,0,1,.87.81,5.49,5.49,0,0,0,1.79,1.86l3.26,2.35c.64.46.12.57-.21.73a57,57,0,0,1-13.77-1.61,1.91,1.91,0,0,1-1.26-.6c-.53-.35-1-.74-1.6-1.05a82.49,82.49,0,0,1-13.88-9.49c-1.4-1.21-2.84-2.37-4.27-3.56l-.33.38,8.68,8.91c-2.3-.05-4.31-1.12-6.44-1.77a53.35,53.35,0,0,1-9.88-4.35,4.53,4.53,0,0,1-2.06-1.56l-.58-.38,0,0c-.29-1.18-1.29-1.81-2-2.61A59.53,59.53,0,0,1,50.9,217.34c-.16-.52-.17-1.16-.9-1.46a96.41,96.41,0,0,0,5.85,18.55c-2.5-.37-4.68-1.62-6.9-2.67-5.45-2.58-10.6-5.66-14.69-10.23a14.1,14.1,0,0,1-3.76-12.35,78.09,78.09,0,0,1,6.08-18.66c.91-2.05,1.87-4.08,2.84-6.1a3.72,3.72,0,0,1,1.35-1.93c.13,3.83,0,7.66.36,11.51a53,53,0,0,0,2.61,11.66A3.7,3.7,0,0,0,45,207.81a.71.71,0,0,0,.56-.78c0-3.61.58-7.16,1-10.74a111.79,111.79,0,0,1,3-17c.54-2.06,1-4.23,2.32-6-.06,2.89-.9,5.68-1.13,8.56a94.3,94.3,0,0,0-.48,15.32,49.92,49.92,0,0,0,6.11,20.31,72.29,72.29,0,0,0,14.94,18.41,1.72,1.72,0,0,0,1.27.59l.23.2ZM49.79,214l-.07-.19a2.15,2.15,0,0,0-.11.36s0,.12.06.18Z"/><path class="cls-1" d="M232.76,249a5.86,5.86,0,0,1,.67-2.73,43.58,43.58,0,0,0,2.74-12.7c.66-1.09,1.35-2.17,2-3.28a39.89,39.89,0,0,0,5.6-15.74,38.08,38.08,0,0,0-4-21.45,117.67,117.67,0,0,0-12.24-19.51c-.76-1-1.89-1.79-2-3.19a3.79,3.79,0,0,1,1.09.45c2.06,1.88,4.51,2.06,7.16,2.08A89.33,89.33,0,0,0,255,171a34.15,34.15,0,0,0,21.32-14.55c.35-.53.6-1.15,1.24-1.43a34.58,34.58,0,0,1-6.69,15.51c-4.48,5.86-10.17,10.42-16.17,14.63l-2.06,1.42a108,108,0,0,1,6.46,9,38.9,38.9,0,0,1,5.56,16.95c.35,4.62-.28,9.09-.7,13.62a5.66,5.66,0,0,1-.45,1.28,3.28,3.28,0,0,1-1.14-1.79,35.11,35.11,0,0,0-10-14.2,38.3,38.3,0,0,0-4-2.83c-.86.36-.65,1-.66,1.52,0,2.81.1,5.63-.07,8.43a60.3,60.3,0,0,1-1.76,12.32A30.66,30.66,0,0,1,232.76,249Z"/><path class="cls-1" d="M130,76a4,4,0,0,0,2.65,2.2c1.66.24,1.79,1.22,1.69,2.5,0,.39,0,.78-.05,1.18-3.92,1-6,4-5.75,7.39.11,1.36.41,2.68.51,4a12,12,0,0,1-.49,4c-.61,2.15-.28,4.45-1.2,6.78-.9-2.75-2-5.22-2.24-8,0-2.15,0-4.29,0-6.44a11.42,11.42,0,0,0-.9-4.4c-.75-1.8-1.49-2.11-3.36-1.52a23.64,23.64,0,0,1-4.77,1.45c-.75-.27-1-.93-1.36-1.56-.8-1.55-.76-1.5.74-2.67.85-.67,1.83-1.31,1.95-2.56l.55,0a19.3,19.3,0,0,1,4.45.33,3.4,3.4,0,0,0,.31-2.43,128.15,128.15,0,0,0-2.18-16.55c-.19-1-.43-2-.67-3-.2-.83-.75-.93-1.47-.64a1.72,1.72,0,0,0-1.13,1.14,13.82,13.82,0,0,0-6.11,7.41,22,22,0,0,0-.92,2.74,1.6,1.6,0,0,1-1.91,1.39,38,38,0,0,0-5.55-.55c1.8-2.59,4-4.39,4.49-7.16a6.69,6.69,0,0,0,1-3.36c.74-1.78,1.86-3.4,2.35-5.29l1.1-.58a49,49,0,0,0,4.69-2.37,4.72,4.72,0,0,0,2.41-4.84,21.84,21.84,0,0,0-1.31-5.34c-.21-1.26-.39-2.53-.65-3.78-.2-.93-.81-1.09-1.58-.49a5.94,5.94,0,0,0-1.2,1.78,3.87,3.87,0,0,1-4.43,1.52c-.94-.37-.9-1.19-1-2s.38-1.69-.47-1.91-1.33.74-1.78,1.38c-.74,1-1.39,2.15-2.13,3.2-1,1.44-1.35,1.53-3,1.06A16.52,16.52,0,0,1,97.23,38a1.25,1.25,0,0,1-.46-2A42.71,42.71,0,0,1,104.48,26c2.67-2.42,5.69-2.32,7.94.45.2.25.32.56.54.79.42.44.81.39,1.17-.13,1.41-2,1.23-5.21-.57-6.74a1.85,1.85,0,0,1-.59-2.5,28,28,0,0,0,1.85-6.92c.14-1,.17-1.91.23-2.86A8.65,8.65,0,0,1,115.27,5c.85-.19.94.5,1.11,1a64.21,64.21,0,0,0,4.94,10.92c.35.58.41,1-.06,1.5-1.88,1.87-1.64,4-.89,6.27a9.48,9.48,0,0,0,1.1,2.75c.89-.15,1.28-.86,1.72-1.49a15,15,0,0,1,3.74-3.68,4.07,4.07,0,0,1,4.74-.12c3.63,2.15,6.43,5.28,9.36,8.24a.93.93,0,0,1,.05,1.47C139.83,33,138.77,34.45,137,35c-1.21.38-2.13.42-3-.64a22.1,22.1,0,0,0-1.87-1.88,5.17,5.17,0,0,0-.92-.76c-.4-.24-.86-.63-1.32-.33s-.34.86-.21,1.32c.17.61.4,1.22.61,1.82.26.77.06,1.3-.8,1.35-2.1.13-4.26.36-5.37-2.09a2,2,0,0,0-.44-.56c-.28-.28-.58-.6-1-.47a1.05,1.05,0,0,0-.78,1.09,33.17,33.17,0,0,0,.09,5.28,39.9,39.9,0,0,1,.39,4.05c0,.64,0,1.29,0,1.92a4.28,4.28,0,0,0,4.16,4.2,28.74,28.74,0,0,0,3.35,0l1.09.06c.49,2.29,1.95,4,3.35,5.78a4.07,4.07,0,0,0,2,3.39c1.51,1.89,3.8,2.5,6,3.52-1.56,1-3,1.82-4.34,2.75a1.08,1.08,0,0,1-1.66-.24,16.9,16.9,0,0,1-1.09-1.57c-1.74-2.79-4.36-4.56-7-6.23-.73.31-.65.84-.65,1.3,0,3.43-.1,6.88,0,10.31a17.21,17.21,0,0,0,1.54,6.7A1.78,1.78,0,0,0,130,76Zm-6.3-19.21c1-.08,1.35-.73,1.8-1.14,1.8-1.68,2.74-1.81,4.92-.6.28.16.52.39.81.52a.66.66,0,0,0,.87-.11.67.67,0,0,0-.16-.86,14,14,0,0,0-7-4.8c-1.36-.35-1.56-.23-1.65,1.12C123.12,52.8,124,54.64,123.7,56.74Zm-14.41,5.51a4.44,4.44,0,0,0,2-1.65,24.05,24.05,0,0,1,6.7-6.37c.27-.16.58-.32.57-.69s-.29-.53-.6-.63A5.24,5.24,0,0,0,112,54.75,19.39,19.39,0,0,0,109.29,62.25Z"/><path class="cls-1" d="M183.65,233.7a16.78,16.78,0,0,0,8.38-4.42c4.92-4.39,8.29-9.95,11.58-15.56.33-.55.62-1.12.95-1.67.07-.11.26-.15.59-.32-.75,4.31-2.18,8.31-3.5,12.86,2.27-1.45,2.43-3.79,4.06-5a5.6,5.6,0,0,1-.61,3,53.6,53.6,0,0,1-3.26,6.41,17.73,17.73,0,0,0-1.84,3.44,6.53,6.53,0,0,0,3.53-.89A59.14,59.14,0,0,0,214.35,225a20.59,20.59,0,0,1-1.89,5.89,62.65,62.65,0,0,1-8.38,14.71c-.47.61-.81,1.43-1.74,1.52-2.19-.2-4.3.39-6.44.64a52.07,52.07,0,0,1-27-4c-.19-.09-.32-.3-.5-.47.35-.72,1.09-.68,1.64-.89a29.19,29.19,0,0,0,10.71-6.72A8.84,8.84,0,0,1,183.65,233.7Zm17.72-8.29c-.22.17-.59.3-.16.63.06-.21.11-.42.17-.62a.93.93,0,0,0,.2-.08s0-.11,0-.17Z"/><path class="cls-1" d="M110.7,52.33c-.49,1.89-1.61,3.51-2.35,5.29a10.28,10.28,0,0,0-1.67.17c-6.43,1.6-12.86,3.22-19.15,5.36A51.91,51.91,0,0,0,68.88,73.73a1.92,1.92,0,0,1-2.76.16c-1.83-1.29-3.7-2.53-5.45-3.93a9.22,9.22,0,0,1-3.14-4.16c1.86,0,3.28,1.15,4.8,2,.57.33,1.09.92,2.07.52a18.36,18.36,0,0,1-1.59-7.51,14.54,14.54,0,0,1,1.59-1,82.18,82.18,0,0,1,13-5.12c2.53.9,3.63,3.38,5.53,5.07-.62-2.38.7-4.6.3-6.88A89.76,89.76,0,0,1,93.32,49.9a36.46,36.46,0,0,1,6.77-1.53l3.6,5.83c.46-2.61.85-4.85,1.25-7.08l2.28-.72A10.93,10.93,0,0,0,110.7,52.33Z"/><path class="cls-1" d="M134.31,55.21c-1.4-1.76-2.86-3.49-3.35-5.78,1.39-.83,1.47-2.34,1.88-3.67.18-.58,0-1.28.66-1.67l2.27.07c.94,2.48,1.87,5,2.81,7.43.86-2.64,2.13-5,3-7.43a136,136,0,0,1,15.89.53c1.21,2.13,1.69,4.52,2.3,7.41.79-1.58,1.41-2.65,1.87-3.78s1.88-1.77,2.15-3.1a63.41,63.41,0,0,1,9.92,1.11c2.58.43,5.2.72,7.59,1.9-.51,2.35-1,4.71-1.52,7.07.51.05.7-.23,1-.4,1.6-1,2.92-2.42,4.75-3.06-.88,2.4-2.81,4-4.32,6a3.31,3.31,0,0,1-3.41,1.22c-3.63-.56-7.28-1-10.91-1.57-5.87-.85-11.77-1.29-17.65-1.64C144.25,55.54,139.28,55.31,134.31,55.21Z"/><path class="cls-1" d="M51.87,173.34c-1.37,1.76-1.78,3.93-2.32,6a111.79,111.79,0,0,0-3,17c-.38,3.58-.92,7.13-1,10.74a.71.71,0,0,1-.56.78,3.7,3.7,0,0,1-1.26-2.15A53,53,0,0,1,41.13,194c-.39-3.85-.23-7.68-.36-11.51a9.11,9.11,0,0,1,1.53-3.24,10.91,10.91,0,0,0,1.59-3.5c-2.25,0-4.31,0-6.36,0a49.07,49.07,0,0,1-19.74-4.52c-2.35-1-4.61-2.28-6.9-3.43-.58-.29-1.18-.53-1.45-1.2a94.12,94.12,0,0,0,9.77.79,67.91,67.91,0,0,0,13.67-.15,55.29,55.29,0,0,0,6.88-.87c5.65-1.46,11-3.57,15.15-7.85.16-.17.37-.26.78-.09-.63,2.26-1.29,4.53-1.9,6.83a43.27,43.27,0,0,0-1.53,7.49C52.24,173,52,173.14,51.87,173.34Z"/><path class="cls-1" d="M134.31,55.21c5,.1,9.94.33,14.89.63,5.88.35,11.78.79,17.65,1.64,3.63.53,7.28,1,10.91,1.57a3.31,3.31,0,0,0,3.41-1.22c1.51-1.95,3.44-3.59,4.32-6A3.86,3.86,0,0,0,187,50.79c2.69,1.68,5,3.64,5.7,7-.31,2-2,3-3.38,4.1a44,44,0,0,1-12.89,6.65c-2.08.74-4.11,1.8-6.43,1.7,0-1.33.26-2.69-.48-3.92.58-.66,1.22-1.27,1.75-2,.91-1.23.77-2-.51-2.77a9.66,9.66,0,0,0-2.66-1.08,46.84,46.84,0,0,0-8.77-1.33,221.77,221.77,0,0,0-23.06-.54A4.07,4.07,0,0,1,134.31,55.21Z"/><path class="cls-1" d="M57.53,65.8A9.22,9.22,0,0,0,60.67,70c1.75,1.4,3.62,2.64,5.45,3.93a1.92,1.92,0,0,0,2.76-.16A51.91,51.91,0,0,1,87.53,63.15c6.29-2.14,12.72-3.76,19.15-5.36a10.28,10.28,0,0,1,1.67-.17,6.69,6.69,0,0,1-1,3.36,93.3,93.3,0,0,0-31.4,10.65c-1.86,1-1.84,1-1.36,2.86a4.88,4.88,0,0,0,.88,3.31c.35.68,1,1.21,1.07,2a58.4,58.4,0,0,1-19-3.46c-2.19-.79-4.29-1.79-5.63-3.86a13.7,13.7,0,0,1,4.78-7.19Z"/><path class="cls-1" d="M56.18,59.16c1.57-1.77,3.69-2.75,5.7-3.83a90.33,90.33,0,0,1,11.67-5,203,203,0,0,1,19.44-6c3.61-1,7.28-1.74,10.94-2.53,2.34-.51,2.9.1,2.85,2.9a11.72,11.72,0,0,0-1.19.15c-8,1.84-15.88,3.85-23.68,6.29-7.2,2.25-14.34,4.68-20.84,8.62-1.64,1-3.24,2.06-4.86,3.09Z"/><path class="cls-1" d="M225,142.57a91.41,91.41,0,0,0,11-.65A27.78,27.78,0,0,0,252,135.25c.81-.38,1.62-1.54,2.51-.65s-.19,1.78-.61,2.54a25.31,25.31,0,0,1-6.76,7.36,55.86,55.86,0,0,1-9.66,6.15,6.85,6.85,0,0,0-2.48-1.43,56.8,56.8,0,0,1-8.74-5.07C225.69,143.72,225,143.41,225,142.57Z"/><path class="cls-1" d="M133.42,41.81c0-.48,0-1,0-1.44-.08-1.15.49-1.6,1.59-1.55,3.92.19,7.86-.41,11.76.43a8.54,8.54,0,0,0,1.68,0,148.21,148.21,0,0,1,20.28,1.81A78,78,0,0,1,184.1,44.6c1.31.47,2.84.64,3.77,1.91a1.92,1.92,0,0,1-.53,1.66A56.77,56.77,0,0,0,181,45.93a120.08,120.08,0,0,0-18.76-2.77c-3.19-.27-6.39-.52-9.59-.68C146.24,42.16,139.84,41.62,133.42,41.81Z"/><path class="cls-1" d="M133.42,41.81c6.42-.19,12.82.35,19.23.67,3.2.16,6.4.41,9.59.68A120.08,120.08,0,0,1,181,45.93a56.77,56.77,0,0,1,6.34,2.24,20.09,20.09,0,0,1,6.79,5.6c.06,1.52,0,3-1.43,4-.66-3.34-3-5.3-5.7-7-1.62-1.49-3.67-2-5.7-2.57-2.39-1.18-5-1.47-7.59-1.9a63.41,63.41,0,0,0-9.92-1.11c-2.11-.07-4.18-.75-6.32-.53a136,136,0,0,0-15.89-.53h-5.81l-2.27-.07A6.48,6.48,0,0,1,133.42,41.81Z"/><path class="cls-1" d="M56.21,62.88c1.62-1,3.22-2.09,4.86-3.09,6.5-3.94,13.64-6.37,20.84-8.62,7.8-2.44,15.72-4.45,23.68-6.29a11.72,11.72,0,0,1,1.19-.15,3.08,3.08,0,0,0,.44,1.67l-2.28.72a20.24,20.24,0,0,0-4.85,1.25,36.46,36.46,0,0,0-6.77,1.53,89.76,89.76,0,0,0-10.11,2.94l-5.83,1.81a82.18,82.18,0,0,0-13,5.12,14.54,14.54,0,0,0-1.59,1c-2.27,1.21-4.53,2.43-6.16,4.51a13.7,13.7,0,0,0-4.78,7.19,3.68,3.68,0,0,1-1.68-3.67Z"/><path class="cls-1" d="M112.65,258.32c.33-.16.85-.27.21-.73l-3.26-2.35a5.49,5.49,0,0,1-1.79-1.86c1.43.11,2.81.46,4.27.53,4,.19,7.12-1.48,10-3.95.3-.26.58-.55.86-.84.58-.58,1.08-.45,1.66,0a7.76,7.76,0,0,1,2.36,3.57,3.52,3.52,0,0,1-2.33,4.42,11,11,0,0,1-4.65,1.06c-1.84-.1-3.61.72-5.48.47C113.86,258.61,113.19,258.79,112.65,258.32Z"/><path class="cls-1" d="M181.12,210.47c.1-2.66,1-5.15,1.49-7.75.9-5.26,1.9-10.51,2.85-15.77a1.59,1.59,0,0,1,.48-1.06,64.2,64.2,0,0,1,2.41,11c.31,2.12.63,4.25,1,6.37a72.37,72.37,0,0,0-5.5,5.3A8.88,8.88,0,0,1,181.12,210.47Z"/><path class="cls-1" d="M88.5,213.84c-.78-2.31-.63-4.76-.83-7.12-.31-3.66-.06-7.37,0-11.06l.89.33c.34,2.4,1.58,4.48,2.4,6.7,1.54,4.18,3.17,8.32,4.73,12.49a6.26,6.26,0,0,1,.59,3C93.28,217.4,91,215.39,88.5,213.84Z"/><path class="cls-1" d="M184.67,271.51l4.65-.46a.52.52,0,0,0,.63-.21c2.77-.75,2.93-1.15,1.74-4.79,6.2,3.42,12.58,4.9,19.44,3.48-2.73,2-5.92,2.67-9.16,3.15A46.08,46.08,0,0,1,184.67,271.51Z"/><path class="cls-1" d="M225,142.57c.08.84.74,1.15,1.33,1.58a56.8,56.8,0,0,0,8.74,5.07,6.85,6.85,0,0,1,2.48,1.43c-1.71,1.47-4,1.91-5.75,3.34a2.91,2.91,0,0,1-1.77-.65,26.35,26.35,0,0,1-9.27-10.89C222.27,141.53,223.6,142.48,225,142.57Z"/><path class="cls-1" d="M117.32,57.15A1.72,1.72,0,0,1,118.45,56c.72-.29,1.27-.19,1.47.64.24,1,.48,2,.67,3a128.15,128.15,0,0,1,2.18,16.55,3.4,3.4,0,0,1-.31,2.43,19.3,19.3,0,0,0-4.45-.33c1.28-6.22.52-12.4-.32-18.57C117.57,58.89,117.44,58,117.32,57.15Z"/><path class="cls-1" d="M55.85,234.43A96.41,96.41,0,0,1,50,215.88c.73.3.74.94.9,1.46a59.53,59.53,0,0,0,14.35,23.34c.76.8,1.76,1.43,2,2.61a53.08,53.08,0,0,1-8.76-6.51C57.63,236,56.75,235.22,55.85,234.43Z"/><path class="cls-1" d="M76.51,79.84c-.06-.83-.72-1.36-1.07-2a4.88,4.88,0,0,1-.88-3.31c6.52,3,13.59,4,20.59,5.47-.1.43-.45.28-.67.32a5.9,5.9,0,0,1-.73,0c-4.89,0-9.78,0-14.67,0A5,5,0,0,1,76.51,79.84Z"/><path class="cls-1" d="M169.52,66.3c.74,1.23.48,2.59.48,3.92a4.53,4.53,0,0,1-2.58,1.19c-4.18,1-8.37,2-12.57,3a8.35,8.35,0,0,1-1.55,0,10.1,10.1,0,0,1,3.33-1.83,58.2,58.2,0,0,0,11.79-5.88A5.61,5.61,0,0,1,169.52,66.3Z"/><path class="cls-1" d="M86.22,251.3l-8.68-8.91.33-.38c1.43,1.19,2.87,2.35,4.27,3.56A82.49,82.49,0,0,0,96,255.06c.56.31,1.07.7,1.6,1.05a34.54,34.54,0,0,1-9.27-3.74C87.65,252,86.93,251.66,86.22,251.3Z"/><path class="cls-1" d="M117.59,39.2a21.84,21.84,0,0,1,1.31,5.34,4.72,4.72,0,0,1-2.41,4.84,49,49,0,0,1-4.69,2.37,10.26,10.26,0,0,1,3.27-4.93,7.54,7.54,0,0,0,2.45-6.66A5.23,5.23,0,0,1,117.59,39.2Z"/><path class="cls-1" d="M56.21,62.88l-6,6a5,5,0,0,1,.71-4.35,12.11,12.11,0,0,1,5.28-5.34Z"/><path class="cls-1" d="M129.87,49.37a28.74,28.74,0,0,1-3.35,0,4.28,4.28,0,0,1-4.16-4.2c-.07-.63,0-1.28,0-1.92a1.81,1.81,0,0,1,1.16.2,40.44,40.44,0,0,1,6.07,5.09A2.48,2.48,0,0,1,129.87,49.37Z"/><path class="cls-1" d="M194.13,53.77a20.09,20.09,0,0,0-6.79-5.6,1.92,1.92,0,0,0,.53-1.66C191.66,47.37,194.26,50.39,194.13,53.77Z"/><path class="cls-1" d="M67.26,243.24l.58.38Z"/><path class="cls-1" d="M225.5,170.42c.14,1.4,1.27,2.21,2,3.19a117.67,117.67,0,0,1,12.24,19.51,38.08,38.08,0,0,1,4,21.45,39.89,39.89,0,0,1-5.6,15.74c-.63,1.11-1.32,2.19-2,3.28-2-.13-3.75.75-5.61,1.14-3.36.69-6.32-.16-9.65-1.3a55.38,55.38,0,0,0,6-2.18c5.41-2.73,7.83-7.34,8.25-13.14.38-5.43-.89-10.65-2.33-15.82A188.22,188.22,0,0,0,223,176c-1.14-2.56-2.26-5.13-3.38-7.69a.78.78,0,0,1,.06-1A19,19,0,0,1,225,170l.51.49Z"/><path class="cls-1" d="M152.14,152.12c2.36,1.83,4.88,3.48,6.81,5.81-1.94.94-4.15,1.3-5.94,2.6.12.19.16.31.2.31,2.64,0,5-1.35,7.61-1.49a3.31,3.31,0,0,1,2.06.55A55.35,55.35,0,0,0,173,164.82c.14.05.24.21.36.31,2.4,3.27,4.73,6.59,7.22,9.78,1.12,1.42,1.74,3.26,3.41,4.23l0,0a1.19,1.19,0,0,0,.42,1,8.89,8.89,0,0,1,1,4,16,16,0,0,1-2.83-.5c-2.12-.41-2.88-2.29-3.82-3.75-.59-.92.87-1.89,1.39-2.85.05-.1,0-.25,0-.57a5.56,5.56,0,0,1-7.08-.6,3.19,3.19,0,0,0-.64-.32c-1.54-.75-1.54-.75-.94-2.42.1-.25.35-.53,0-.82l-2.92,1.63a18.22,18.22,0,0,0-9.55-1.42c-2.13.22-4.19.71-5.44,3.22,1.35-.24,2.42-.41,3.47-.64.79-.17,1.56-.4,2.27.18a35.67,35.67,0,0,0-7.07,3.67,83,83,0,0,1-9-19.51c-.36-1.13-.78-2.25-1.17-3.38.77-.71.45-1.64.46-2.48a10.41,10.41,0,0,1,.8-4.43C146.29,150.15,149,151.7,152.14,152.12Z"/><path class="cls-1" d="M201,157.9c-1.29-1.93-2.55-3.89-3.89-5.79-6.13-8.69-14.73-13.55-24.93-15.88-1-.23-2-.36-3-.63-.57-.15-.46-.53-.06-.84a8.53,8.53,0,0,0,2.68-1c4.85-1.86,9.55-4.08,14.25-6.29,1.63-.76,1.61-.87.47-2.16s-2.44-2.75-3.64-4.14c-.33-.39-.95-.76-.25-1.36l6.25,6c.47.82,1.36.12,2,.58-.77.73-.59,1.52-.21,2.37,1.26,2.76,2.41,5.57,3.72,8.31a39.7,39.7,0,0,0,4.26,7.43q1.68,6.15,3.37,12.29l.3.84c.12.65.13,1.22-.79,1.16Z"/><path class="cls-1" d="M134.36,125a66.73,66.73,0,0,0,1.88,18c-.92.42-1.5-.1-2-.49a25.89,25.89,0,0,0-11-4.62c-3-.53-6-1-9-.2a5.22,5.22,0,0,0-4,3.17c-.48,1.26-1,1.35-1.87.45a9.64,9.64,0,0,1-3-5.86,21.71,21.71,0,0,1,1.15-8.27c.29-1,.85-1.13,1.77-.48a44.56,44.56,0,0,0,3.8,2.51c4.75,2.68,9.45,2.36,14.22.12a48.58,48.58,0,0,0,6-3.54A3.13,3.13,0,0,1,134.36,125Z"/><path class="cls-1" d="M214.35,225a59.14,59.14,0,0,1-10.82,6.59,6.53,6.53,0,0,1-3.53.89,17.73,17.73,0,0,1,1.84-3.44,53.6,53.6,0,0,0,3.26-6.41,5.6,5.6,0,0,0,.61-3l0,0c.43-.28.54-.58.06-.91a44.12,44.12,0,0,0,4.35-11.91,32.09,32.09,0,0,0,.59-10.18A53.6,53.6,0,0,0,207.4,183a4.88,4.88,0,0,1-.24-1.89h0c1.82,2.29,2.64,5.09,3.75,7.71a60,60,0,0,1,4.75,18C216.22,212.82,216.42,219,214.35,225Z"/><path class="cls-1" d="M147.36,183c1.1,1.68,2.84,2.79,4.19,4.66a8.36,8.36,0,0,1-3.65.05c-5.67-1.06-11.3-2.26-16.62-4.66a56,56,0,0,1-12.15-7.69c-3.71-3-6.62-6.72-9.85-10.16-.56-1.1-1-2.33-2.5-2.49,0-.31.1-.71,0-.93q-2.17-3.3-4.43-6.54c-.63-.92-1.23-.46-1.73.14-1,1.16-1.88,2.38-2.9,3.5-1.4,1.54-2.31,3.44-3.85,4.85A9.61,9.61,0,0,1,95,159.88c1.7-3.86,3.42-7.71,5.13-11.56.45-.25.75-1.58,1.43-.15.58,1.19,1.25,2.34,1.89,3.5.33.61.54,1.33,1.37,1.48.5,2.34,2,4.13,3.32,6,3.46,5,7.24,9.73,12.14,13.42a34.2,34.2,0,0,0,9.69,5.59A35.8,35.8,0,0,0,143.1,182Z"/><path class="cls-1" d="M182.56,119.84c-.7.6-.08,1,.25,1.36,1.2,1.39,2.42,2.76,3.64,4.14s1.16,1.4-.47,2.16c-4.7,2.21-9.4,4.43-14.25,6.29a8.53,8.53,0,0,1-2.68,1,30.87,30.87,0,0,0,2.88-4.95,21,21,0,0,0,.82-10.42,57.76,57.76,0,0,0-2.08-9.36,5.39,5.39,0,0,1-.51-2.43C175.3,110.75,178.53,115.7,182.56,119.84Z"/><path class="cls-1" d="M141.06,126.61c.2-.12.43-.38.6-.34,3.78.89,6.68-.86,9.37-3.15a14.47,14.47,0,0,0,2.33-2.43c.76-1,1.35-.7,1.85.08,1,1.54,1.92,3.14,2.85,4.73a76.25,76.25,0,0,1,6.06,12.21c-.79.51-1.12-.1-1.47-.45a20.78,20.78,0,0,0-4-3.08c-4.1-2.51-8.36-2.37-12.68-.63a5.47,5.47,0,0,1-2.51.75A46.35,46.35,0,0,1,141.06,126.61Z"/><path class="cls-1" d="M88.51,196l-.89-.33c0-.22-.12-.28-.31-.29l-.14.06-.07,0a5.49,5.49,0,0,1,.63-.34c4-1.37,4-1.48,5.36-5.26a1.4,1.4,0,0,0-.31-1.51,25.09,25.09,0,0,1-1.73-2.16c3,1.35,5.06-.09,6.86-2.18a4.15,4.15,0,0,1,.56-.46c2-1.53,2-1.53.43-3.7l3,.31a3,3,0,0,0,2.53.26,17.39,17.39,0,0,1,8.71-.41c2.18.67,4.43,1.16,6.37,2.81a4.65,4.65,0,0,0-.76-.12c-.23,0-.55,0-.64.15a.49.49,0,0,0,.23.77c-.86.91-1.66,0-2.42-.16-7.72-2.15-14.92.55-19.15,7.28a11.31,11.31,0,0,0-1.65,8.94c.19.79.89,1.5.57,2.41a41.69,41.69,0,0,1-2.9-3.75A4.43,4.43,0,0,0,88.51,196Z"/><path class="cls-1" d="M168.6,173.83l2.92-1.63c.31.29.06.57,0,.82-.6,1.67-.6,1.67.94,2.42a3.19,3.19,0,0,1,.64.32,5.56,5.56,0,0,0,7.08.6c0,.32.07.47,0,.57-.52,1-2,1.93-1.39,2.85.94,1.46,1.7,3.34,3.82,3.75a16,16,0,0,0,2.83.5l-.3.72a4.41,4.41,0,0,0-3.94,3.48c-.44,1.59-.88,3.34-2.42,4.4,2.4-9.79-7.25-16.8-15.48-15.27a18.76,18.76,0,0,0-7.26,3.07,5.72,5.72,0,0,1-1.83,1.14,12.78,12.78,0,0,1-1.91-2.73,35.67,35.67,0,0,1,7.07-3.67,22.65,22.65,0,0,1,8.42-1A.94.94,0,0,0,168.6,173.83Z"/><path class="cls-1" d="M141.06,126.61a46.35,46.35,0,0,0,2.42,7.69,78.49,78.49,0,0,0,3.63,9.62,11,11,0,0,1,1.23,3.86,34.64,34.64,0,0,1-5.36-5.33c-1.54-1.78-3.17-3.49-4.75-5.24-.7-3.6-1.07-7.25-1.55-10.89-.56-4.22-.06-8.48-.8-12.68a31.75,31.75,0,0,1,0-5.21,6.92,6.92,0,0,1,.93,2.48A129.24,129.24,0,0,0,141.06,126.61Z"/><path class="cls-1" d="M104.85,153.15c-.83-.15-1-.87-1.37-1.48-.64-1.16-1.31-2.31-1.89-3.5-.68-1.43-1-.1-1.43.15a80.6,80.6,0,0,1-1.53-10.49,1,1,0,0,0-.95-1.14h0a12.38,12.38,0,0,0,.18-5.65,29.84,29.84,0,0,1-.07-8.12,51.26,51.26,0,0,1,1.34-8.7c1.12-3.88,1.89-7.9,4.33-11.28h0a7.44,7.44,0,0,1-.7,3.26A53.6,53.6,0,0,0,100,122.7c-.19,9.66,1.88,18.91,4.39,28.11A4.72,4.72,0,0,1,104.85,153.15Z"/><path class="cls-1" d="M175.69,192.07c-.3,1.88-.68,3.72-2.29,5-1.86-3.88-3.19-4.55-6.83-3.47a7.14,7.14,0,0,0,.63-3.73c-.35-2.92-2.09-4-5-3.17l-.4-.38c-1.07-.68-2.4-.9-3.26-1.95a1.46,1.46,0,0,1,.14-2.3c1.67-1.54,7.1-2.34,9.17-1.34,1.24.61,1.46,1.5.79,2.78-.5.94-1.55,1.32-2.34,2.38,3.89.83,6.53,3.25,9,5.9A2.14,2.14,0,0,0,175.69,192.07Z"/><path class="cls-1" d="M175.69,192.07a2.14,2.14,0,0,1-.39-.28c-2.49-2.65-5.13-5.07-9-5.9.79-1.06,1.84-1.44,2.34-2.38.67-1.28.45-2.17-.79-2.78-2.07-1-7.5-.2-9.17,1.34a1.46,1.46,0,0,0-.14,2.3c.86,1,2.19,1.27,3.26,1.95-2.73.63-5,2.3-7.53,3.37a11.4,11.4,0,0,1,5.66-10c5-3.06,11.42-1.13,14.38,4.23A12.38,12.38,0,0,1,175.69,192.07Z"/><path class="cls-1" d="M174.46,165.17c.17-7.11-1.74-13.77-4.38-20.26a136.22,136.22,0,0,0-7.83-16.74,7.85,7.85,0,0,1-.42-1.12l.42-.4a161.81,161.81,0,0,1,8.92,16.49A170.71,170.71,0,0,1,179,163.55a8.56,8.56,0,0,1,.68,3C177.8,166.64,176.16,165.79,174.46,165.17Z"/><path class="cls-1" d="M198.61,144.49a39.7,39.7,0,0,1-4.26-7.43c-1.31-2.74-2.46-5.55-3.72-8.31-.38-.85-.56-1.64.21-2.37-.67-.46-1.56.24-2-.58,2.65,0,5.14-1,7.64-1.58.15.21.33.34.32.45-.55,6.15.34,12.17,1.65,18.16A15.33,15.33,0,0,1,198.61,144.49Z"/><path class="cls-1" d="M138.23,137.21c1.58,1.75,3.21,3.46,4.75,5.24a34.64,34.64,0,0,0,5.36,5.33h0l.46.51c.85,1.51,2.48,2.34,3.35,3.84-3.12-.42-5.85-2-8.81-3.08a10.41,10.41,0,0,0-.8,4.43c0,.84.31,1.77-.46,2.48-1.46-5.56-2.78-11.15-3.73-16.82A15.34,15.34,0,0,1,138.23,137.21Z"/><path class="cls-1" d="M143.1,182a35.8,35.8,0,0,1-13.1-3.82,149.08,149.08,0,0,1-8.92-13.49,3.16,3.16,0,0,1-.72-2l0,0c1.4.87,2.17,2.33,3.25,3.49,5.42,5.84,11.3,11.1,18.4,14.86A6.73,6.73,0,0,1,143.1,182Z"/><path class="cls-1" d="M166.57,193.6c3.64-1.08,5-.41,6.83,3.47-2.07,3.57-5.35,4.72-9.26,4.6,0-2.1-.14-4.2.86-6.16.05-.11-.2-.37-.31-.56Z"/><path class="cls-1" d="M116.13,85.15a23.64,23.64,0,0,0,4.77-1.45c1.87-.59,2.61-.28,3.36,1.52a11.42,11.42,0,0,1,.9,4.4c0,2.15,0,4.29,0,6.44-.59,0-.78-.42-1-.88a13.32,13.32,0,0,0-4.77-6.11C118,88.1,116.53,87,116.13,85.15Z"/><path class="cls-1" d="M164.69,195c.11.19.36.45.31.56-1,2-.9,4.06-.86,6.16C160,201,157,199.08,155.55,195c1.14-2.37,2.42-2.83,5.38-1.93C161.94,194.16,162.81,195.57,164.69,195Z"/><path class="cls-1" d="M90.45,171.41a2.75,2.75,0,0,1-1,1.93,88,88,0,0,1,4.79-28.9c.81-2.32,1.47-4.73,2.93-6.77h0a7,7,0,0,1-.29,2.12c-1.57,5.85-3.38,11.65-4.29,17.65-.61,4-1.68,8-1.72,12-.5.37-.43.92-.45,1.44Z"/><path class="cls-1" d="M174.46,165.17c1.7.62,3.34,1.47,5.22,1.41,1.21,1.37,1.43,3.19,2,4.8.95,2.53,2.08,5,2.32,7.76-1.67-1-2.29-2.81-3.41-4.23-2.49-3.19-4.82-6.51-7.22-9.78Z"/><path class="cls-1" d="M160.93,193.05c-3-.9-4.24-.44-5.38,1.93-1.34-1.54-1.38-3.41-1.3-5.29,2.54-1.07,4.8-2.74,7.53-3.37l.4.38C160.53,188.58,160.54,190.78,160.93,193.05Z"/><path class="cls-1" d="M129.05,93.24c-.1-1.34-.4-2.66-.51-4-.28-3.43,1.83-6.4,5.75-7.39a11.43,11.43,0,0,1-3.09,6.76A5,5,0,0,0,130,91.13,3.32,3.32,0,0,1,129.05,93.24Z"/><path class="cls-1" d="M160.82,159.35c-2.6.14-5,1.49-7.61,1.49,0,0-.08-.12-.2-.31,1.79-1.3,4-1.66,5.94-2.6C159.78,158.13,160.76,158.14,160.82,159.35Z"/><path class="cls-1" d="M202.6,158.7a8.46,8.46,0,0,1,.9,2.54l-.61.44c-.25-.81-.94-1.43-1-2.31Z"/><path class="cls-1" d="M202.89,161.68l.61-.44a4.18,4.18,0,0,1,.76,2.95v0A4.34,4.34,0,0,1,202.89,161.68Z"/><path class="cls-1" d="M162.25,126.65l-.42.4a1.63,1.63,0,0,1-.73-1.74C162,125.45,162,126.11,162.25,126.65Z"/><path class="cls-1" d="M160.4,123.59c.08.14.27.33.28.53s-.21.4-.47.27a.55.55,0,0,1-.23-.63C160,123.57,160.16,123.51,160.4,123.59Z"/><path class="cls-1" d="M103.47,103l.17-.6c.42.34,0,.43-.17.6Z"/><path class="cls-1" d="M97.2,137.67a1.05,1.05,0,0,1,.49-1h0a1,1,0,0,1-.48,1Z"/><path class="cls-1" d="M207.16,181.06l-.34-.49c.54-.14.22.33.34.49Z"/><path class="cls-1" d="M184.42,180.05a1.19,1.19,0,0,1-.42-1A1,1,0,0,1,184.42,180.05Z"/><path class="cls-1" d="M201,157.9l.51.88a.39.39,0,0,0-.19.29l0,0Z"/><path class="cls-1" d="M205.75,218.72c.48.33.37.63-.06.91Z"/><path class="cls-1" d="M202.28,157.62l-.3-.84A.65.65,0,0,1,202.28,157.62Z"/><path class="cls-1" d="M148.79,148.28l-.46-.51Z"/><path class="cls-1" d="M202.6,158.7l-.74.67v0l-.37-.59C201.83,158.28,202.21,158.25,202.6,158.7Z"/><polygon class="cls-1" points="204.26 164.19 204.36 164.26 204.27 164.17 204.26 164.19"/><path class="cls-1" d="M201.48,158.75l.37.59-.53-.32,0,0A1.14,1.14,0,0,1,201.48,158.75Z"/><path class="cls-1" d="M225.52,170.45,225,170Z"/><path class="cls-1" d="M120.36,162.72c-.06,0-.18-.06-.18-.08s.08-.1.16.11Z"/><path class="cls-1" d="M190,270.84a.52.52,0,0,1-.63.21A.56.56,0,0,1,190,270.84Z"/><path class="cls-1" d="M151.16,220.08a10.53,10.53,0,0,1-9.26,10.72,21.68,21.68,0,0,1-7.58-.08,8.55,8.55,0,0,1-6.77-7.14,11.94,11.94,0,0,1,6.21-6.35c.62-.25,1.43-.43,1.49-1.36,2.45-.2,4.93.09,7.36-.51a2.32,2.32,0,0,0,.58.38c2.6.79,5.06,1.8,6.9,3.91A1.4,1.4,0,0,0,151.16,220.08Z"/><path class="cls-1" d="M95.7,202.09c.32-.91-.38-1.62-.57-2.41a11.31,11.31,0,0,1,1.65-8.94c4.23-6.73,11.43-9.43,19.15-7.28.76.21,1.56,1.07,2.42.16a8.11,8.11,0,0,0,.66,3,26.87,26.87,0,0,1,2.27,11.4c-.32,6.39-3.25,9.69-8.86,10.86a13.79,13.79,0,0,1-11.18-2.34C99.32,205.15,97.22,204,95.7,202.09Zm4.67-2.14c.23.63-.1,1.46.7,1.88a21.24,21.24,0,0,0,1.13,1.82c2.81,3.71,6.63,5.15,10.64,4s6.21-3.9,7-7.92a8,8,0,0,0,.34-5.22c-.62-3.22-1.77-6.13-4.6-8.09-4.44-4.15-11-3.14-14.11,2.18C99.05,192.23,99,196,100.37,200Z"/><path class="cls-1" d="M142.61,215.36c-2.43.6-4.91.31-7.36.51-1.95-.18-4,.07-5.75-1,.14-1.2,1.22-1.25,2-1.38a56.4,56.4,0,0,1,9.43-1.08c1.68,0,3.35,0,5,0,.71,0,1.46-.11,2,.59C146.57,214.77,144.47,214.81,142.61,215.36Z"/><path class="cls-1" d="M90.45,171.41v-.49a1.5,1.5,0,0,0,1-1.34h0c.89.12,1.47-.49,2.13-.91,4.11-2.59,8.34-4.91,13.15-6,1.5.16,1.94,1.39,2.5,2.49-1.33.68-2.82.31-4.22.6a38.61,38.61,0,0,0-11.38,4.15A8.89,8.89,0,0,1,90.45,171.41Z"/><path class="cls-1" d="M129.5,214.85c1.78,1.09,3.8.84,5.75,1-.06.93-.87,1.11-1.49,1.36a11.94,11.94,0,0,0-6.21,6.35c-1.47-2.53-1-5.15-.34-7.76C127.52,214.55,128.54,214.71,129.5,214.85Z"/><path class="cls-1" d="M113.15,180a17.39,17.39,0,0,0-8.71.41,3,3,0,0,1-2.53-.26c2.23-1,4.18-2.65,6.71-3.15a11.38,11.38,0,0,1,8,1.31,5.14,5.14,0,0,1-2.55.81A.91.91,0,0,0,113.15,180Z"/><path class="cls-1" d="M142.61,215.36c1.86-.55,4-.59,5.28-2.37a1.55,1.55,0,0,1,2.23,1.09,15.16,15.16,0,0,1,1,6,1.4,1.4,0,0,1-1.07-.43c-1.84-2.11-4.3-3.12-6.9-3.91A2.32,2.32,0,0,1,142.61,215.36Z"/><path class="cls-1" d="M49.79,214l-.12.35c0-.06-.07-.13-.06-.18a2.15,2.15,0,0,1,.11-.36Z"/><path class="cls-1" d="M72.62,236.49l.19.24-.23-.2Z"/><path class="cls-1" d="M123.7,56.74c.32-2.1-.58-3.94-.45-5.87.09-1.35.29-1.47,1.65-1.12a14,14,0,0,1,7,4.8.67.67,0,0,1,.16.86.66.66,0,0,1-.87.11c-.29-.13-.53-.36-.81-.52-2.18-1.21-3.12-1.08-4.92.6C125.05,56,124.75,56.66,123.7,56.74Z"/><path class="cls-1" d="M109.29,62.25a19.39,19.39,0,0,1,2.71-7.5,5.24,5.24,0,0,1,5.94-1.84c.31.1.6.25.6.63s-.3.53-.57.69a24.05,24.05,0,0,0-6.7,6.37A4.44,4.44,0,0,1,109.29,62.25Z"/><path class="cls-1" d="M201.38,225.42l-.17.62c-.43-.33-.06-.46.16-.63Z"/><path class="cls-1" d="M201.37,225.41l.23-.24c0,.06,0,.14,0,.17a.93.93,0,0,1-.2.08Z"/><path class="cls-1" d="M56.65,65.33c1.63-2.08,3.89-3.3,6.16-4.51a18.36,18.36,0,0,0,1.59,7.51c-1,.4-1.5-.19-2.07-.52-1.52-.86-2.94-2-4.8-2Z"/><path class="cls-1" d="M77.38,54.65l5.83-1.81c.4,2.28-.92,4.5-.3,6.88C81,58,79.91,55.55,77.38,54.65Z"/><path class="cls-1" d="M100.09,48.37a20.24,20.24,0,0,1,4.85-1.25c-.4,2.23-.79,4.47-1.25,7.08Z"/><path class="cls-1" d="M181.3,48.23c2,.57,4.08,1.08,5.7,2.57a3.94,3.94,0,0,1-1.51,1c-1.83.64-3.15,2.07-4.75,3.06-.26.17-.45.45-1,.4C180.29,52.94,180.79,50.58,181.3,48.23Z"/><path class="cls-1" d="M135.77,44.16h5.81c-.87,2.47-2.14,4.79-3,7.43C137.64,49.12,136.71,46.64,135.77,44.16Z"/><path class="cls-1" d="M157.47,44.69c2.14-.22,4.21.46,6.32.53-.27,1.33-1.66,1.89-2.15,3.1s-1.08,2.2-1.87,3.78C159.16,49.21,158.68,46.82,157.47,44.69Z"/><path class="cls-1" d="M168.6,173.83a.94.94,0,0,1-.83.36,22.65,22.65,0,0,0-8.42,1c-.71-.58-1.48-.35-2.27-.18-1.05.23-2.12.4-3.47.64,1.25-2.51,3.31-3,5.44-3.22A18.22,18.22,0,0,1,168.6,173.83Z"/><path class="cls-1" d="M97.2,137.66a1,1,0,0,0,.48-1,1,1,0,0,1,.95,1.14,80.6,80.6,0,0,0,1.53,10.49c-1.71,3.85-3.43,7.7-5.13,11.56a9.61,9.61,0,0,0-1.21,3.83v0l-.53.5c-1.18,1.6-1.33,3.55-1.8,5.39h0l-.59-.1c0-4.09,1.11-8,1.72-12,.91-6,2.72-11.8,4.29-17.65A7,7,0,0,0,97.2,137.66Z"/><path class="cls-1" d="M91.5,169.57c.47-1.84.62-3.79,1.8-5.39.67.35.44-.25.53-.5v0c1.54-1.41,2.45-3.31,3.85-4.85,1-1.12,1.92-2.34,2.9-3.5.5-.6,1.1-1.06,1.73-.14q2.25,3.24,4.43,6.54c.15.22,0,.62,0,.93-4.81,1.06-9,3.38-13.15,6C93,169.08,92.39,169.69,91.5,169.57Z"/><path class="cls-1" d="M160.93,193.05c-.39-2.27-.4-4.47,1.25-6.35,2.93-.85,4.67.25,5,3.17a7.14,7.14,0,0,1-.63,3.73L164.69,195C162.81,195.57,161.94,194.16,160.93,193.05Z"/><path class="cls-1" d="M90.9,169.48l.59.1a1.5,1.5,0,0,1-1,1.34C90.47,170.4,90.4,169.85,90.9,169.48Z"/><path class="cls-1" d="M112.84,207.7c-4,1.1-7.83-.34-10.64-4a21.24,21.24,0,0,1-1.13-1.82c.46-.62,1-1.22,1.39-1.87a6.31,6.31,0,0,1,4.78-3,8.79,8.79,0,0,0,1.65,2.28,2.3,2.3,0,0,0,3.19.15c.38-.28.7-.63,1-.94v.07a7.65,7.65,0,0,0-.94,7.4Z"/><path class="cls-1" d="M101.42,188.65c3.12-5.32,9.67-6.33,14.11-2.18a7.54,7.54,0,0,1-2.17,3.3c-.45.5-1.2.85-1,1.73l-.16.16c-2.22-1.55-2.87-1.46-4.73.65C105.53,190.92,103.11,190.37,101.42,188.65Z"/><path class="cls-1" d="M112.84,207.7l-.66-1.77a7.65,7.65,0,0,1,.94-7.4,5.32,5.32,0,0,1,4.25-.22,14.87,14.87,0,0,1,2.42,1.47C119.05,203.8,117,206.65,112.84,207.7Z"/><path class="cls-1" d="M119.79,199.78a14.87,14.87,0,0,0-2.42-1.47,5.32,5.32,0,0,0-4.25.22v-.07c.77-2.42.71-4.73-1-6.8l.16-.16a20.5,20.5,0,0,1,7.82,3.06A8,8,0,0,1,119.79,199.78Z"/><path class="cls-1" d="M101.42,188.65c1.69,1.72,4.11,2.27,6,3.66a.25.25,0,0,1-.1.28.57.57,0,0,0-.33.65v0a1.73,1.73,0,0,0-1.16.14,9.16,9.16,0,0,0-5.47,6.55C99,196,99.05,192.23,101.42,188.65Z"/><path class="cls-1" d="M120.13,194.56a20.5,20.5,0,0,0-7.82-3.06c-.15-.88.6-1.23,1-1.73a7.54,7.54,0,0,0,2.17-3.3C118.36,188.43,119.51,191.34,120.13,194.56Z"/><path class="cls-1" d="M100.37,200a9.16,9.16,0,0,1,5.47-6.55,1.73,1.73,0,0,1,1.16-.14,16.47,16.47,0,0,0,.24,3.71,6.31,6.31,0,0,0-4.78,3c-.41.65-.93,1.25-1.39,1.87C100.27,201.41,100.6,200.58,100.37,200Z"/><path class="cls-1" d="M93.83,163.68c-.09.25.14.85-.53.5Z"/><path class="cls-1" d="M107.24,197a16.47,16.47,0,0,1-.24-3.71v0c.3-.13.34-.37.33-.65a.25.25,0,0,0,.1-.28c1.86-2.11,2.51-2.2,4.73-.65,1.69,2.07,1.75,4.38,1,6.8-.35.31-.67.66-1,.94a2.3,2.3,0,0,1-3.19-.15A8.79,8.79,0,0,1,107.24,197Z"/><path class="cls-1" d="M107.32,192.59c0,.28,0,.52-.33.65A.57.57,0,0,1,107.32,192.59Z"/></svg>