<svg id="Objects" xmlns="http://www.w3.org/2000/svg" viewBox="0 0 3000 2000"><defs><style>.cls-1{fill:#ddd;}.cls-2{fill:none;}</style></defs><path class="cls-1" d="M2907.89,1341.36q0-14.59,14.6-14.59h43.78q14.59,0,14.59,14.59v43.79q0,14.6-14.59,14.59h-43.78q-14.59,0-14.6-14.59Z"/><path class="cls-1" d="M2915.36,1541.23q0-11.61,11.61-11.61h34.82q11.6,0,11.6,11.61V1576q0,11.61-11.6,11.61H2927q-11.61,0-11.61-11.61Z"/><path class="cls-1" d="M2922.84,1741.09q0-8.61,8.61-8.61h25.85q8.63,0,8.62,8.61v25.85q0,8.63-8.62,8.62h-25.85q-8.61,0-8.61-8.62Z"/><path class="cls-1" d="M2930.31,1889.56c0-3.75,1.88-5.63,5.63-5.62h16.88c3.75,0,5.63,1.87,5.62,5.62v16.88c0,3.76-1.87,5.63-5.62,5.63h-16.88c-3.75,0-5.63-1.87-5.63-5.63Z"/><path class="cls-1" d="M2908,1439.11q0-14.55,14.55-14.55h43.67q14.57,0,14.56,14.55v43.67q0,14.55-14.56,14.56h-43.67q-14.55,0-14.55-14.56Z"/><path class="cls-1" d="M2916.29,1639.48q0-11.24,11.24-11.24h33.7q11.23,0,11.23,11.24v33.7q0,11.23-11.23,11.23h-33.7q-11.24,0-11.24-11.23Z"/><path class="cls-1" d="M2924.6,1815.65q0-7.9,7.91-7.91h23.74q7.9,0,7.91,7.91v23.74q0,7.92-7.91,7.91h-23.74q-7.92,0-7.91-7.91Z"/><path class="cls-1" d="M2932.9,1948.49q0-4.59,4.59-4.59h13.78q4.59,0,4.59,4.59v13.78q0,4.59-4.59,4.59h-13.78q-4.59,0-4.59-4.59Z"/><path class="cls-1" d="M2932.9,41q0-4.59,4.59-4.59h13.77q4.6,0,4.6,4.59V54.81q0,4.59-4.6,4.59h-13.77q-4.59,0-4.59-4.59Z"/><path class="cls-1" d="M2930.31,90.81q0-5.62,5.63-5.62h16.88q5.63,0,5.63,5.62v16.88q0,5.63-5.63,5.63h-16.88q-5.62,0-5.63-5.63Z"/><path class="cls-1" d="M2924.6,147.79q0-7.92,7.91-7.92h23.74q7.9,0,7.91,7.92v23.73q0,7.92-7.91,7.92h-23.74q-7.92,0-7.91-7.92Z"/><path class="cls-1" d="M2922.84,220.23q0-8.61,8.61-8.61h25.85q8.63,0,8.62,8.61v25.85q0,8.63-8.62,8.62h-25.85q-8.61,0-8.61-8.62Z"/><path class="cls-1" d="M2916.29,296.87q0-11.24,11.24-11.24h33.7q11.23,0,11.23,11.24v33.7q0,11.24-11.23,11.23h-33.7q-11.24,0-11.24-11.23Z"/><path class="cls-1" d="M2915.36,385.94q0-11.61,11.61-11.61h34.82q11.6,0,11.6,11.61v34.81q0,11.61-11.6,11.61H2927q-11.61,0-11.61-11.61Z"/><path class="cls-1" d="M2908,479.2q0-14.55,14.55-14.55h43.67q14.57,0,14.56,14.55v43.67q0,14.55-14.56,14.56h-43.67q-14.55,0-14.55-14.56Z"/><path class="cls-1" d="M2907.89,590.94q0-14.6,14.6-14.59h43.78q14.59,0,14.59,14.59v43.79q0,14.6-14.6,14.59h-43.78q-14.59,0-14.6-14.59Z"/><path class="cls-1" d="M2899.68,704.88q0-17.88,17.88-17.88h53.63q17.88,0,17.88,17.88v53.63q0,17.88-17.88,17.88h-53.63q-17.88,0-17.88-17.88Z"/><path class="cls-1" d="M2900.42,829.21q0-17.58,17.58-17.59h52.75q17.6,0,17.59,17.59V882q0,17.6-17.59,17.59H2918q-17.58,0-17.58-17.59Z"/><path class="cls-1" d="M2895.53,957.23q0-19.54,19.54-19.54h58.62q19.53,0,19.53,19.54v58.61q0,19.54-19.53,19.54h-58.62q-19.55,0-19.54-19.54Z"/><path class="cls-1" d="M2900.42,1091.11q0-17.59,17.58-17.59h52.75q17.6,0,17.59,17.59v52.75q0,17.58-17.59,17.58H2918q-17.58,0-17.58-17.58Z"/><path class="cls-1" d="M2899.68,1213.55q0-17.88,17.88-17.88h53.63q17.88,0,17.88,17.88v53.63q0,17.88-17.88,17.88h-53.63q-17.88,0-17.88-17.88Z"/><path class="cls-1" d="M2797,1341.36q0-14.59,14.6-14.59h43.78q14.6,0,14.6,14.59v43.79q0,14.6-14.6,14.59h-43.78q-14.6,0-14.6-14.59Z"/><path class="cls-1" d="M2804.51,1541.23q0-11.61,11.6-11.61h34.82q11.59,0,11.6,11.61V1576q0,11.61-11.6,11.61h-34.82q-11.61,0-11.6-11.61Z"/><path class="cls-1" d="M2812,1741.09q0-8.61,8.62-8.61h25.84q8.63,0,8.62,8.61v25.85q0,8.63-8.62,8.62H2820.6q-8.62,0-8.62-8.62Z"/><path class="cls-1" d="M2819.45,1889.56c0-3.75,1.88-5.63,5.63-5.62H2842c3.75,0,5.63,1.87,5.63,5.62v16.88c0,3.76-1.88,5.63-5.63,5.63h-16.88c-3.75,0-5.63-1.87-5.63-5.63Z"/><path class="cls-1" d="M2797.13,1439.11q0-14.55,14.56-14.55h43.66q14.57,0,14.56,14.55v43.67q0,14.55-14.56,14.56h-43.66q-14.57,0-14.56-14.56Z"/><path class="cls-1" d="M2805.43,1639.48q0-11.24,11.24-11.24h33.7q11.24,0,11.24,11.24v33.7q0,11.23-11.24,11.23h-33.7q-11.24,0-11.24-11.23Z"/><path class="cls-1" d="M2813.74,1815.65q0-7.9,7.91-7.91h23.74q7.92,0,7.91,7.91v23.74q0,7.92-7.91,7.91h-23.74q-7.92,0-7.91-7.91Z"/><path class="cls-1" d="M2822,1948.49q0-4.59,4.59-4.59h13.78q4.59,0,4.59,4.59v13.78q0,4.59-4.59,4.59h-13.78q-4.59,0-4.59-4.59Z"/><path class="cls-1" d="M2822,41q0-4.59,4.59-4.59h13.78q4.59,0,4.59,4.59V54.81q0,4.59-4.59,4.59h-13.78q-4.59,0-4.59-4.59Z"/><path class="cls-1" d="M2819.45,90.81q0-5.62,5.63-5.62H2842q5.63,0,5.63,5.62v16.88q0,5.63-5.63,5.63h-16.88q-5.62,0-5.63-5.63Z"/><path class="cls-1" d="M2813.74,147.79q0-7.92,7.91-7.92h23.74q7.91,0,7.91,7.92v23.73q0,7.92-7.91,7.92h-23.74q-7.91,0-7.91-7.92Z"/><path class="cls-1" d="M2812,220.23q0-8.61,8.62-8.61h25.84q8.63,0,8.62,8.61v25.85q0,8.63-8.62,8.62H2820.6q-8.62,0-8.62-8.62Z"/><path class="cls-1" d="M2805.43,296.87q0-11.24,11.24-11.24h33.7q11.24,0,11.24,11.24v33.7q0,11.24-11.24,11.23h-33.7q-11.24,0-11.24-11.23Z"/><path class="cls-1" d="M2804.51,385.94q0-11.61,11.6-11.61h34.82q11.61,0,11.6,11.61v34.81q0,11.61-11.6,11.61h-34.82q-11.61,0-11.6-11.61Z"/><path class="cls-1" d="M2797.13,479.2q0-14.55,14.56-14.55h43.66q14.57,0,14.56,14.55v43.67q0,14.55-14.56,14.56h-43.66q-14.57,0-14.56-14.56Z"/><path class="cls-1" d="M2797,590.94q0-14.6,14.6-14.59h43.78q14.6,0,14.6,14.59v43.79q0,14.6-14.6,14.59h-43.78q-14.6,0-14.6-14.59Z"/><path class="cls-1" d="M2788.83,704.88q0-17.88,17.87-17.88h53.64q17.86,0,17.87,17.88v53.63q0,17.88-17.87,17.88H2806.7q-17.88,0-17.87-17.88Z"/><path class="cls-1" d="M2789.56,829.21q0-17.58,17.58-17.59h52.76q17.58,0,17.58,17.59V882q0,17.6-17.58,17.59h-52.76q-17.58,0-17.58-17.59Z"/><path class="cls-1" d="M2784.67,957.23q0-19.54,19.54-19.54h58.62q19.53,0,19.54,19.54v58.61q0,19.54-19.54,19.54h-58.62q-19.53,0-19.54-19.54Z"/><path class="cls-1" d="M2789.56,1091.11q0-17.59,17.58-17.59h52.76q17.58,0,17.58,17.59v52.75q0,17.58-17.58,17.58h-52.76q-17.58,0-17.58-17.58Z"/><path class="cls-1" d="M2788.83,1213.55q0-17.88,17.87-17.88h53.64q17.86,0,17.87,17.88v53.63q0,17.88-17.87,17.88H2806.7q-17.88,0-17.87-17.88Z"/><path class="cls-1" d="M2686.17,1341.36q0-14.59,14.6-14.59h43.78q14.6,0,14.6,14.59v43.79q0,14.6-14.6,14.59h-43.78q-14.59,0-14.6-14.59Z"/><path class="cls-1" d="M2693.65,1541.23q0-11.61,11.6-11.61h34.82q11.61,0,11.61,11.61V1576q0,11.61-11.61,11.61h-34.82q-11.6,0-11.6-11.61Z"/><path class="cls-1" d="M2701.12,1741.09q0-8.61,8.62-8.61h25.85q8.61,0,8.61,8.61v25.85q0,8.63-8.61,8.62h-25.85q-8.62,0-8.62-8.62Z"/><path class="cls-1" d="M2708.59,1889.56c0-3.75,1.88-5.63,5.63-5.62h16.88c3.75,0,5.63,1.87,5.63,5.62v16.88c0,3.76-1.88,5.63-5.63,5.63h-16.88c-3.75,0-5.63-1.87-5.63-5.63Z"/><path class="cls-1" d="M2686.27,1439.11q0-14.55,14.56-14.55h43.67q14.55,0,14.55,14.55v43.67q0,14.55-14.55,14.56h-43.67q-14.57,0-14.56-14.56Z"/><path class="cls-1" d="M2694.58,1639.48q0-11.24,11.23-11.24h33.7q11.23,0,11.24,11.24v33.7q0,11.23-11.24,11.23h-33.7q-11.23,0-11.23-11.23Z"/><path class="cls-1" d="M2702.88,1815.65q0-7.9,7.91-7.91h23.74q7.92,0,7.91,7.91v23.74q0,7.92-7.91,7.91h-23.74q-7.9,0-7.91-7.91Z"/><path class="cls-1" d="M2711.18,1948.49q0-4.59,4.59-4.59h13.78q4.59,0,4.59,4.59v13.78q0,4.59-4.59,4.59h-13.78q-4.59,0-4.59-4.59Z"/><path class="cls-1" d="M2711.18,41q0-4.59,4.59-4.59h13.78q4.59,0,4.59,4.59V54.81q0,4.59-4.59,4.59h-13.78q-4.59,0-4.59-4.59Z"/><path class="cls-1" d="M2708.59,90.81q0-5.62,5.63-5.62h16.88q5.63,0,5.63,5.62v16.88q0,5.63-5.63,5.63h-16.88q-5.62,0-5.63-5.63Z"/><path class="cls-1" d="M2702.88,147.79q0-7.92,7.91-7.92h23.74q7.92,0,7.91,7.92v23.73q0,7.92-7.91,7.92h-23.74q-7.9,0-7.91-7.92Z"/><path class="cls-1" d="M2701.12,220.23q0-8.61,8.62-8.61h25.85q8.61,0,8.61,8.61v25.85q0,8.63-8.61,8.62h-25.85q-8.62,0-8.62-8.62Z"/><path class="cls-1" d="M2694.58,296.87q0-11.24,11.23-11.24h33.7q11.23,0,11.24,11.24v33.7q0,11.24-11.24,11.23h-33.7q-11.23,0-11.23-11.23Z"/><path class="cls-1" d="M2693.65,385.94q0-11.61,11.6-11.61h34.82q11.61,0,11.61,11.61v34.81q0,11.61-11.61,11.61h-34.82q-11.6,0-11.6-11.61Z"/><path class="cls-1" d="M2686.27,479.2q0-14.55,14.56-14.55h43.67q14.55,0,14.55,14.55v43.67q0,14.55-14.55,14.56h-43.67q-14.57,0-14.56-14.56Z"/><path class="cls-1" d="M2686.17,590.94q0-14.6,14.6-14.59h43.78q14.6,0,14.6,14.59v43.79q0,14.6-14.6,14.59h-43.78q-14.59,0-14.6-14.59Z"/><path class="cls-1" d="M2678,704.88q0-17.88,17.88-17.88h53.63q17.88,0,17.88,17.88v53.63q0,17.88-17.87,17.88h-53.63q-17.88,0-17.88-17.88Z"/><path class="cls-1" d="M2678.7,829.21q0-17.58,17.59-17.59H2749q17.58,0,17.58,17.59V882q0,17.6-17.58,17.59h-52.75q-17.6,0-17.59-17.59Z"/><path class="cls-1" d="M2673.82,957.23q0-19.54,19.53-19.54H2752q19.55,0,19.54,19.54v58.61q0,19.54-19.54,19.54h-58.62q-19.53,0-19.53-19.54Z"/><path class="cls-1" d="M2678.7,1091.11q0-17.59,17.59-17.59H2749q17.58,0,17.58,17.59v52.75q0,17.58-17.58,17.58h-52.75q-17.6,0-17.59-17.58Z"/><path class="cls-1" d="M2678,1213.55q0-17.88,17.88-17.88h53.63q17.88,0,17.88,17.88v53.63q0,17.88-17.88,17.88h-53.63q-17.88,0-17.88-17.88Z"/><path class="cls-1" d="M2575.32,1341.36q0-14.59,14.59-14.59h43.79q14.6,0,14.59,14.59v43.79q0,14.6-14.59,14.59h-43.79q-14.6,0-14.59-14.59Z"/><path class="cls-1" d="M2582.79,1541.23q0-11.61,11.61-11.61h34.81q11.61,0,11.61,11.61V1576q0,11.61-11.61,11.61H2594.4q-11.61,0-11.61-11.61Z"/><path class="cls-1" d="M2590.26,1741.09q0-8.61,8.62-8.61h25.85q8.61,0,8.61,8.61v25.85q0,8.63-8.61,8.62h-25.85q-8.62,0-8.62-8.62Z"/><path class="cls-1" d="M2597.74,1889.56c0-3.75,1.87-5.63,5.62-5.62h16.88c3.76,0,5.63,1.87,5.63,5.62v16.88c0,3.76-1.87,5.63-5.63,5.63h-16.88c-3.75,0-5.62-1.87-5.62-5.63Z"/><path class="cls-1" d="M2575.41,1439.11q0-14.55,14.56-14.55h43.67q14.55,0,14.55,14.55v43.67q0,14.55-14.55,14.56H2590q-14.55,0-14.56-14.56Z"/><path class="cls-1" d="M2583.72,1639.48q0-11.24,11.23-11.24h33.71q11.22,0,11.23,11.24v33.7q0,11.23-11.23,11.23H2595q-11.23,0-11.23-11.23Z"/><path class="cls-1" d="M2592,1815.65q0-7.9,7.91-7.91h23.74q7.92,0,7.92,7.91v23.74q0,7.92-7.92,7.91h-23.74q-7.91,0-7.91-7.91Z"/><path class="cls-1" d="M2600.33,1948.49q0-4.59,4.59-4.59h13.77q4.59,0,4.59,4.59v13.78q0,4.59-4.59,4.59h-13.77q-4.59,0-4.59-4.59Z"/><path class="cls-1" d="M2600.32,41c0-3.06,1.54-4.59,4.6-4.59h13.77q4.59,0,4.59,4.59V54.81q0,4.59-4.59,4.59h-13.77c-3.06,0-4.6-1.53-4.6-4.59Z"/><path class="cls-1" d="M2597.74,90.81q0-5.62,5.62-5.62h16.88c3.76,0,5.63,1.87,5.63,5.62v16.88c0,3.75-1.87,5.63-5.63,5.63h-16.88q-5.62,0-5.62-5.63Z"/><path class="cls-1" d="M2592,147.79q0-7.92,7.91-7.92h23.74q7.92,0,7.92,7.92v23.73q0,7.92-7.92,7.92h-23.74q-7.91,0-7.91-7.92Z"/><path class="cls-1" d="M2590.26,220.23q0-8.61,8.62-8.61h25.85q8.61,0,8.61,8.61v25.85q0,8.63-8.61,8.62h-25.85q-8.61,0-8.62-8.62Z"/><path class="cls-1" d="M2583.72,296.87q0-11.24,11.23-11.24h33.71q11.24,0,11.23,11.24v33.7q0,11.24-11.23,11.23H2595q-11.23,0-11.23-11.23Z"/><path class="cls-1" d="M2582.79,385.94q0-11.61,11.61-11.61h34.81q11.61,0,11.61,11.61v34.81q0,11.61-11.61,11.61H2594.4q-11.61,0-11.61-11.61Z"/><path class="cls-1" d="M2575.41,479.2q0-14.55,14.56-14.55h43.67q14.55,0,14.55,14.55v43.67q0,14.55-14.55,14.56H2590q-14.55,0-14.56-14.56Z"/><path class="cls-1" d="M2575.32,590.94q0-14.6,14.59-14.59h43.79q14.6,0,14.59,14.59v43.79q0,14.6-14.59,14.59h-43.79q-14.6,0-14.59-14.59Z"/><path class="cls-1" d="M2567.11,704.88q0-17.88,17.88-17.88h53.63q17.88,0,17.88,17.88v53.63q0,17.88-17.88,17.88H2585q-17.88,0-17.88-17.88Z"/><path class="cls-1" d="M2567.84,829.21q0-17.58,17.59-17.59h52.75q17.58,0,17.58,17.59V882q0,17.6-17.58,17.59h-52.75q-17.59,0-17.59-17.59Z"/><path class="cls-1" d="M2563,957.23q0-19.54,19.54-19.54h58.61q19.54,0,19.54,19.54v58.61q0,19.54-19.54,19.54H2582.5q-19.55,0-19.54-19.54Z"/><path class="cls-1" d="M2567.84,1091.11q0-17.59,17.59-17.59h52.75q17.58,0,17.58,17.59v52.75q0,17.58-17.58,17.58h-52.75q-17.59,0-17.59-17.58Z"/><path class="cls-1" d="M2567.11,1213.55q0-17.88,17.88-17.88h53.63q17.88,0,17.88,17.88v53.63q0,17.88-17.88,17.88H2585q-17.88,0-17.88-17.88Z"/><path class="cls-1" d="M2464.46,1341.36q0-14.59,14.59-14.59h43.79q14.6,0,14.59,14.59v43.79q0,14.6-14.59,14.59h-43.79q-14.6,0-14.59-14.59Z"/><path class="cls-1" d="M2471.93,1541.23q0-11.61,11.61-11.61h34.81q11.61,0,11.61,11.61V1576q0,11.61-11.61,11.61h-34.81q-11.61,0-11.61-11.61Z"/><path class="cls-1" d="M2479.4,1741.09q0-8.61,8.62-8.61h25.85q8.61,0,8.62,8.61v25.85q0,8.63-8.62,8.62H2488q-8.61,0-8.62-8.62Z"/><path class="cls-1" d="M2486.88,1889.56c0-3.75,1.87-5.63,5.63-5.62h16.88c3.75,0,5.62,1.87,5.62,5.62v16.88c0,3.76-1.87,5.63-5.62,5.63h-16.88c-3.76,0-5.63-1.87-5.63-5.63Z"/><path class="cls-1" d="M2464.56,1439.11q0-14.55,14.55-14.55h43.67q14.55,0,14.56,14.55v43.67q0,14.55-14.56,14.56h-43.67q-14.55,0-14.55-14.56Z"/><path class="cls-1" d="M2472.86,1639.48q0-11.24,11.23-11.24h33.71q11.23,0,11.23,11.24v33.7q0,11.23-11.23,11.23h-33.71q-11.24,0-11.23-11.23Z"/><path class="cls-1" d="M2481.16,1815.65q0-7.9,7.92-7.91h23.74q7.91,0,7.91,7.91v23.74q0,7.92-7.91,7.91h-23.74q-7.92,0-7.92-7.91Z"/><path class="cls-1" d="M2489.47,1948.49q0-4.59,4.59-4.59h13.77q4.59,0,4.59,4.59v13.78q0,4.59-4.59,4.59h-13.77q-4.59,0-4.59-4.59Z"/><path class="cls-1" d="M2489.47,41q0-4.59,4.59-4.59h13.77q4.59,0,4.59,4.59V54.81q0,4.59-4.59,4.59h-13.77q-4.59,0-4.59-4.59Z"/><path class="cls-1" d="M2486.88,90.81c0-3.75,1.87-5.62,5.63-5.62h16.88q5.63,0,5.62,5.62v16.88q0,5.63-5.62,5.63h-16.88c-3.76,0-5.63-1.88-5.63-5.63Z"/><path class="cls-1" d="M2481.16,147.79q0-7.92,7.92-7.92h23.74q7.91,0,7.91,7.92v23.73q0,7.92-7.91,7.92h-23.74q-7.92,0-7.92-7.92Z"/><path class="cls-1" d="M2479.4,220.23q0-8.61,8.62-8.61h25.85q8.61,0,8.62,8.61v25.85q0,8.63-8.62,8.62H2488q-8.61,0-8.62-8.62Z"/><path class="cls-1" d="M2472.86,296.87q0-11.24,11.23-11.24h33.71q11.23,0,11.23,11.24v33.7q0,11.24-11.23,11.23h-33.71q-11.24,0-11.23-11.23Z"/><path class="cls-1" d="M2471.93,385.94q0-11.61,11.61-11.61h34.81q11.61,0,11.61,11.61v34.81q0,11.61-11.61,11.61h-34.81q-11.61,0-11.61-11.61Z"/><path class="cls-1" d="M2464.56,479.2q0-14.55,14.55-14.55h43.67q14.55,0,14.56,14.55v43.67q0,14.55-14.56,14.56h-43.67q-14.55,0-14.55-14.56Z"/><path class="cls-1" d="M2464.46,590.94q0-14.6,14.59-14.59h43.79q14.6,0,14.59,14.59v43.79q0,14.6-14.59,14.59h-43.79q-14.6,0-14.59-14.59Z"/><path class="cls-1" d="M2456.25,704.88q0-17.88,17.88-17.88h53.63q17.88,0,17.88,17.88v53.63q0,17.88-17.88,17.88h-53.63q-17.88,0-17.88-17.88Z"/><path class="cls-1" d="M2457,829.21q0-17.58,17.59-17.59h52.75q17.59,0,17.59,17.59V882q0,17.6-17.59,17.59h-52.75Q2457,899.55,2457,882Z"/><path class="cls-1" d="M2452.1,957.23q0-19.54,19.54-19.54h58.61q19.55,0,19.54,19.54v58.61q0,19.54-19.54,19.54h-58.61q-19.54,0-19.54-19.54Z"/><path class="cls-1" d="M2457,1091.11q0-17.59,17.59-17.59h52.75q17.59,0,17.59,17.59v52.75q0,17.58-17.59,17.58h-52.75q-17.58,0-17.59-17.58Z"/><path class="cls-1" d="M2456.25,1213.55q0-17.88,17.88-17.88h53.63q17.88,0,17.88,17.88v53.63q0,17.88-17.88,17.88h-53.63q-17.88,0-17.88-17.88Z"/><path class="cls-1" d="M2353.6,1341.36q0-14.59,14.59-14.59H2412q14.59,0,14.59,14.59v43.79q0,14.6-14.59,14.59h-43.79q-14.59,0-14.59-14.59Z"/><path class="cls-1" d="M2361.07,1541.23q0-11.61,11.61-11.61h34.82q11.6,0,11.6,11.61V1576q0,11.61-11.6,11.61h-34.82q-11.61,0-11.61-11.61Z"/><path class="cls-1" d="M2368.55,1741.09q0-8.61,8.61-8.61H2403q8.63,0,8.62,8.61v25.85q0,8.63-8.62,8.62h-25.85q-8.61,0-8.61-8.62Z"/><path class="cls-1" d="M2376,1889.56c0-3.75,1.88-5.63,5.63-5.62h16.88c3.75,0,5.63,1.87,5.62,5.62v16.88c0,3.76-1.87,5.63-5.62,5.63h-16.88c-3.75,0-5.63-1.87-5.63-5.63Z"/><path class="cls-1" d="M2353.7,1439.11q0-14.55,14.55-14.55h43.67q14.57,0,14.56,14.55v43.67q0,14.55-14.56,14.56h-43.67q-14.55,0-14.55-14.56Z"/><path class="cls-1" d="M2362,1639.48q0-11.24,11.24-11.24h33.7q11.23,0,11.23,11.24v33.7q0,11.23-11.23,11.23h-33.7q-11.23,0-11.24-11.23Z"/><path class="cls-1" d="M2370.31,1815.65q0-7.9,7.91-7.91H2402q7.9,0,7.91,7.91v23.74q0,7.92-7.91,7.91h-23.74q-7.92,0-7.91-7.91Z"/><path class="cls-1" d="M2378.61,1948.49q0-4.59,4.59-4.59H2397q4.59,0,4.59,4.59v13.78q0,4.59-4.59,4.59H2383.2q-4.59,0-4.59-4.59Z"/><path class="cls-1" d="M2378.61,41q0-4.59,4.59-4.59H2397q4.61,0,4.6,4.59V54.81q0,4.59-4.6,4.59H2383.2q-4.59,0-4.59-4.59Z"/><path class="cls-1" d="M2376,90.81q0-5.62,5.63-5.62h16.88q5.63,0,5.63,5.62v16.88q0,5.63-5.63,5.63h-16.88q-5.62,0-5.63-5.63Z"/><path class="cls-1" d="M2370.31,147.79q0-7.92,7.91-7.92H2402q7.9,0,7.91,7.92v23.73q0,7.92-7.91,7.92h-23.74q-7.92,0-7.91-7.92Z"/><path class="cls-1" d="M2368.55,220.23q0-8.61,8.61-8.61H2403q8.63,0,8.62,8.61v25.85q0,8.63-8.62,8.62h-25.85q-8.61,0-8.61-8.62Z"/><path class="cls-1" d="M2362,296.87q0-11.24,11.24-11.24h33.7q11.23,0,11.23,11.24v33.7q0,11.24-11.23,11.23h-33.7q-11.23,0-11.24-11.23Z"/><path class="cls-1" d="M2361.07,385.94q0-11.61,11.61-11.61h34.82q11.6,0,11.6,11.61v34.81q0,11.61-11.6,11.61h-34.82q-11.61,0-11.61-11.61Z"/><path class="cls-1" d="M2353.7,479.2q0-14.55,14.55-14.55h43.67q14.57,0,14.56,14.55v43.67q0,14.55-14.56,14.56h-43.67q-14.55,0-14.55-14.56Z"/><path class="cls-1" d="M2353.6,590.94q0-14.6,14.6-14.59H2412q14.59,0,14.59,14.59v43.79q0,14.6-14.6,14.59h-43.79q-14.58,0-14.59-14.59Z"/><path class="cls-1" d="M2345.39,704.88q0-17.88,17.88-17.88h53.63q17.88,0,17.88,17.88v53.63q0,17.88-17.88,17.88h-53.63q-17.88,0-17.88-17.88Z"/><path class="cls-1" d="M2346.13,829.21q0-17.58,17.58-17.59h52.75q17.6,0,17.59,17.59V882q0,17.6-17.59,17.59h-52.75q-17.58,0-17.58-17.59Z"/><path class="cls-1" d="M2341.24,957.23q0-19.54,19.54-19.54h58.61q19.55,0,19.54,19.54v58.61q0,19.54-19.54,19.54h-58.61q-19.55,0-19.54-19.54Z"/><path class="cls-1" d="M2346.13,1091.11q0-17.59,17.58-17.59h52.75q17.6,0,17.59,17.59v52.75q0,17.58-17.59,17.58h-52.75q-17.58,0-17.58-17.58Z"/><path class="cls-1" d="M2345.39,1213.55q0-17.88,17.88-17.88h53.63q17.88,0,17.88,17.88v53.63q0,17.88-17.88,17.88h-53.63q-17.88,0-17.88-17.88Z"/><path class="cls-1" d="M2242.74,1341.36q0-14.59,14.6-14.59h43.78q14.6,0,14.6,14.59v43.79q0,14.6-14.6,14.59h-43.78q-14.6,0-14.6-14.59Z"/><path class="cls-1" d="M2250.22,1541.23q0-11.61,11.6-11.61h34.82q11.59,0,11.6,11.61V1576q0,11.61-11.6,11.61h-34.82q-11.61,0-11.6-11.61Z"/><path class="cls-1" d="M2257.69,1741.09q0-8.61,8.62-8.61h25.84q8.63,0,8.62,8.61v25.85q0,8.63-8.62,8.62h-25.84q-8.62,0-8.62-8.62Z"/><path class="cls-1" d="M2265.16,1889.56c0-3.75,1.88-5.63,5.63-5.62h16.88c3.75,0,5.63,1.87,5.63,5.62v16.88c0,3.76-1.88,5.63-5.63,5.63h-16.88c-3.75,0-5.63-1.87-5.63-5.63Z"/><path class="cls-1" d="M2242.84,1439.11q0-14.55,14.56-14.55h43.66q14.57,0,14.56,14.55v43.67q0,14.55-14.56,14.56H2257.4q-14.57,0-14.56-14.56Z"/><path class="cls-1" d="M2251.14,1639.48q0-11.24,11.24-11.24h33.7q11.24,0,11.24,11.24v33.7q0,11.23-11.24,11.23h-33.7q-11.24,0-11.24-11.23Z"/><path class="cls-1" d="M2259.45,1815.65q0-7.9,7.91-7.91h23.74q7.92,0,7.91,7.91v23.74q0,7.92-7.91,7.91h-23.74q-7.92,0-7.91-7.91Z"/><path class="cls-1" d="M2267.75,1948.49q0-4.59,4.59-4.59h13.78q4.59,0,4.59,4.59v13.78q0,4.59-4.59,4.59h-13.78q-4.59,0-4.59-4.59Z"/><path class="cls-1" d="M2267.75,41q0-4.59,4.59-4.59h13.78q4.59,0,4.59,4.59V54.81q0,4.59-4.59,4.59h-13.78q-4.59,0-4.59-4.59Z"/><path class="cls-1" d="M2265.16,90.81q0-5.62,5.63-5.62h16.88q5.63,0,5.63,5.62v16.88q0,5.63-5.63,5.63h-16.88q-5.62,0-5.63-5.63Z"/><path class="cls-1" d="M2259.45,147.79q0-7.92,7.91-7.92h23.74q7.91,0,7.91,7.92v23.73q0,7.92-7.91,7.92h-23.74q-7.92,0-7.91-7.92Z"/><path class="cls-1" d="M2257.69,220.23q0-8.61,8.62-8.61h25.84q8.63,0,8.62,8.61v25.85q0,8.63-8.62,8.62h-25.84q-8.62,0-8.62-8.62Z"/><path class="cls-1" d="M2251.14,296.87q0-11.24,11.24-11.24h33.7q11.24,0,11.24,11.24v33.7q0,11.24-11.24,11.23h-33.7q-11.24,0-11.24-11.23Z"/><path class="cls-1" d="M2250.22,385.94q0-11.61,11.6-11.61h34.82q11.59,0,11.6,11.61v34.81q0,11.61-11.6,11.61h-34.82q-11.61,0-11.6-11.61Z"/><path class="cls-1" d="M2242.84,479.2q0-14.55,14.56-14.55h43.66q14.57,0,14.56,14.55v43.67q0,14.55-14.56,14.56H2257.4q-14.57,0-14.56-14.56Z"/><path class="cls-1" d="M2242.74,590.94q0-14.6,14.6-14.59h43.78q14.6,0,14.6,14.59v43.79q0,14.6-14.6,14.59h-43.78q-14.6,0-14.6-14.59Z"/><path class="cls-1" d="M2234.54,704.88q0-17.88,17.87-17.88h53.64q17.86,0,17.87,17.88v53.63q0,17.88-17.88,17.88h-53.63q-17.88,0-17.87-17.88Z"/><path class="cls-1" d="M2235.27,829.21q0-17.58,17.58-17.59h52.76q17.58,0,17.58,17.59V882q0,17.6-17.58,17.59h-52.76q-17.58,0-17.58-17.59Z"/><path class="cls-1" d="M2230.38,957.23q0-19.54,19.54-19.54h58.62q19.53,0,19.54,19.54v58.61q0,19.54-19.54,19.54h-58.62q-19.53,0-19.54-19.54Z"/><path class="cls-1" d="M2235.27,1091.11q0-17.59,17.58-17.59h52.76q17.58,0,17.58,17.59v52.75q0,17.58-17.58,17.58h-52.76q-17.58,0-17.58-17.58Z"/><path class="cls-1" d="M2234.54,1213.55q0-17.88,17.87-17.88H2306q17.88,0,17.88,17.88v53.63q0,17.88-17.88,17.88h-53.63q-17.88,0-17.87-17.88Z"/><path class="cls-1" d="M2131.88,1341.36q0-14.59,14.6-14.59h43.78q14.59,0,14.6,14.59v43.79q0,14.6-14.6,14.59h-43.78q-14.59,0-14.6-14.59Z"/><path class="cls-1" d="M2139.36,1541.23q0-11.61,11.6-11.61h34.82q11.61,0,11.61,11.61V1576q0,11.61-11.61,11.61H2151q-11.6,0-11.6-11.61Z"/><path class="cls-1" d="M2146.83,1741.09q0-8.61,8.62-8.61h25.85q8.61,0,8.61,8.61v25.85q0,8.63-8.61,8.62h-25.85q-8.62,0-8.62-8.62Z"/><path class="cls-1" d="M2154.3,1889.56c0-3.75,1.88-5.63,5.63-5.62h16.88c3.75,0,5.63,1.87,5.63,5.62v16.88c0,3.76-1.88,5.63-5.63,5.63h-16.88c-3.75,0-5.63-1.87-5.63-5.63Z"/><path class="cls-1" d="M2132,1439.11q0-14.55,14.56-14.55h43.66q14.57,0,14.56,14.55v43.67q0,14.55-14.56,14.56h-43.66q-14.57,0-14.56-14.56Z"/><path class="cls-1" d="M2140.29,1639.48q0-11.24,11.23-11.24h33.7q11.24,0,11.24,11.24v33.7q0,11.23-11.24,11.23h-33.7q-11.23,0-11.23-11.23Z"/><path class="cls-1" d="M2148.59,1815.65q0-7.9,7.91-7.91h23.74q7.92,0,7.91,7.91v23.74q0,7.92-7.91,7.91H2156.5q-7.9,0-7.91-7.91Z"/><path class="cls-1" d="M2156.89,1948.49q0-4.59,4.59-4.59h13.78q4.59,0,4.59,4.59v13.78q0,4.59-4.59,4.59h-13.78q-4.59,0-4.59-4.59Z"/><path class="cls-1" d="M2156.89,41q0-4.59,4.59-4.59h13.78q4.59,0,4.59,4.59V54.81q0,4.59-4.59,4.59h-13.78q-4.59,0-4.59-4.59Z"/><path class="cls-1" d="M2154.3,90.81q0-5.62,5.63-5.62h16.88q5.63,0,5.63,5.62v16.88q0,5.63-5.63,5.63h-16.88q-5.62,0-5.63-5.63Z"/><path class="cls-1" d="M2148.59,147.79q0-7.92,7.91-7.92h23.74q7.92,0,7.91,7.92v23.73q0,7.92-7.91,7.92H2156.5q-7.9,0-7.91-7.92Z"/><path class="cls-1" d="M2146.83,220.23q0-8.61,8.62-8.61h25.85q8.61,0,8.61,8.61v25.85q0,8.63-8.61,8.62h-25.85q-8.62,0-8.62-8.62Z"/><path class="cls-1" d="M2140.29,296.87q0-11.24,11.23-11.24h33.7q11.24,0,11.24,11.24v33.7q0,11.24-11.24,11.23h-33.7q-11.23,0-11.23-11.23Z"/><path class="cls-1" d="M2139.36,385.94q0-11.61,11.6-11.61h34.82q11.61,0,11.61,11.61v34.81q0,11.61-11.61,11.61H2151q-11.6,0-11.6-11.61Z"/><path class="cls-1" d="M2132,479.2q0-14.55,14.56-14.55h43.66q14.57,0,14.56,14.55v43.67q0,14.55-14.56,14.56h-43.66q-14.57,0-14.56-14.56Z"/><path class="cls-1" d="M2131.88,590.94q0-14.6,14.6-14.59h43.78q14.59,0,14.6,14.59v43.79q0,14.6-14.6,14.59h-43.78q-14.59,0-14.6-14.59Z"/><path class="cls-1" d="M2123.68,704.88q0-17.88,17.88-17.88h53.63q17.88,0,17.88,17.88v53.63q0,17.88-17.87,17.88h-53.63q-17.88,0-17.88-17.88Z"/><path class="cls-1" d="M2124.41,829.21q0-17.58,17.58-17.59h52.76q17.58,0,17.58,17.59V882q0,17.6-17.58,17.59H2142q-17.58,0-17.58-17.59Z"/><path class="cls-1" d="M2119.53,957.23q0-19.54,19.53-19.54h58.62q19.53,0,19.54,19.54v58.61q0,19.54-19.54,19.54h-58.62q-19.53,0-19.53-19.54Z"/><path class="cls-1" d="M2124.41,1091.11q0-17.59,17.58-17.59h52.76q17.58,0,17.58,17.59v52.75q0,17.58-17.58,17.58H2142q-17.58,0-17.58-17.58Z"/><path class="cls-1" d="M2123.68,1213.55q0-17.88,17.88-17.88h53.63q17.88,0,17.88,17.88v53.63q0,17.88-17.88,17.88h-53.63q-17.88,0-17.88-17.88Z"/><path class="cls-1" d="M2021,1341.36q0-14.59,14.59-14.59h43.79q14.6,0,14.59,14.59v43.79q0,14.6-14.59,14.59h-43.79q-14.59,0-14.59-14.59Z"/><path class="cls-1" d="M2028.5,1541.23q0-11.61,11.61-11.61h34.81q11.61,0,11.61,11.61V1576q0,11.61-11.61,11.61h-34.81q-11.61,0-11.61-11.61Z"/><path class="cls-1" d="M2036,1741.09q0-8.61,8.62-8.61h25.85q8.61,0,8.61,8.61v25.85q0,8.63-8.61,8.62h-25.85q-8.62,0-8.62-8.62Z"/><path class="cls-1" d="M2043.45,1889.56c0-3.75,1.87-5.63,5.62-5.62H2066c3.76,0,5.63,1.87,5.63,5.62v16.88c0,3.76-1.87,5.63-5.63,5.63h-16.88c-3.75,0-5.62-1.87-5.62-5.63Z"/><path class="cls-1" d="M2021.12,1439.11q0-14.55,14.56-14.55h43.67q14.55,0,14.55,14.55v43.67q0,14.55-14.55,14.56h-43.67q-14.55,0-14.56-14.56Z"/><path class="cls-1" d="M2029.43,1639.48q0-11.24,11.23-11.24h33.71q11.22,0,11.23,11.24v33.7q0,11.23-11.23,11.23h-33.71q-11.23,0-11.23-11.23Z"/><path class="cls-1" d="M2037.73,1815.65q0-7.9,7.91-7.91h23.74q7.92,0,7.92,7.91v23.74q0,7.92-7.92,7.91h-23.74q-7.91,0-7.91-7.91Z"/><path class="cls-1" d="M2046,1948.49c0-3.06,1.54-4.59,4.6-4.59h13.77q4.59,0,4.59,4.59v13.78q0,4.59-4.59,4.59h-13.77c-3.06,0-4.6-1.53-4.6-4.59Z"/><path class="cls-1" d="M2046,41c0-3.06,1.54-4.59,4.6-4.59h13.77q4.59,0,4.59,4.59V54.81q0,4.59-4.59,4.59h-13.77c-3.06,0-4.6-1.53-4.6-4.59Z"/><path class="cls-1" d="M2043.45,90.81q0-5.62,5.62-5.62H2066c3.76,0,5.63,1.87,5.63,5.62v16.88c0,3.75-1.87,5.63-5.63,5.63h-16.88q-5.63,0-5.62-5.63Z"/><path class="cls-1" d="M2037.73,147.79q0-7.92,7.91-7.92h23.74q7.92,0,7.92,7.92v23.73q0,7.92-7.92,7.92h-23.74q-7.91,0-7.91-7.92Z"/><path class="cls-1" d="M2036,220.23q0-8.61,8.62-8.61h25.85q8.61,0,8.61,8.61v25.85q0,8.63-8.61,8.62h-25.85q-8.62,0-8.62-8.62Z"/><path class="cls-1" d="M2029.43,296.87q0-11.24,11.23-11.24h33.71q11.24,0,11.23,11.24v33.7q0,11.24-11.23,11.23h-33.71q-11.23,0-11.23-11.23Z"/><path class="cls-1" d="M2028.5,385.94q0-11.61,11.6-11.61h34.82q11.61,0,11.61,11.61v34.81q0,11.61-11.61,11.61H2040.1q-11.6,0-11.6-11.61Z"/><path class="cls-1" d="M2021.12,479.2q0-14.55,14.56-14.55h43.67q14.55,0,14.55,14.55v43.67q0,14.55-14.55,14.56h-43.67q-14.55,0-14.56-14.56Z"/><path class="cls-1" d="M2021,590.94q0-14.6,14.59-14.59h43.79q14.6,0,14.59,14.59v43.79q0,14.6-14.59,14.59h-43.79q-14.59,0-14.59-14.59Z"/><path class="cls-1" d="M2012.82,704.88q0-17.88,17.88-17.88h53.63q17.88,0,17.88,17.88v53.63q0,17.88-17.88,17.88H2030.7q-17.88,0-17.88-17.88Z"/><path class="cls-1" d="M2013.55,829.21q0-17.58,17.59-17.59h52.75q17.58,0,17.58,17.59V882q0,17.6-17.58,17.59h-52.75q-17.6,0-17.59-17.59Z"/><path class="cls-1" d="M2008.67,957.23q0-19.54,19.54-19.54h58.61q19.54,0,19.54,19.54v58.61q0,19.54-19.54,19.54h-58.61q-19.55,0-19.54-19.54Z"/><path class="cls-1" d="M2013.55,1091.11q0-17.59,17.59-17.59h52.75q17.58,0,17.58,17.59v52.75q0,17.58-17.58,17.58h-52.75q-17.6,0-17.59-17.58Z"/><path class="cls-1" d="M2012.82,1213.55q0-17.88,17.88-17.88h53.63q17.88,0,17.88,17.88v53.63q0,17.88-17.88,17.88H2030.7q-17.88,0-17.88-17.88Z"/><path class="cls-1" d="M1910.17,1341.36q0-14.59,14.59-14.59h43.79q14.6,0,14.59,14.59v43.79q0,14.6-14.59,14.59h-43.79q-14.6,0-14.59-14.59Z"/><path class="cls-1" d="M1917.64,1541.23q0-11.61,11.61-11.61h34.81q11.61,0,11.61,11.61V1576q0,11.61-11.61,11.61h-34.81q-11.61,0-11.61-11.61Z"/><path class="cls-1" d="M1925.11,1741.09q0-8.61,8.62-8.61h25.85q8.61,0,8.62,8.61v25.85q0,8.63-8.62,8.62h-25.85q-8.61,0-8.62-8.62Z"/><path class="cls-1" d="M1932.59,1889.56c0-3.75,1.87-5.63,5.63-5.62h16.88c3.75,0,5.62,1.87,5.62,5.62v16.88c0,3.76-1.87,5.63-5.62,5.63h-16.88c-3.76,0-5.63-1.87-5.63-5.63Z"/><path class="cls-1" d="M1910.27,1439.11q0-14.55,14.55-14.55h43.67q14.55,0,14.56,14.55v43.67q0,14.55-14.56,14.56h-43.67q-14.55,0-14.55-14.56Z"/><path class="cls-1" d="M1918.57,1639.48q0-11.24,11.23-11.24h33.71q11.23,0,11.23,11.24v33.7q0,11.23-11.23,11.23H1929.8q-11.23,0-11.23-11.23Z"/><path class="cls-1" d="M1926.87,1815.65q0-7.9,7.92-7.91h23.74q7.9,0,7.91,7.91v23.74q0,7.92-7.91,7.91h-23.74q-7.92,0-7.92-7.91Z"/><path class="cls-1" d="M1935.18,1948.49q0-4.59,4.59-4.59h13.77q4.59,0,4.59,4.59v13.78q0,4.59-4.59,4.59h-13.77q-4.59,0-4.59-4.59Z"/><path class="cls-1" d="M1935.18,41q0-4.59,4.59-4.59h13.77q4.59,0,4.59,4.59V54.81q0,4.59-4.59,4.59h-13.77q-4.59,0-4.59-4.59Z"/><path class="cls-1" d="M1932.59,90.81q0-5.62,5.62-5.62h16.89q5.63,0,5.62,5.62v16.88q0,5.63-5.62,5.63h-16.89q-5.62,0-5.62-5.63Z"/><path class="cls-1" d="M1926.87,147.79q0-7.92,7.92-7.92h23.74q7.9,0,7.91,7.92v23.73q0,7.92-7.91,7.92h-23.74q-7.92,0-7.92-7.92Z"/><path class="cls-1" d="M1925.11,220.23q0-8.61,8.62-8.61h25.85q8.61,0,8.62,8.61v25.85q0,8.63-8.62,8.62h-25.85q-8.61,0-8.62-8.62Z"/><path class="cls-1" d="M1918.57,296.87q0-11.24,11.23-11.24h33.71q11.23,0,11.23,11.24v33.7q0,11.24-11.23,11.23H1929.8q-11.23,0-11.23-11.23Z"/><path class="cls-1" d="M1917.64,385.94q0-11.61,11.61-11.61h34.81q11.61,0,11.61,11.61v34.81q0,11.61-11.61,11.61h-34.81q-11.61,0-11.61-11.61Z"/><path class="cls-1" d="M1910.27,479.2q0-14.55,14.55-14.55h43.67q14.55,0,14.56,14.55v43.67q0,14.55-14.56,14.56h-43.67q-14.55,0-14.55-14.56Z"/><path class="cls-1" d="M1910.17,590.94q0-14.6,14.59-14.59h43.79q14.6,0,14.59,14.59v43.79q0,14.6-14.59,14.59h-43.79q-14.6,0-14.59-14.59Z"/><path class="cls-1" d="M1902,704.88q0-17.88,17.88-17.88h53.63q17.88,0,17.88,17.88v53.63q0,17.88-17.88,17.88h-53.63q-17.88,0-17.88-17.88Z"/><path class="cls-1" d="M1902.69,829.21q0-17.58,17.59-17.59H1973q17.58,0,17.59,17.59V882q0,17.6-17.59,17.59h-52.75q-17.58,0-17.59-17.59Z"/><path class="cls-1" d="M1897.81,957.23q0-19.54,19.54-19.54H1976q19.55,0,19.54,19.54v58.61q0,19.54-19.54,19.54h-58.61q-19.55,0-19.54-19.54Z"/><path class="cls-1" d="M1902.69,1091.11q0-17.59,17.59-17.59H1973q17.58,0,17.59,17.59v52.75q0,17.58-17.59,17.58h-52.75q-17.58,0-17.59-17.58Z"/><path class="cls-1" d="M1902,1213.55q0-17.88,17.88-17.88h53.63q17.88,0,17.88,17.88v53.63q0,17.88-17.88,17.88h-53.63q-17.88,0-17.88-17.88Z"/><path class="cls-1" d="M1799.31,1341.36q0-14.59,14.59-14.59h43.79q14.6,0,14.59,14.59v43.79q0,14.6-14.59,14.59H1813.9q-14.6,0-14.59-14.59Z"/><path class="cls-1" d="M1806.78,1541.23q0-11.61,11.61-11.61h34.82q11.6,0,11.6,11.61V1576q0,11.61-11.6,11.61h-34.82q-11.61,0-11.61-11.61Z"/><path class="cls-1" d="M1814.26,1741.09q0-8.61,8.61-8.61h25.85q8.63,0,8.62,8.61v25.85q0,8.63-8.62,8.62h-25.85q-8.61,0-8.61-8.62Z"/><path class="cls-1" d="M1821.73,1889.56c0-3.75,1.88-5.63,5.63-5.62h16.88c3.75,0,5.63,1.87,5.62,5.62v16.88c0,3.76-1.87,5.63-5.62,5.63h-16.88c-3.75,0-5.63-1.87-5.63-5.63Z"/><path class="cls-1" d="M1799.41,1439.11q0-14.55,14.55-14.55h43.67q14.56,0,14.56,14.55v43.67q0,14.55-14.56,14.56H1814q-14.55,0-14.55-14.56Z"/><path class="cls-1" d="M1807.71,1639.48q0-11.24,11.24-11.24h33.7q11.24,0,11.23,11.24v33.7q0,11.23-11.23,11.23H1819q-11.23,0-11.24-11.23Z"/><path class="cls-1" d="M1816,1815.65q0-7.9,7.92-7.91h23.74q7.9,0,7.91,7.91v23.74q0,7.92-7.91,7.91h-23.74q-7.92,0-7.92-7.91Z"/><path class="cls-1" d="M1824.32,1948.49q0-4.59,4.59-4.59h13.78q4.59,0,4.59,4.59v13.78q0,4.59-4.59,4.59h-13.78q-4.59,0-4.59-4.59Z"/><path class="cls-1" d="M1824.32,41q0-4.59,4.59-4.59h13.77q4.6,0,4.6,4.59V54.81q0,4.59-4.6,4.59h-13.77q-4.59,0-4.59-4.59Z"/><path class="cls-1" d="M1821.73,90.81q0-5.62,5.63-5.62h16.88q5.63,0,5.62,5.62v16.88q0,5.63-5.62,5.63h-16.88q-5.62,0-5.63-5.63Z"/><path class="cls-1" d="M1816,147.79q0-7.92,7.92-7.92h23.74q7.9,0,7.91,7.92v23.73q0,7.92-7.91,7.92h-23.74q-7.92,0-7.92-7.92Z"/><path class="cls-1" d="M1814.26,220.23q0-8.61,8.61-8.61h25.85q8.63,0,8.62,8.61v25.85q0,8.63-8.62,8.62h-25.85q-8.61,0-8.61-8.62Z"/><path class="cls-1" d="M1807.71,296.87q0-11.24,11.24-11.24h33.7q11.24,0,11.23,11.24v33.7q0,11.24-11.23,11.23H1819q-11.23,0-11.24-11.23Z"/><path class="cls-1" d="M1806.78,385.94q0-11.61,11.61-11.61h34.82q11.6,0,11.6,11.61v34.81q0,11.61-11.6,11.61h-34.82q-11.61,0-11.61-11.61Z"/><path class="cls-1" d="M1799.41,479.2q0-14.55,14.55-14.55h43.67q14.56,0,14.56,14.55v43.67q0,14.55-14.56,14.56H1814q-14.55,0-14.55-14.56Z"/><path class="cls-1" d="M1799.31,590.94q0-14.6,14.6-14.59h43.78q14.6,0,14.59,14.59v43.79q0,14.6-14.6,14.59H1813.9q-14.58,0-14.59-14.59Z"/><path class="cls-1" d="M1791.1,704.88Q1791.1,687,1809,687h53.63q17.88,0,17.88,17.88v53.63q0,17.88-17.88,17.88H1809q-17.88,0-17.88-17.88Z"/><path class="cls-1" d="M1791.84,829.21q0-17.58,17.58-17.59h52.75q17.6,0,17.59,17.59V882q0,17.6-17.59,17.59h-52.75q-17.58,0-17.58-17.59Z"/><path class="cls-1" d="M1787,957.23q0-19.54,19.54-19.54h58.61q19.55,0,19.54,19.54v58.61q0,19.54-19.54,19.54h-58.61q-19.54,0-19.54-19.54Z"/><path class="cls-1" d="M1791.84,1091.11q0-17.59,17.58-17.59h52.75q17.6,0,17.59,17.59v52.75q0,17.58-17.59,17.58h-52.75q-17.58,0-17.58-17.58Z"/><path class="cls-1" d="M1791.1,1213.55q0-17.88,17.88-17.88h53.63q17.88,0,17.88,17.88v53.63q0,17.88-17.88,17.88H1809q-17.88,0-17.88-17.88Z"/><path class="cls-1" d="M1688.45,1341.36q0-14.59,14.6-14.59h43.78q14.6,0,14.6,14.59v43.79q0,14.6-14.6,14.59h-43.78q-14.6,0-14.6-14.59Z"/><path class="cls-1" d="M1695.92,1541.23q0-11.61,11.61-11.61h34.82q11.6,0,11.6,11.61V1576q0,11.61-11.6,11.61h-34.82q-11.61,0-11.61-11.61Z"/><path class="cls-1" d="M1703.4,1741.09q0-8.61,8.62-8.61h25.84q8.63,0,8.62,8.61v25.85q0,8.63-8.62,8.62H1712q-8.62,0-8.62-8.62Z"/><path class="cls-1" d="M1710.87,1889.56c0-3.75,1.88-5.63,5.63-5.62h16.88c3.75,0,5.63,1.87,5.63,5.62v16.88c0,3.76-1.88,5.63-5.63,5.63H1716.5c-3.75,0-5.63-1.87-5.63-5.63Z"/><path class="cls-1" d="M1688.55,1439.11q0-14.55,14.56-14.55h43.66q14.57,0,14.56,14.55v43.67q0,14.55-14.56,14.56h-43.66q-14.56,0-14.56-14.56Z"/><path class="cls-1" d="M1696.85,1639.48q0-11.24,11.24-11.24h33.7q11.24,0,11.24,11.24v33.7q0,11.23-11.24,11.23h-33.7q-11.23,0-11.24-11.23Z"/><path class="cls-1" d="M1705.16,1815.65q0-7.9,7.91-7.91h23.74q7.9,0,7.91,7.91v23.74q0,7.92-7.91,7.91h-23.74q-7.92,0-7.91-7.91Z"/><path class="cls-1" d="M1713.46,1948.49q0-4.59,4.59-4.59h13.78q4.59,0,4.59,4.59v13.78q0,4.59-4.59,4.59h-13.78q-4.59,0-4.59-4.59Z"/><path class="cls-1" d="M1713.46,41q0-4.59,4.59-4.59h13.78q4.59,0,4.59,4.59V54.81q0,4.59-4.59,4.59h-13.78q-4.59,0-4.59-4.59Z"/><path class="cls-1" d="M1710.87,90.81q0-5.62,5.63-5.62h16.88q5.63,0,5.63,5.62v16.88q0,5.63-5.63,5.63H1716.5q-5.62,0-5.63-5.63Z"/><path class="cls-1" d="M1705.16,147.79q0-7.92,7.91-7.92h23.74q7.9,0,7.91,7.92v23.73q0,7.92-7.91,7.92h-23.74q-7.92,0-7.91-7.92Z"/><path class="cls-1" d="M1703.4,220.23q0-8.61,8.61-8.61h25.85q8.63,0,8.62,8.61v25.85q0,8.63-8.62,8.62H1712q-8.61,0-8.61-8.62Z"/><path class="cls-1" d="M1696.85,296.87q0-11.24,11.24-11.24h33.7q11.24,0,11.24,11.24v33.7q0,11.24-11.24,11.23h-33.7q-11.23,0-11.24-11.23Z"/><path class="cls-1" d="M1695.93,385.94q0-11.61,11.6-11.61h34.82q11.6,0,11.6,11.61v34.81q0,11.61-11.6,11.61h-34.82q-11.61,0-11.6-11.61Z"/><path class="cls-1" d="M1688.55,479.2q0-14.55,14.56-14.55h43.66q14.57,0,14.56,14.55v43.67q0,14.55-14.56,14.56h-43.66q-14.56,0-14.56-14.56Z"/><path class="cls-1" d="M1688.45,590.94q0-14.6,14.6-14.59h43.78q14.6,0,14.6,14.59v43.79q0,14.6-14.6,14.59h-43.78q-14.6,0-14.6-14.59Z"/><path class="cls-1" d="M1680.25,704.88q0-17.88,17.87-17.88h53.64q17.87,0,17.87,17.88v53.63q0,17.88-17.88,17.88h-53.63q-17.88,0-17.87-17.88Z"/><path class="cls-1" d="M1681,829.21q0-17.58,17.58-17.59h52.76q17.58,0,17.58,17.59V882q0,17.6-17.58,17.59h-52.76Q1681,899.55,1681,882Z"/><path class="cls-1" d="M1676.09,957.23q0-19.54,19.54-19.54h58.62q19.53,0,19.53,19.54v58.61q0,19.54-19.53,19.54h-58.62q-19.53,0-19.54-19.54Z"/><path class="cls-1" d="M1681,1091.11q0-17.59,17.58-17.59h52.76q17.58,0,17.58,17.59v52.75q0,17.58-17.58,17.58h-52.76q-17.58,0-17.58-17.58Z"/><path class="cls-1" d="M1680.25,1213.55q0-17.88,17.87-17.88h53.63q17.88,0,17.88,17.88v53.63q0,17.88-17.88,17.88h-53.63q-17.88,0-17.87-17.88Z"/><path class="cls-1" d="M1577.59,1341.36q0-14.59,14.6-14.59H1636q14.6,0,14.6,14.59v43.79q0,14.6-14.6,14.59h-43.78q-14.6,0-14.6-14.59Z"/><path class="cls-1" d="M1585.07,1541.23q0-11.61,11.6-11.61h34.82q11.61,0,11.61,11.61V1576q0,11.61-11.61,11.61h-34.82q-11.6,0-11.6-11.61Z"/><path class="cls-1" d="M1592.54,1741.09q0-8.61,8.62-8.61H1627q8.61,0,8.61,8.61v25.85q0,8.63-8.61,8.62h-25.85q-8.62,0-8.62-8.62Z"/><path class="cls-1" d="M1600,1889.56c0-3.75,1.88-5.63,5.63-5.62h16.88c3.75,0,5.63,1.87,5.63,5.62v16.88c0,3.76-1.88,5.63-5.63,5.63h-16.88c-3.75,0-5.63-1.87-5.63-5.63Z"/><path class="cls-1" d="M1577.69,1439.11q0-14.55,14.56-14.55h43.66q14.56,0,14.56,14.55v43.67q0,14.55-14.56,14.56h-43.66q-14.57,0-14.56-14.56Z"/><path class="cls-1" d="M1586,1639.48q0-11.24,11.23-11.24h33.7q11.23,0,11.24,11.24v33.7q0,11.23-11.24,11.23h-33.7q-11.24,0-11.23-11.23Z"/><path class="cls-1" d="M1594.3,1815.65q0-7.9,7.91-7.91H1626q7.92,0,7.91,7.91v23.74q0,7.92-7.91,7.91h-23.74q-7.9,0-7.91-7.91Z"/><path class="cls-1" d="M1602.6,1948.49q0-4.59,4.59-4.59H1621q4.59,0,4.59,4.59v13.78q0,4.59-4.59,4.59h-13.78q-4.59,0-4.59-4.59Z"/><path class="cls-1" d="M1602.6,41q0-4.59,4.59-4.59H1621q4.59,0,4.59,4.59V54.81q0,4.59-4.59,4.59h-13.78q-4.59,0-4.59-4.59Z"/><path class="cls-1" d="M1600,90.81q0-5.62,5.63-5.62h16.88q5.63,0,5.63,5.62v16.88q0,5.63-5.63,5.63h-16.88q-5.62,0-5.63-5.63Z"/><path class="cls-1" d="M1594.3,147.79q0-7.92,7.91-7.92H1626q7.92,0,7.91,7.92v23.73q0,7.92-7.91,7.92h-23.74q-7.9,0-7.91-7.92Z"/><path class="cls-1" d="M1592.54,220.23q0-8.61,8.62-8.61H1627q8.61,0,8.61,8.61v25.85q0,8.63-8.61,8.62h-25.85q-8.62,0-8.62-8.62Z"/><path class="cls-1" d="M1586,296.87q0-11.24,11.23-11.24h33.7q11.23,0,11.24,11.24v33.7q0,11.24-11.24,11.23h-33.7q-11.24,0-11.23-11.23Z"/><path class="cls-1" d="M1585.07,385.94q0-11.61,11.6-11.61h34.82q11.61,0,11.61,11.61v34.81q0,11.61-11.61,11.61h-34.82q-11.6,0-11.6-11.61Z"/><path class="cls-1" d="M1577.69,479.2q0-14.55,14.56-14.55h43.66q14.56,0,14.56,14.55v43.67q0,14.55-14.56,14.56h-43.66q-14.57,0-14.56-14.56Z"/><path class="cls-1" d="M1577.59,590.94q0-14.6,14.6-14.59H1636q14.6,0,14.6,14.59v43.79q0,14.6-14.6,14.59h-43.78q-14.6,0-14.6-14.59Z"/><path class="cls-1" d="M1569.39,704.88q0-17.88,17.88-17.88h53.63q17.88,0,17.88,17.88v53.63q0,17.88-17.87,17.88h-53.63q-17.88,0-17.88-17.88Z"/><path class="cls-1" d="M1570.12,829.21q0-17.58,17.58-17.59h52.76q17.58,0,17.58,17.59V882q0,17.6-17.58,17.59H1587.7q-17.58,0-17.58-17.59Z"/><path class="cls-1" d="M1565.24,957.23q0-19.54,19.53-19.54h58.62q19.53,0,19.54,19.54v58.61q0,19.54-19.54,19.54h-58.62q-19.53,0-19.53-19.54Z"/><path class="cls-1" d="M1570.12,1091.11q0-17.59,17.58-17.59h52.76q17.58,0,17.58,17.59v52.75q0,17.58-17.58,17.58H1587.7q-17.58,0-17.58-17.58Z"/><path class="cls-1" d="M1569.39,1213.55q0-17.88,17.88-17.88h53.63q17.88,0,17.87,17.88v53.63q0,17.88-17.87,17.88h-53.63q-17.88,0-17.88-17.88Z"/><path class="cls-1" d="M1466.74,1341.36q0-14.59,14.59-14.59h43.79q14.6,0,14.59,14.59v43.79q0,14.6-14.59,14.59h-43.79q-14.6,0-14.59-14.59Z"/><path class="cls-1" d="M1474.21,1541.23q0-11.61,11.61-11.61h34.81q11.61,0,11.61,11.61V1576q0,11.61-11.61,11.61h-34.81q-11.61,0-11.61-11.61Z"/><path class="cls-1" d="M1481.68,1741.09q0-8.61,8.62-8.61h25.85q8.61,0,8.61,8.61v25.85q0,8.63-8.61,8.62H1490.3q-8.62,0-8.62-8.62Z"/><path class="cls-1" d="M1489.16,1889.56c0-3.75,1.87-5.63,5.62-5.62h16.88c3.76,0,5.63,1.87,5.63,5.62v16.88c0,3.76-1.87,5.63-5.63,5.63h-16.88c-3.75,0-5.62-1.87-5.62-5.63Z"/><path class="cls-1" d="M1466.83,1439.11q0-14.55,14.56-14.55h43.67q14.55,0,14.55,14.55v43.67q0,14.55-14.55,14.56h-43.67q-14.55,0-14.56-14.56Z"/><path class="cls-1" d="M1475.14,1639.48q0-11.24,11.23-11.24h33.71q11.22,0,11.23,11.24v33.7q0,11.23-11.23,11.23h-33.71q-11.23,0-11.23-11.23Z"/><path class="cls-1" d="M1483.44,1815.65q0-7.9,7.91-7.91h23.74q7.92,0,7.92,7.91v23.74q0,7.92-7.92,7.91h-23.74q-7.9,0-7.91-7.91Z"/><path class="cls-1" d="M1491.74,1948.49q0-4.59,4.6-4.59h13.77q4.59,0,4.59,4.59v13.78q0,4.59-4.59,4.59h-13.77q-4.6,0-4.6-4.59Z"/><path class="cls-1" d="M1491.74,41q0-4.59,4.6-4.59h13.77q4.59,0,4.59,4.59V54.81q0,4.59-4.59,4.59h-13.77q-4.6,0-4.6-4.59Z"/><path class="cls-1" d="M1489.16,90.81q0-5.62,5.62-5.62h16.88c3.76,0,5.63,1.87,5.63,5.62v16.88c0,3.75-1.87,5.63-5.63,5.63h-16.88q-5.62,0-5.62-5.63Z"/><path class="cls-1" d="M1483.44,147.79q0-7.92,7.91-7.92h23.74q7.92,0,7.92,7.92v23.73q0,7.92-7.92,7.92h-23.74q-7.9,0-7.91-7.92Z"/><path class="cls-1" d="M1481.68,220.23q0-8.61,8.62-8.61h25.85q8.61,0,8.61,8.61v25.85q0,8.63-8.61,8.62H1490.3q-8.62,0-8.62-8.62Z"/><path class="cls-1" d="M1475.14,296.87q0-11.24,11.23-11.24h33.71q11.22,0,11.23,11.24v33.7q0,11.24-11.23,11.23h-33.71q-11.23,0-11.23-11.23Z"/><path class="cls-1" d="M1474.21,385.94q0-11.61,11.6-11.61h34.82q11.61,0,11.61,11.61v34.81q0,11.61-11.61,11.61h-34.82q-11.6,0-11.6-11.61Z"/><path class="cls-1" d="M1466.83,479.2q0-14.55,14.56-14.55h43.67q14.55,0,14.55,14.55v43.67q0,14.55-14.55,14.56h-43.67q-14.55,0-14.56-14.56Z"/><path class="cls-1" d="M1466.74,590.94q0-14.6,14.59-14.59h43.79q14.6,0,14.59,14.59v43.79q0,14.6-14.59,14.59h-43.79q-14.6,0-14.59-14.59Z"/><path class="cls-1" d="M1458.53,704.88q0-17.88,17.88-17.88H1530q17.88,0,17.88,17.88v53.63q0,17.88-17.88,17.88h-53.63q-17.88,0-17.88-17.88Z"/><path class="cls-1" d="M1459.26,829.21q0-17.58,17.59-17.59h52.75q17.58,0,17.58,17.59V882q0,17.6-17.58,17.59h-52.75q-17.6,0-17.59-17.59Z"/><path class="cls-1" d="M1454.38,957.23q0-19.54,19.54-19.54h58.61q19.54,0,19.54,19.54v58.61q0,19.54-19.54,19.54h-58.61q-19.55,0-19.54-19.54Z"/><path class="cls-1" d="M1459.26,1091.11q0-17.59,17.59-17.59h52.75q17.58,0,17.58,17.59v52.75q0,17.58-17.58,17.58h-52.75q-17.6,0-17.59-17.58Z"/><path class="cls-1" d="M1458.53,1213.55q0-17.88,17.88-17.88H1530q17.88,0,17.88,17.88v53.63q0,17.88-17.88,17.88h-53.63q-17.88,0-17.88-17.88Z"/><path class="cls-1" d="M1355.88,1341.36q0-14.59,14.59-14.59h43.79q14.6,0,14.59,14.59v43.79q0,14.6-14.59,14.59h-43.79q-14.6,0-14.59-14.59Z"/><path class="cls-1" d="M1363.35,1541.23q0-11.61,11.61-11.61h34.81q11.61,0,11.61,11.61V1576q0,11.61-11.61,11.61H1375q-11.61,0-11.61-11.61Z"/><path class="cls-1" d="M1370.82,1741.09q0-8.61,8.62-8.61h25.85q8.61,0,8.62,8.61v25.85q0,8.63-8.62,8.62h-25.85q-8.61,0-8.62-8.62Z"/><path class="cls-1" d="M1378.3,1889.56c0-3.75,1.87-5.63,5.63-5.62h16.88c3.75,0,5.62,1.87,5.62,5.62v16.88c0,3.76-1.87,5.63-5.62,5.63h-16.88c-3.76,0-5.63-1.87-5.63-5.63Z"/><path class="cls-1" d="M1356,1439.11q0-14.55,14.55-14.55h43.67q14.55,0,14.56,14.55v43.67q0,14.55-14.56,14.56h-43.67q-14.55,0-14.55-14.56Z"/><path class="cls-1" d="M1364.28,1639.48q0-11.24,11.23-11.24h33.71q11.23,0,11.23,11.24v33.7q0,11.23-11.23,11.23h-33.71q-11.23,0-11.23-11.23Z"/><path class="cls-1" d="M1372.58,1815.65q0-7.9,7.92-7.91h23.74q7.9,0,7.91,7.91v23.74q0,7.92-7.91,7.91H1380.5q-7.92,0-7.92-7.91Z"/><path class="cls-1" d="M1380.89,1948.49q0-4.59,4.59-4.59h13.77q4.59,0,4.59,4.59v13.78q0,4.59-4.59,4.59h-13.77q-4.59,0-4.59-4.59Z"/><path class="cls-1" d="M1380.89,41q0-4.59,4.59-4.59h13.77q4.59,0,4.59,4.59V54.81q0,4.59-4.59,4.59h-13.77q-4.59,0-4.59-4.59Z"/><path class="cls-1" d="M1378.3,90.81q0-5.62,5.62-5.62h16.89q5.63,0,5.62,5.62v16.88q0,5.63-5.62,5.63h-16.89q-5.62,0-5.62-5.63Z"/><path class="cls-1" d="M1372.58,147.79q0-7.92,7.92-7.92h23.74q7.9,0,7.91,7.92v23.73q0,7.92-7.91,7.92H1380.5q-7.92,0-7.92-7.92Z"/><path class="cls-1" d="M1370.82,220.23q0-8.61,8.62-8.61h25.85q8.61,0,8.62,8.61v25.85q0,8.63-8.62,8.62h-25.85q-8.61,0-8.62-8.62Z"/><path class="cls-1" d="M1364.28,296.87q0-11.24,11.23-11.24h33.71q11.23,0,11.23,11.24v33.7q0,11.24-11.23,11.23h-33.71q-11.23,0-11.23-11.23Z"/><path class="cls-1" d="M1363.35,385.94q0-11.61,11.61-11.61h34.81q11.61,0,11.61,11.61v34.81q0,11.61-11.61,11.61H1375q-11.61,0-11.61-11.61Z"/><path class="cls-1" d="M1356,479.2q0-14.55,14.55-14.55h43.67q14.55,0,14.56,14.55v43.67q0,14.55-14.56,14.56h-43.67q-14.55,0-14.55-14.56Z"/><path class="cls-1" d="M1355.88,590.94q0-14.6,14.59-14.59h43.79q14.6,0,14.59,14.59v43.79q0,14.6-14.59,14.59h-43.79q-14.6,0-14.59-14.59Z"/><path class="cls-1" d="M1347.67,704.88q0-17.88,17.88-17.88h53.63q17.88,0,17.88,17.88v53.63q0,17.88-17.88,17.88h-53.63q-17.88,0-17.88-17.88Z"/><path class="cls-1" d="M1348.4,829.21q0-17.58,17.59-17.59h52.75q17.58,0,17.59,17.59V882q0,17.6-17.59,17.59H1366q-17.58,0-17.59-17.59Z"/><path class="cls-1" d="M1343.52,957.23q0-19.54,19.54-19.54h58.61q19.55,0,19.54,19.54v58.61q0,19.54-19.54,19.54h-58.61q-19.55,0-19.54-19.54Z"/><path class="cls-1" d="M1348.4,1091.11q0-17.59,17.59-17.59h52.75q17.58,0,17.59,17.59v52.75q0,17.58-17.59,17.58H1366q-17.58,0-17.59-17.58Z"/><path class="cls-1" d="M1347.67,1213.55q0-17.88,17.88-17.88h53.63q17.88,0,17.88,17.88v53.63q0,17.88-17.88,17.88h-53.63q-17.88,0-17.88-17.88Z"/><path class="cls-1" d="M1245,1341.36q0-14.59,14.59-14.59h43.79q14.6,0,14.59,14.59v43.79q0,14.6-14.59,14.59h-43.79q-14.59,0-14.59-14.59Z"/><path class="cls-1" d="M1252.49,1541.23q0-11.61,11.61-11.61h34.82q11.6,0,11.6,11.61V1576q0,11.61-11.6,11.61H1264.1q-11.61,0-11.61-11.61Z"/><path class="cls-1" d="M1260,1741.09q0-8.61,8.61-8.61h25.85q8.63,0,8.62,8.61v25.85q0,8.63-8.62,8.62h-25.85q-8.61,0-8.61-8.62Z"/><path class="cls-1" d="M1267.44,1889.56c0-3.75,1.87-5.63,5.63-5.62H1290c3.75,0,5.63,1.87,5.62,5.62v16.88c0,3.76-1.87,5.63-5.62,5.63h-16.88c-3.76,0-5.63-1.87-5.63-5.63Z"/><path class="cls-1" d="M1245.12,1439.11q0-14.55,14.55-14.55h43.67q14.57,0,14.56,14.55v43.67q0,14.55-14.56,14.56h-43.67q-14.55,0-14.55-14.56Z"/><path class="cls-1" d="M1253.42,1639.48q0-11.24,11.24-11.24h33.7q11.23,0,11.23,11.24v33.7q0,11.23-11.23,11.23h-33.7q-11.23,0-11.24-11.23Z"/><path class="cls-1" d="M1261.72,1815.65q0-7.9,7.92-7.91h23.74q7.9,0,7.91,7.91v23.74q0,7.92-7.91,7.91h-23.74q-7.92,0-7.92-7.91Z"/><path class="cls-1" d="M1270,1948.49q0-4.59,4.59-4.59h13.78q4.59,0,4.59,4.59v13.78q0,4.59-4.59,4.59h-13.78q-4.59,0-4.59-4.59Z"/><path class="cls-1" d="M1270,41q0-4.59,4.59-4.59h13.77q4.6,0,4.6,4.59V54.81q0,4.59-4.6,4.59h-13.77q-4.59,0-4.59-4.59Z"/><path class="cls-1" d="M1267.44,90.81q0-5.62,5.63-5.62H1290q5.63,0,5.62,5.62v16.88q0,5.63-5.62,5.63h-16.88q-5.62,0-5.63-5.63Z"/><path class="cls-1" d="M1261.72,147.79q0-7.92,7.92-7.92h23.74q7.9,0,7.91,7.92v23.73q0,7.92-7.91,7.92h-23.74q-7.92,0-7.92-7.92Z"/><path class="cls-1" d="M1260,220.23q0-8.61,8.61-8.61h25.85q8.63,0,8.62,8.61v25.85q0,8.63-8.62,8.62h-25.85q-8.61,0-8.61-8.62Z"/><path class="cls-1" d="M1253.42,296.87q0-11.24,11.24-11.24h33.7q11.23,0,11.23,11.24v33.7q0,11.24-11.23,11.23h-33.7q-11.23,0-11.24-11.23Z"/><path class="cls-1" d="M1252.49,385.94q0-11.61,11.61-11.61h34.82q11.6,0,11.6,11.61v34.81q0,11.61-11.6,11.61H1264.1q-11.61,0-11.61-11.61Z"/><path class="cls-1" d="M1245.12,479.2q0-14.55,14.55-14.55h43.67q14.57,0,14.56,14.55v43.67q0,14.55-14.56,14.56h-43.67q-14.55,0-14.55-14.56Z"/><path class="cls-1" d="M1245,590.94q0-14.6,14.59-14.59h43.79q14.6,0,14.59,14.59v43.79q0,14.6-14.59,14.59h-43.79q-14.59,0-14.59-14.59Z"/><path class="cls-1" d="M1236.81,704.88q0-17.88,17.88-17.88h53.63q17.88,0,17.88,17.88v53.63q0,17.88-17.88,17.88h-53.63q-17.88,0-17.88-17.88Z"/><path class="cls-1" d="M1237.55,829.21q0-17.58,17.58-17.59h52.75q17.59,0,17.59,17.59V882q0,17.6-17.59,17.59h-52.75q-17.58,0-17.58-17.59Z"/><path class="cls-1" d="M1232.66,957.23q0-19.54,19.54-19.54h58.61q19.55,0,19.54,19.54v58.61q0,19.54-19.54,19.54H1252.2q-19.54,0-19.54-19.54Z"/><path class="cls-1" d="M1237.55,1091.11q0-17.59,17.58-17.59h52.75q17.59,0,17.59,17.59v52.75q0,17.58-17.59,17.58h-52.75q-17.58,0-17.58-17.58Z"/><path class="cls-1" d="M1236.81,1213.55q0-17.88,17.88-17.88h53.63q17.88,0,17.88,17.88v53.63q0,17.88-17.88,17.88h-53.63q-17.88,0-17.88-17.88Z"/><path class="cls-1" d="M1134.16,1341.36q0-14.59,14.6-14.59h43.78q14.6,0,14.6,14.59v43.79q0,14.6-14.6,14.59h-43.78q-14.6,0-14.6-14.59Z"/><path class="cls-1" d="M1141.63,1541.23q0-11.61,11.61-11.61h34.82q11.6,0,11.6,11.61V1576q0,11.61-11.6,11.61h-34.82q-11.61,0-11.61-11.61Z"/><path class="cls-1" d="M1149.11,1741.09q0-8.61,8.62-8.61h25.84q8.63,0,8.62,8.61v25.85q0,8.63-8.62,8.62h-25.84q-8.62,0-8.62-8.62Z"/><path class="cls-1" d="M1156.58,1889.56c0-3.75,1.88-5.63,5.63-5.62h16.88c3.75,0,5.63,1.87,5.63,5.62v16.88c0,3.76-1.88,5.63-5.63,5.63h-16.88c-3.75,0-5.63-1.87-5.63-5.63Z"/><path class="cls-1" d="M1134.26,1439.11q0-14.55,14.56-14.55h43.66q14.57,0,14.56,14.55v43.67q0,14.55-14.56,14.56h-43.66q-14.57,0-14.56-14.56Z"/><path class="cls-1" d="M1142.56,1639.48q0-11.24,11.24-11.24h33.7q11.24,0,11.24,11.24v33.7q0,11.23-11.24,11.23h-33.7q-11.23,0-11.24-11.23Z"/><path class="cls-1" d="M1150.87,1815.65q0-7.9,7.91-7.91h23.74q7.9,0,7.91,7.91v23.74q0,7.92-7.91,7.91h-23.74q-7.92,0-7.91-7.91Z"/><path class="cls-1" d="M1159.17,1948.49q0-4.59,4.59-4.59h13.78q4.59,0,4.59,4.59v13.78q0,4.59-4.59,4.59h-13.78q-4.59,0-4.59-4.59Z"/><path class="cls-1" d="M1159.17,41q0-4.59,4.59-4.59h13.78q4.59,0,4.59,4.59V54.81q0,4.59-4.59,4.59h-13.78q-4.59,0-4.59-4.59Z"/><path class="cls-1" d="M1156.58,90.81q0-5.62,5.63-5.62h16.88q5.63,0,5.63,5.62v16.88q0,5.63-5.63,5.63h-16.88q-5.62,0-5.63-5.63Z"/><path class="cls-1" d="M1150.87,147.79q0-7.92,7.91-7.92h23.74q7.9,0,7.91,7.92v23.73q0,7.92-7.91,7.92h-23.74q-7.92,0-7.91-7.92Z"/><path class="cls-1" d="M1149.11,220.23q0-8.61,8.61-8.61h25.85q8.63,0,8.62,8.61v25.85q0,8.63-8.62,8.62h-25.85q-8.61,0-8.61-8.62Z"/><path class="cls-1" d="M1142.56,296.87q0-11.24,11.24-11.24h33.7q11.24,0,11.24,11.24v33.7q0,11.24-11.24,11.23h-33.7q-11.23,0-11.24-11.23Z"/><path class="cls-1" d="M1141.64,385.94q0-11.61,11.6-11.61h34.82q11.6,0,11.6,11.61v34.81q0,11.61-11.6,11.61h-34.82q-11.61,0-11.6-11.61Z"/><path class="cls-1" d="M1134.26,479.2q0-14.55,14.56-14.55h43.66q14.57,0,14.56,14.55v43.67q0,14.55-14.56,14.56h-43.66q-14.57,0-14.56-14.56Z"/><path class="cls-1" d="M1134.16,590.94q0-14.6,14.6-14.59h43.78q14.6,0,14.6,14.59v43.79q0,14.6-14.6,14.59h-43.78q-14.6,0-14.6-14.59Z"/><path class="cls-1" d="M1126,704.88q0-17.88,17.87-17.88h53.64q17.87,0,17.87,17.88v53.63q0,17.88-17.88,17.88h-53.63q-17.88,0-17.87-17.88Z"/><path class="cls-1" d="M1126.69,829.21q0-17.58,17.58-17.59H1197q17.58,0,17.58,17.59V882q0,17.6-17.58,17.59h-52.76q-17.58,0-17.58-17.59Z"/><path class="cls-1" d="M1121.8,957.23q0-19.54,19.54-19.54H1200q19.53,0,19.53,19.54v58.61q0,19.54-19.53,19.54h-58.62q-19.53,0-19.54-19.54Z"/><path class="cls-1" d="M1126.69,1091.11q0-17.59,17.58-17.59H1197q17.58,0,17.58,17.59v52.75q0,17.58-17.58,17.58h-52.76q-17.58,0-17.58-17.58Z"/><path class="cls-1" d="M1126,1213.55q0-17.88,17.87-17.88h53.63q17.88,0,17.88,17.88v53.63q0,17.88-17.88,17.88h-53.63q-17.88,0-17.87-17.88Z"/><path class="cls-1" d="M1023.3,1341.36q0-14.59,14.6-14.59h43.78q14.6,0,14.6,14.59v43.79q0,14.6-14.6,14.59H1037.9q-14.6,0-14.6-14.59Z"/><path class="cls-1" d="M1030.78,1541.23q0-11.61,11.6-11.61h34.82q11.61,0,11.61,11.61V1576q0,11.61-11.61,11.61h-34.82q-11.6,0-11.6-11.61Z"/><path class="cls-1" d="M1038.25,1741.09q0-8.61,8.62-8.61h25.85q8.61,0,8.61,8.61v25.85q0,8.63-8.61,8.62h-25.85q-8.62,0-8.62-8.62Z"/><path class="cls-1" d="M1045.72,1889.56c0-3.75,1.88-5.63,5.63-5.62h16.88c3.75,0,5.63,1.87,5.63,5.62v16.88c0,3.76-1.88,5.63-5.63,5.63h-16.88c-3.75,0-5.63-1.87-5.63-5.63Z"/><path class="cls-1" d="M1023.4,1439.11q0-14.55,14.56-14.55h43.66q14.57,0,14.56,14.55v43.67q0,14.55-14.56,14.56H1038q-14.57,0-14.56-14.56Z"/><path class="cls-1" d="M1031.7,1639.48q0-11.24,11.24-11.24h33.7q11.23,0,11.24,11.24v33.7q0,11.23-11.24,11.23h-33.7q-11.24,0-11.24-11.23Z"/><path class="cls-1" d="M1040,1815.65q0-7.9,7.91-7.91h23.74q7.92,0,7.91,7.91v23.74q0,7.92-7.91,7.91h-23.74q-7.9,0-7.91-7.91Z"/><path class="cls-1" d="M1048.31,1948.49q0-4.59,4.59-4.59h13.78q4.59,0,4.59,4.59v13.78q0,4.59-4.59,4.59H1052.9q-4.59,0-4.59-4.59Z"/><path class="cls-1" d="M1048.31,41q0-4.59,4.59-4.59h13.78q4.59,0,4.59,4.59V54.81q0,4.59-4.59,4.59H1052.9q-4.59,0-4.59-4.59Z"/><path class="cls-1" d="M1045.72,90.81q0-5.62,5.63-5.62h16.88q5.63,0,5.63,5.62v16.88q0,5.63-5.63,5.63h-16.88q-5.62,0-5.63-5.63Z"/><path class="cls-1" d="M1040,147.79q0-7.92,7.91-7.92h23.74q7.92,0,7.91,7.92v23.73q0,7.92-7.91,7.92h-23.74q-7.9,0-7.91-7.92Z"/><path class="cls-1" d="M1038.25,220.23q0-8.61,8.62-8.61h25.85q8.61,0,8.61,8.61v25.85q0,8.63-8.61,8.62h-25.85q-8.62,0-8.62-8.62Z"/><path class="cls-1" d="M1031.7,296.87q0-11.24,11.24-11.24h33.7q11.23,0,11.24,11.24v33.7q0,11.24-11.24,11.23h-33.7q-11.24,0-11.24-11.23Z"/><path class="cls-1" d="M1030.78,385.94q0-11.61,11.6-11.61h34.82q11.61,0,11.61,11.61v34.81q0,11.61-11.61,11.61h-34.82q-11.6,0-11.6-11.61Z"/><path class="cls-1" d="M1023.4,479.2q0-14.55,14.56-14.55h43.66q14.57,0,14.56,14.55v43.67q0,14.55-14.56,14.56H1038q-14.57,0-14.56-14.56Z"/><path class="cls-1" d="M1023.3,590.94q0-14.6,14.6-14.59h43.78q14.6,0,14.6,14.59v43.79q0,14.6-14.6,14.59H1037.9q-14.6,0-14.6-14.59Z"/><path class="cls-1" d="M1015.1,704.88Q1015.1,687,1033,687h53.63q17.88,0,17.88,17.88v53.63q0,17.88-17.87,17.88H1033q-17.88,0-17.88-17.88Z"/><path class="cls-1" d="M1015.83,829.21q0-17.58,17.58-17.59h52.76q17.58,0,17.58,17.59V882q0,17.6-17.58,17.59h-52.76q-17.58,0-17.58-17.59Z"/><path class="cls-1" d="M1011,957.23q0-19.54,19.53-19.54h58.62q19.53,0,19.54,19.54v58.61q0,19.54-19.54,19.54h-58.62q-19.53,0-19.53-19.54Z"/><path class="cls-1" d="M1015.83,1091.11q0-17.59,17.58-17.59h52.76q17.58,0,17.58,17.59v52.75q0,17.58-17.58,17.58h-52.76q-17.58,0-17.58-17.58Z"/><path class="cls-1" d="M1015.1,1213.55q0-17.88,17.88-17.88h53.63q17.88,0,17.87,17.88v53.63q0,17.88-17.87,17.88H1033q-17.88,0-17.88-17.88Z"/><path class="cls-1" d="M912.45,1341.36q0-14.59,14.59-14.59h43.79q14.59,0,14.59,14.59v43.79q0,14.6-14.59,14.59H927q-14.6,0-14.59-14.59Z"/><path class="cls-1" d="M919.92,1541.23q0-11.61,11.61-11.61h34.81q11.61,0,11.61,11.61V1576q0,11.61-11.61,11.61H931.53q-11.61,0-11.61-11.61Z"/><path class="cls-1" d="M927.39,1741.09q0-8.61,8.62-8.61h25.85q8.61,0,8.61,8.61v25.85q0,8.63-8.61,8.62H936q-8.62,0-8.62-8.62Z"/><path class="cls-1" d="M934.87,1889.56c0-3.75,1.87-5.63,5.62-5.62h16.88c3.76,0,5.63,1.87,5.63,5.62v16.88c0,3.76-1.87,5.63-5.63,5.63H940.49c-3.75,0-5.62-1.87-5.62-5.63Z"/><path class="cls-1" d="M912.54,1439.11q0-14.55,14.56-14.55h43.67q14.55,0,14.55,14.55v43.67q0,14.55-14.55,14.56H927.1q-14.55,0-14.56-14.56Z"/><path class="cls-1" d="M920.85,1639.48q0-11.24,11.23-11.24h33.7q11.24,0,11.24,11.24v33.7q0,11.23-11.24,11.23h-33.7q-11.24,0-11.23-11.23Z"/><path class="cls-1" d="M929.15,1815.65q0-7.9,7.91-7.91H960.8q7.92,0,7.92,7.91v23.74q0,7.92-7.92,7.91H937.06q-7.9,0-7.91-7.91Z"/><path class="cls-1" d="M937.45,1948.49q0-4.59,4.6-4.59h13.77q4.59,0,4.59,4.59v13.78q0,4.59-4.59,4.59H942.05q-4.6,0-4.6-4.59Z"/><path class="cls-1" d="M937.45,41q0-4.59,4.6-4.59h13.77q4.59,0,4.59,4.59V54.81q0,4.59-4.59,4.59H942.05q-4.6,0-4.6-4.59Z"/><path class="cls-1" d="M934.87,90.81q0-5.62,5.62-5.62h16.88q5.63,0,5.63,5.62v16.88q0,5.63-5.63,5.63H940.49q-5.62,0-5.62-5.63Z"/><path class="cls-1" d="M929.15,147.79q0-7.92,7.91-7.92H960.8q7.92,0,7.92,7.92v23.73q0,7.92-7.92,7.92H937.06q-7.9,0-7.91-7.92Z"/><path class="cls-1" d="M927.39,220.23q0-8.61,8.62-8.61h25.85q8.61,0,8.61,8.61v25.85q0,8.63-8.61,8.62H936q-8.62,0-8.62-8.62Z"/><path class="cls-1" d="M920.85,296.87q0-11.24,11.23-11.24h33.7q11.24,0,11.24,11.24v33.7q0,11.24-11.24,11.23h-33.7q-11.24,0-11.23-11.23Z"/><path class="cls-1" d="M919.92,385.94q0-11.61,11.6-11.61h34.82q11.61,0,11.61,11.61v34.81q0,11.61-11.61,11.61H931.52q-11.6,0-11.6-11.61Z"/><path class="cls-1" d="M912.54,479.2q0-14.55,14.56-14.55h43.67q14.55,0,14.55,14.55v43.67q0,14.55-14.55,14.56H927.1q-14.55,0-14.56-14.56Z"/><path class="cls-1" d="M912.45,590.94q0-14.6,14.59-14.59h43.79q14.59,0,14.59,14.59v43.79q0,14.6-14.59,14.59H927q-14.6,0-14.59-14.59Z"/><path class="cls-1" d="M904.24,704.88q0-17.88,17.88-17.88h53.63q17.88,0,17.88,17.88v53.63q0,17.88-17.88,17.88H922.12q-17.88,0-17.88-17.88Z"/><path class="cls-1" d="M905,829.21q0-17.58,17.59-17.59h52.75q17.58,0,17.58,17.59V882q0,17.6-17.58,17.59H922.56Q905,899.55,905,882Z"/><path class="cls-1" d="M900.09,957.23q0-19.54,19.54-19.54h58.61q19.54,0,19.54,19.54v58.61q0,19.54-19.54,19.54H919.63q-19.54,0-19.54-19.54Z"/><path class="cls-1" d="M905,1091.11q0-17.59,17.59-17.59h52.75q17.58,0,17.58,17.59v52.75q0,17.58-17.58,17.58H922.56q-17.59,0-17.59-17.58Z"/><path class="cls-1" d="M904.24,1213.55q0-17.88,17.88-17.88h53.63q17.88,0,17.88,17.88v53.63q0,17.88-17.88,17.88H922.12q-17.88,0-17.88-17.88Z"/><path class="cls-1" d="M801.59,1341.36q0-14.59,14.59-14.59H860q14.6,0,14.59,14.59v43.79q0,14.6-14.59,14.59H816.18q-14.59,0-14.59-14.59Z"/><path class="cls-1" d="M809.06,1541.23q0-11.61,11.61-11.61h34.81q11.61,0,11.61,11.61V1576q0,11.61-11.61,11.61H820.67q-11.61,0-11.61-11.61Z"/><path class="cls-1" d="M816.53,1741.09q0-8.61,8.62-8.61H851q8.61,0,8.62,8.61v25.85q0,8.63-8.62,8.62H825.15q-8.61,0-8.62-8.62Z"/><path class="cls-1" d="M824,1889.56c0-3.75,1.87-5.63,5.62-5.62h16.89c3.75,0,5.62,1.87,5.62,5.62v16.88c0,3.76-1.87,5.63-5.62,5.63H829.63c-3.75,0-5.62-1.87-5.62-5.63Z"/><path class="cls-1" d="M801.69,1439.11q0-14.55,14.55-14.55h43.67q14.55,0,14.55,14.55v43.67q0,14.55-14.55,14.56H816.24q-14.55,0-14.55-14.56Z"/><path class="cls-1" d="M810,1639.48q0-11.24,11.23-11.24h33.71q11.24,0,11.23,11.24v33.7q0,11.23-11.23,11.23H821.22q-11.24,0-11.23-11.23Z"/><path class="cls-1" d="M818.29,1815.65q0-7.9,7.92-7.91h23.73q7.92,0,7.92,7.91v23.74q0,7.92-7.92,7.91H826.21q-7.92,0-7.92-7.91Z"/><path class="cls-1" d="M826.6,1948.49q0-4.59,4.59-4.59H845q4.59,0,4.59,4.59v13.78q0,4.59-4.59,4.59H831.19q-4.59,0-4.59-4.59Z"/><path class="cls-1" d="M826.6,41q0-4.59,4.59-4.59H845q4.59,0,4.59,4.59V54.81q0,4.59-4.59,4.59H831.19q-4.59,0-4.59-4.59Z"/><path class="cls-1" d="M824,90.81q0-5.62,5.62-5.62h16.89q5.63,0,5.62,5.62v16.88q0,5.63-5.62,5.63H829.63q-5.62,0-5.62-5.63Z"/><path class="cls-1" d="M818.29,147.79q0-7.92,7.92-7.92h23.73q7.92,0,7.92,7.92v23.73q0,7.92-7.92,7.92H826.21q-7.92,0-7.92-7.92Z"/><path class="cls-1" d="M816.53,220.23q0-8.61,8.62-8.61H851q8.61,0,8.62,8.61v25.85q0,8.63-8.62,8.62H825.15q-8.61,0-8.62-8.62Z"/><path class="cls-1" d="M810,296.87q0-11.24,11.23-11.24h33.71q11.24,0,11.23,11.24v33.7q0,11.24-11.23,11.23H821.22Q810,341.8,810,330.57Z"/><path class="cls-1" d="M809.06,385.94q0-11.61,11.61-11.61h34.81q11.61,0,11.61,11.61v34.81q0,11.61-11.61,11.61H820.67q-11.61,0-11.61-11.61Z"/><path class="cls-1" d="M801.69,479.2q0-14.55,14.55-14.55h43.67q14.55,0,14.55,14.55v43.67q0,14.55-14.55,14.56H816.24q-14.55,0-14.55-14.56Z"/><path class="cls-1" d="M801.59,590.94q0-14.6,14.59-14.59H860q14.6,0,14.59,14.59v43.79q0,14.6-14.59,14.59H816.18q-14.59,0-14.59-14.59Z"/><path class="cls-1" d="M793.38,704.88q0-17.88,17.88-17.88h53.63q17.88,0,17.88,17.88v53.63q0,17.88-17.88,17.88H811.26q-17.88,0-17.88-17.88Z"/><path class="cls-1" d="M794.11,829.21q0-17.58,17.59-17.59h52.75q17.58,0,17.59,17.59V882q0,17.6-17.59,17.59H811.7q-17.58,0-17.59-17.59Z"/><path class="cls-1" d="M789.23,957.23q0-19.54,19.54-19.54h58.61q19.54,0,19.54,19.54v58.61q0,19.54-19.54,19.54H808.77q-19.54,0-19.54-19.54Z"/><path class="cls-1" d="M794.11,1091.11q0-17.59,17.59-17.59h52.75q17.58,0,17.59,17.59v52.75q0,17.58-17.59,17.58H811.7q-17.58,0-17.59-17.58Z"/><path class="cls-1" d="M793.38,1213.55q0-17.88,17.88-17.88h53.63q17.88,0,17.88,17.88v53.63q0,17.88-17.88,17.88H811.26q-17.88,0-17.88-17.88Z"/><path class="cls-1" d="M690.73,1341.36q0-14.59,14.59-14.59h43.79q14.6,0,14.59,14.59v43.79q0,14.6-14.59,14.59H705.32q-14.6,0-14.59-14.59Z"/><path class="cls-1" d="M698.2,1541.23q0-11.61,11.61-11.61h34.81q11.61,0,11.61,11.61V1576q0,11.61-11.61,11.61H709.81q-11.61,0-11.61-11.61Z"/><path class="cls-1" d="M705.68,1741.09q0-8.61,8.61-8.61h25.85q8.63,0,8.62,8.61v25.85q0,8.63-8.62,8.62H714.29q-8.61,0-8.61-8.62Z"/><path class="cls-1" d="M713.15,1889.56c0-3.75,1.87-5.63,5.63-5.62h16.88c3.75,0,5.62,1.87,5.62,5.62v16.88c0,3.76-1.87,5.63-5.62,5.63H718.78c-3.76,0-5.63-1.87-5.63-5.63Z"/><path class="cls-1" d="M690.83,1439.11q0-14.55,14.55-14.55h43.67q14.55,0,14.56,14.55v43.67q0,14.55-14.56,14.56H705.38q-14.55,0-14.55-14.56Z"/><path class="cls-1" d="M699.13,1639.48q0-11.24,11.24-11.24h33.7q11.23,0,11.23,11.24v33.7q0,11.23-11.23,11.23h-33.7q-11.24,0-11.24-11.23Z"/><path class="cls-1" d="M707.43,1815.65q0-7.9,7.92-7.91h23.74q7.9,0,7.91,7.91v23.74q0,7.92-7.91,7.91H715.35q-7.92,0-7.92-7.91Z"/><path class="cls-1" d="M715.74,1948.49q0-4.59,4.59-4.59H734.1q4.6,0,4.6,4.59v13.78q0,4.59-4.6,4.59H720.33q-4.59,0-4.59-4.59Z"/><path class="cls-1" d="M715.74,41q0-4.59,4.59-4.59H734.1q4.6,0,4.6,4.59V54.81q0,4.59-4.6,4.59H720.33q-4.59,0-4.59-4.59Z"/><path class="cls-1" d="M713.15,90.81q0-5.62,5.63-5.62h16.88q5.63,0,5.62,5.62v16.88q0,5.63-5.62,5.63H718.78q-5.62,0-5.63-5.63Z"/><path class="cls-1" d="M707.43,147.79q0-7.92,7.92-7.92h23.74q7.9,0,7.91,7.92v23.73q0,7.92-7.91,7.92H715.35q-7.92,0-7.92-7.92Z"/><path class="cls-1" d="M705.68,220.23q0-8.61,8.61-8.61h25.85q8.63,0,8.62,8.61v25.85q0,8.63-8.62,8.62H714.29q-8.61,0-8.61-8.62Z"/><path class="cls-1" d="M699.13,296.87q0-11.24,11.24-11.24h33.7q11.23,0,11.23,11.24v33.7q0,11.24-11.23,11.23h-33.7q-11.24,0-11.24-11.23Z"/><path class="cls-1" d="M698.2,385.94q0-11.61,11.61-11.61h34.82q11.6,0,11.6,11.61v34.81q0,11.61-11.6,11.61H709.81q-11.61,0-11.61-11.61Z"/><path class="cls-1" d="M690.83,479.2q0-14.55,14.55-14.55h43.67q14.55,0,14.56,14.55v43.67q0,14.55-14.56,14.56H705.38q-14.55,0-14.55-14.56Z"/><path class="cls-1" d="M690.73,590.94q0-14.6,14.59-14.59h43.79q14.6,0,14.59,14.59v43.79q0,14.6-14.59,14.59H705.32q-14.6,0-14.59-14.59Z"/><path class="cls-1" d="M682.52,704.88q0-17.88,17.88-17.88H754q17.88,0,17.88,17.88v53.63q0,17.88-17.88,17.88H700.4q-17.88,0-17.88-17.88Z"/><path class="cls-1" d="M683.26,829.21q0-17.58,17.58-17.59h52.75q17.6,0,17.59,17.59V882q0,17.6-17.59,17.59H700.84q-17.58,0-17.58-17.59Z"/><path class="cls-1" d="M678.37,957.23q0-19.54,19.54-19.54h58.61q19.54,0,19.54,19.54v58.61q0,19.54-19.54,19.54H697.91q-19.54,0-19.54-19.54Z"/><path class="cls-1" d="M683.26,1091.11q0-17.59,17.58-17.59h52.75q17.6,0,17.59,17.59v52.75q0,17.58-17.59,17.58H700.84q-17.58,0-17.58-17.58Z"/><path class="cls-1" d="M682.52,1213.55q0-17.88,17.88-17.88H754q17.88,0,17.88,17.88v53.63q0,17.88-17.88,17.88H700.4q-17.88,0-17.88-17.88Z"/><path class="cls-1" d="M579.87,1341.36q0-14.59,14.6-14.59h43.78q14.6,0,14.6,14.59v43.79q0,14.6-14.6,14.59H594.47q-14.6,0-14.6-14.59Z"/><path class="cls-1" d="M587.34,1541.23q0-11.61,11.61-11.61h34.82q11.6,0,11.6,11.61V1576q0,11.61-11.6,11.61H599q-11.61,0-11.61-11.61Z"/><path class="cls-1" d="M594.82,1741.09q0-8.61,8.62-8.61h25.84q8.63,0,8.62,8.61v25.85q0,8.63-8.62,8.62H603.44q-8.62,0-8.62-8.62Z"/><path class="cls-1" d="M602.29,1889.56c0-3.75,1.88-5.63,5.63-5.62H624.8c3.75,0,5.63,1.87,5.63,5.62v16.88c0,3.76-1.88,5.63-5.63,5.63H607.92c-3.75,0-5.63-1.87-5.63-5.63Z"/><path class="cls-1" d="M580,1439.11q0-14.55,14.56-14.55h43.66q14.56,0,14.56,14.55v43.67q0,14.55-14.56,14.56H594.53q-14.56,0-14.56-14.56Z"/><path class="cls-1" d="M588.27,1639.48q0-11.24,11.24-11.24h33.7q11.24,0,11.24,11.24v33.7q0,11.23-11.24,11.23h-33.7q-11.24,0-11.24-11.23Z"/><path class="cls-1" d="M596.58,1815.65q0-7.9,7.91-7.91h23.74q7.9,0,7.91,7.91v23.74q0,7.92-7.91,7.91H604.49q-7.92,0-7.91-7.91Z"/><path class="cls-1" d="M604.88,1948.49q0-4.59,4.59-4.59h13.78q4.59,0,4.59,4.59v13.78q0,4.59-4.59,4.59H609.47q-4.59,0-4.59-4.59Z"/><path class="cls-1" d="M604.88,41q0-4.59,4.59-4.59h13.78q4.59,0,4.59,4.59V54.81q0,4.59-4.59,4.59H609.47q-4.59,0-4.59-4.59Z"/><path class="cls-1" d="M602.29,90.81q0-5.62,5.63-5.62H624.8q5.63,0,5.63,5.62v16.88q0,5.63-5.63,5.63H607.92q-5.62,0-5.63-5.63Z"/><path class="cls-1" d="M596.58,147.79q0-7.92,7.91-7.92h23.74q7.9,0,7.91,7.92v23.73q0,7.92-7.91,7.92H604.49q-7.92,0-7.91-7.92Z"/><path class="cls-1" d="M594.82,220.23q0-8.61,8.61-8.61h25.85q8.63,0,8.62,8.61v25.85q0,8.63-8.62,8.62H603.43q-8.61,0-8.61-8.62Z"/><path class="cls-1" d="M588.27,296.87q0-11.24,11.24-11.24h33.7q11.24,0,11.24,11.24v33.7q0,11.24-11.24,11.23h-33.7q-11.24,0-11.24-11.23Z"/><path class="cls-1" d="M587.35,385.94q0-11.61,11.6-11.61h34.82q11.6,0,11.6,11.61v34.81q0,11.61-11.6,11.61H599q-11.61,0-11.6-11.61Z"/><path class="cls-1" d="M580,479.2q0-14.55,14.56-14.55h43.66q14.56,0,14.56,14.55v43.67q0,14.55-14.56,14.56H594.53q-14.56,0-14.56-14.56Z"/><path class="cls-1" d="M579.87,590.94q0-14.6,14.6-14.59h43.78q14.6,0,14.6,14.59v43.79q0,14.6-14.6,14.59H594.47q-14.6,0-14.6-14.59Z"/><path class="cls-1" d="M571.67,704.88q0-17.88,17.87-17.88h53.63q17.88,0,17.88,17.88v53.63q0,17.88-17.88,17.88H589.54q-17.88,0-17.87-17.88Z"/><path class="cls-1" d="M572.4,829.21q0-17.58,17.58-17.59h52.76q17.58,0,17.58,17.59V882q0,17.6-17.58,17.59H590q-17.58,0-17.58-17.59Z"/><path class="cls-1" d="M567.51,957.23q0-19.54,19.54-19.54h58.62q19.53,0,19.53,19.54v58.61q0,19.54-19.53,19.54H587.05q-19.53,0-19.54-19.54Z"/><path class="cls-1" d="M572.4,1091.11q0-17.59,17.58-17.59h52.76q17.58,0,17.58,17.59v52.75q0,17.58-17.58,17.58H590q-17.58,0-17.58-17.58Z"/><path class="cls-1" d="M571.67,1213.55q0-17.88,17.87-17.88h53.63q17.88,0,17.88,17.88v53.63q0,17.88-17.88,17.88H589.54q-17.88,0-17.87-17.88Z"/><path class="cls-1" d="M469,1341.36q0-14.59,14.6-14.59h43.78q14.6,0,14.6,14.59v43.79q0,14.6-14.6,14.59H483.61q-14.6,0-14.6-14.59Z"/><path class="cls-1" d="M476.49,1541.23q0-11.61,11.6-11.61h34.82q11.61,0,11.61,11.61V1576q0,11.61-11.61,11.61H488.09q-11.59,0-11.6-11.61Z"/><path class="cls-1" d="M484,1741.09q0-8.61,8.62-8.61h25.84q8.63,0,8.62,8.61v25.85q0,8.63-8.62,8.62H492.58q-8.62,0-8.62-8.62Z"/><path class="cls-1" d="M491.43,1889.56c0-3.75,1.88-5.63,5.63-5.62h16.88c3.75,0,5.63,1.87,5.63,5.62v16.88c0,3.76-1.88,5.63-5.63,5.63H497.06c-3.75,0-5.63-1.87-5.63-5.63Z"/><path class="cls-1" d="M469.11,1439.11q0-14.55,14.56-14.55h43.66q14.56,0,14.56,14.55v43.67q0,14.55-14.56,14.56H483.67q-14.57,0-14.56-14.56Z"/><path class="cls-1" d="M477.41,1639.48q0-11.24,11.24-11.24h33.7q11.24,0,11.24,11.24v33.7q0,11.23-11.24,11.23h-33.7q-11.23,0-11.24-11.23Z"/><path class="cls-1" d="M485.72,1815.65q0-7.9,7.91-7.91h23.74q7.92,0,7.91,7.91v23.74q0,7.92-7.91,7.91H493.63q-7.9,0-7.91-7.91Z"/><path class="cls-1" d="M494,1948.49q0-4.59,4.59-4.59h13.78q4.59,0,4.59,4.59v13.78q0,4.59-4.59,4.59H498.61q-4.59,0-4.59-4.59Z"/><path class="cls-1" d="M494,41q0-4.59,4.59-4.59h13.78Q517,36.44,517,41V54.81q0,4.59-4.59,4.59H498.61q-4.59,0-4.59-4.59Z"/><path class="cls-1" d="M491.43,90.81q0-5.62,5.63-5.62h16.88q5.63,0,5.63,5.62v16.88q0,5.63-5.63,5.63H497.06q-5.62,0-5.63-5.63Z"/><path class="cls-1" d="M485.72,147.79q0-7.92,7.91-7.92h23.74q7.92,0,7.91,7.92v23.73q0,7.92-7.91,7.92H493.63q-7.9,0-7.91-7.92Z"/><path class="cls-1" d="M484,220.23q0-8.61,8.62-8.61h25.85q8.61,0,8.61,8.61v25.85q0,8.63-8.61,8.62H492.58q-8.62,0-8.62-8.62Z"/><path class="cls-1" d="M477.41,296.87q0-11.24,11.24-11.24h33.7q11.24,0,11.24,11.24v33.7q0,11.24-11.24,11.23h-33.7q-11.23,0-11.24-11.23Z"/><path class="cls-1" d="M476.49,385.94q0-11.61,11.6-11.61h34.82q11.61,0,11.6,11.61v34.81q0,11.61-11.6,11.61H488.09q-11.59,0-11.6-11.61Z"/><path class="cls-1" d="M469.11,479.2q0-14.55,14.56-14.55h43.66q14.56,0,14.56,14.55v43.67q0,14.55-14.56,14.56H483.67q-14.57,0-14.56-14.56Z"/><path class="cls-1" d="M469,590.94q0-14.6,14.6-14.59h43.78q14.6,0,14.6,14.59v43.79q0,14.6-14.6,14.59H483.61q-14.6,0-14.6-14.59Z"/><path class="cls-1" d="M460.81,704.88q0-17.88,17.87-17.88h53.64q17.88,0,17.88,17.88v53.63q0,17.88-17.87,17.88H478.69q-17.88,0-17.88-17.88Z"/><path class="cls-1" d="M461.54,829.21q0-17.58,17.58-17.59h52.76q17.58,0,17.58,17.59V882q0,17.6-17.58,17.59H479.12q-17.58,0-17.58-17.59Z"/><path class="cls-1" d="M456.66,957.23q0-19.54,19.53-19.54h58.62q19.53,0,19.54,19.54v58.61q0,19.54-19.54,19.54H476.19q-19.53,0-19.53-19.54Z"/><path class="cls-1" d="M461.54,1091.11q0-17.59,17.58-17.59h52.76q17.58,0,17.58,17.59v52.75q0,17.58-17.58,17.58H479.12q-17.58,0-17.58-17.58Z"/><path class="cls-1" d="M460.81,1213.55q0-17.88,17.88-17.88h53.63q17.88,0,17.87,17.88v53.63q0,17.88-17.87,17.88H478.69q-17.88,0-17.88-17.88Z"/><path class="cls-1" d="M358.16,1341.36q0-14.59,14.59-14.59h43.79q14.59,0,14.59,14.59v43.79q0,14.6-14.59,14.59H372.75q-14.6,0-14.59-14.59Z"/><path class="cls-1" d="M365.63,1541.23q0-11.61,11.6-11.61h34.82q11.61,0,11.61,11.61V1576q0,11.61-11.61,11.61H377.23q-11.6,0-11.6-11.61Z"/><path class="cls-1" d="M373.1,1741.09q0-8.61,8.62-8.61h25.85q8.61,0,8.61,8.61v25.85q0,8.63-8.61,8.62H381.72q-8.62,0-8.62-8.62Z"/><path class="cls-1" d="M380.58,1889.56c0-3.75,1.87-5.63,5.62-5.62h16.88c3.76,0,5.63,1.87,5.63,5.62v16.88c0,3.76-1.87,5.63-5.63,5.63H386.2c-3.75,0-5.63-1.87-5.62-5.63Z"/><path class="cls-1" d="M358.25,1439.11q0-14.55,14.56-14.55h43.67q14.55,0,14.55,14.55v43.67q0,14.55-14.55,14.56H372.81q-14.55,0-14.56-14.56Z"/><path class="cls-1" d="M366.56,1639.48q0-11.24,11.23-11.24h33.7q11.24,0,11.24,11.24v33.7q0,11.23-11.24,11.23h-33.7q-11.24,0-11.23-11.23Z"/><path class="cls-1" d="M374.86,1815.65q0-7.9,7.91-7.91h23.74q7.92,0,7.92,7.91v23.74q0,7.92-7.92,7.91H382.77q-7.9,0-7.91-7.91Z"/><path class="cls-1" d="M383.16,1948.49q0-4.59,4.59-4.59h13.78q4.59,0,4.59,4.59v13.78q0,4.59-4.59,4.59H387.75q-4.59,0-4.59-4.59Z"/><path class="cls-1" d="M383.16,41q0-4.59,4.6-4.59h13.77q4.59,0,4.59,4.59V54.81q0,4.59-4.59,4.59H387.76q-4.61,0-4.6-4.59Z"/><path class="cls-1" d="M380.58,90.81q0-5.62,5.62-5.62h16.88q5.63,0,5.63,5.62v16.88q0,5.63-5.63,5.63H386.2q-5.62,0-5.62-5.63Z"/><path class="cls-1" d="M374.86,147.79q0-7.92,7.91-7.92h23.74q7.92,0,7.92,7.92v23.73q0,7.92-7.92,7.92H382.77q-7.9,0-7.91-7.92Z"/><path class="cls-1" d="M373.1,220.23q0-8.61,8.62-8.61h25.85q8.61,0,8.61,8.61v25.85q0,8.63-8.61,8.62H381.72q-8.62,0-8.62-8.62Z"/><path class="cls-1" d="M366.56,296.87q0-11.24,11.23-11.24h33.7q11.24,0,11.24,11.24v33.7q0,11.24-11.24,11.23h-33.7q-11.24,0-11.23-11.23Z"/><path class="cls-1" d="M365.63,385.94q0-11.61,11.6-11.61h34.82q11.61,0,11.61,11.61v34.81q0,11.61-11.61,11.61H377.23q-11.6,0-11.6-11.61Z"/><path class="cls-1" d="M358.25,479.2q0-14.55,14.56-14.55h43.67q14.55,0,14.55,14.55v43.67q0,14.55-14.55,14.56H372.81q-14.55,0-14.56-14.56Z"/><path class="cls-1" d="M358.16,590.94q0-14.6,14.59-14.59h43.79q14.59,0,14.59,14.59v43.79q0,14.6-14.59,14.59H372.75q-14.6,0-14.59-14.59Z"/><path class="cls-1" d="M350,704.88Q350,687,367.83,687h53.63q17.88,0,17.88,17.88v53.63q0,17.88-17.88,17.88H367.83q-17.88,0-17.88-17.88Z"/><path class="cls-1" d="M350.68,829.21q0-17.58,17.59-17.59H421q17.58,0,17.58,17.59V882q0,17.6-17.58,17.59H368.27q-17.59,0-17.59-17.59Z"/><path class="cls-1" d="M345.8,957.23q0-19.54,19.54-19.54H424q19.55,0,19.54,19.54v58.61q0,19.54-19.54,19.54H365.34q-19.54,0-19.54-19.54Z"/><path class="cls-1" d="M350.68,1091.11q0-17.59,17.59-17.59H421q17.58,0,17.58,17.59v52.75q0,17.58-17.58,17.58H368.27q-17.59,0-17.59-17.58Z"/><path class="cls-1" d="M350,1213.55q0-17.88,17.88-17.88h53.63q17.88,0,17.88,17.88v53.63q0,17.88-17.88,17.88H367.83q-17.88,0-17.88-17.88Z"/><path class="cls-1" d="M247.3,1341.36q0-14.59,14.59-14.59h43.79q14.6,0,14.59,14.59v43.79q0,14.6-14.59,14.59H261.89q-14.59,0-14.59-14.59Z"/><path class="cls-1" d="M254.77,1541.23q0-11.61,11.61-11.61h34.81q11.61,0,11.61,11.61V1576q0,11.61-11.61,11.61H266.38q-11.61,0-11.61-11.61Z"/><path class="cls-1" d="M262.24,1741.09q0-8.61,8.62-8.61h25.85q8.61,0,8.62,8.61v25.85q0,8.63-8.62,8.62H270.86q-8.61,0-8.62-8.62Z"/><path class="cls-1" d="M269.72,1889.56c0-3.75,1.87-5.63,5.62-5.62h16.89c3.75,0,5.62,1.87,5.62,5.62v16.88c0,3.76-1.87,5.63-5.62,5.63H275.34c-3.75,0-5.62-1.87-5.62-5.63Z"/><path class="cls-1" d="M247.39,1439.11q0-14.55,14.56-14.55h43.67q14.55,0,14.55,14.55v43.67q0,14.55-14.55,14.56H262q-14.55,0-14.56-14.56Z"/><path class="cls-1" d="M255.7,1639.48q0-11.24,11.23-11.24h33.71q11.24,0,11.23,11.24v33.7q0,11.23-11.23,11.23H266.93q-11.24,0-11.23-11.23Z"/><path class="cls-1" d="M264,1815.65q0-7.9,7.91-7.91h23.74q7.92,0,7.92,7.91v23.74q0,7.92-7.92,7.91H271.91q-7.91,0-7.91-7.91Z"/><path class="cls-1" d="M272.31,1948.49q0-4.59,4.59-4.59h13.77q4.59,0,4.59,4.59v13.78q0,4.59-4.59,4.59H276.9q-4.59,0-4.59-4.59Z"/><path class="cls-1" d="M272.31,41q0-4.59,4.59-4.59h13.77q4.59,0,4.59,4.59V54.81q0,4.59-4.59,4.59H276.9q-4.59,0-4.59-4.59Z"/><path class="cls-1" d="M269.72,90.81q0-5.62,5.62-5.62h16.89q5.63,0,5.62,5.62v16.88q0,5.63-5.62,5.63H275.34q-5.62,0-5.62-5.63Z"/><path class="cls-1" d="M264,147.79q0-7.92,7.91-7.92h23.74q7.92,0,7.92,7.92v23.73q0,7.92-7.92,7.92H271.91q-7.91,0-7.91-7.92Z"/><path class="cls-1" d="M262.24,220.23q0-8.61,8.62-8.61h25.85q8.61,0,8.62,8.61v25.85q0,8.63-8.62,8.62H270.86q-8.61,0-8.62-8.62Z"/><path class="cls-1" d="M255.7,296.87q0-11.24,11.23-11.24h33.71q11.24,0,11.23,11.24v33.7q0,11.24-11.23,11.23H266.93q-11.24,0-11.23-11.23Z"/><path class="cls-1" d="M254.77,385.94q0-11.61,11.61-11.61h34.81q11.61,0,11.61,11.61v34.81q0,11.61-11.61,11.61H266.38q-11.61,0-11.61-11.61Z"/><path class="cls-1" d="M247.4,479.2q0-14.55,14.55-14.55h43.67q14.55,0,14.55,14.55v43.67q0,14.55-14.55,14.56H262q-14.55,0-14.55-14.56Z"/><path class="cls-1" d="M247.3,590.94q0-14.6,14.59-14.59h43.79q14.6,0,14.59,14.59v43.79q0,14.6-14.59,14.59H261.89q-14.59,0-14.59-14.59Z"/><path class="cls-1" d="M239.09,704.88Q239.09,687,257,687H310.6q17.88,0,17.88,17.88v53.63q0,17.88-17.88,17.88H257q-17.88,0-17.88-17.88Z"/><path class="cls-1" d="M239.82,829.21q0-17.58,17.59-17.59h52.75q17.58,0,17.59,17.59V882q0,17.6-17.59,17.59H257.41q-17.58,0-17.59-17.59Z"/><path class="cls-1" d="M234.94,957.23q0-19.54,19.54-19.54h58.61q19.55,0,19.54,19.54v58.61q0,19.54-19.54,19.54H254.48q-19.54,0-19.54-19.54Z"/><path class="cls-1" d="M239.82,1091.11q0-17.59,17.59-17.59h52.75q17.58,0,17.59,17.59v52.75q0,17.58-17.59,17.58H257.41q-17.58,0-17.59-17.58Z"/><path class="cls-1" d="M239.09,1213.55q0-17.88,17.88-17.88H310.6q17.88,0,17.88,17.88v53.63q0,17.88-17.88,17.88H257q-17.88,0-17.88-17.88Z"/><path class="cls-1" d="M136.44,1341.36q0-14.59,14.59-14.59h43.79q14.6,0,14.59,14.59v43.79q0,14.6-14.59,14.59H151q-14.59,0-14.59-14.59Z"/><path class="cls-1" d="M143.91,1541.23q0-11.61,11.61-11.61h34.81q11.61,0,11.61,11.61V1576q0,11.61-11.61,11.61H155.52q-11.61,0-11.61-11.61Z"/><path class="cls-1" d="M151.39,1741.09q0-8.61,8.61-8.61h25.85q8.63,0,8.62,8.61v25.85q0,8.63-8.62,8.62H160q-8.61,0-8.61-8.62Z"/><path class="cls-1" d="M158.86,1889.56c0-3.75,1.87-5.63,5.63-5.62h16.88c3.75,0,5.62,1.87,5.62,5.62v16.88c0,3.76-1.87,5.63-5.62,5.63H164.49c-3.76,0-5.63-1.87-5.63-5.63Z"/><path class="cls-1" d="M136.54,1439.11q0-14.55,14.55-14.55h43.67q14.55,0,14.56,14.55v43.67q0,14.55-14.56,14.56H151.09q-14.55,0-14.55-14.56Z"/><path class="cls-1" d="M144.84,1639.48q0-11.24,11.24-11.24h33.7q11.24,0,11.23,11.24v33.7q0,11.23-11.23,11.23h-33.7q-11.24,0-11.24-11.23Z"/><path class="cls-1" d="M153.14,1815.65q0-7.9,7.92-7.91H184.8q7.9,0,7.91,7.91v23.74q0,7.92-7.91,7.91H161.06q-7.92,0-7.92-7.91Z"/><path class="cls-1" d="M161.45,1948.49q0-4.59,4.59-4.59h13.77q4.6,0,4.6,4.59v13.78q0,4.59-4.6,4.59H166q-4.59,0-4.59-4.59Z"/><path class="cls-1" d="M161.45,41q0-4.59,4.59-4.59h13.77q4.6,0,4.6,4.59V54.81q0,4.59-4.6,4.59H166q-4.59,0-4.59-4.59Z"/><path class="cls-1" d="M158.86,90.81q0-5.62,5.63-5.62h16.88q5.63,0,5.62,5.62v16.88q0,5.63-5.62,5.63H164.49q-5.62,0-5.63-5.63Z"/><path class="cls-1" d="M153.14,147.79q0-7.92,7.92-7.92H184.8q7.9,0,7.91,7.92v23.73q0,7.92-7.91,7.92H161.06q-7.92,0-7.92-7.92Z"/><path class="cls-1" d="M151.39,220.23q0-8.61,8.61-8.61h25.85q8.63,0,8.62,8.61v25.85q0,8.63-8.62,8.62H160q-8.61,0-8.61-8.62Z"/><path class="cls-1" d="M144.84,296.87q0-11.24,11.24-11.24h33.7q11.24,0,11.23,11.24v33.7q0,11.24-11.23,11.23h-33.7q-11.24,0-11.24-11.23Z"/><path class="cls-1" d="M143.91,385.94q0-11.61,11.61-11.61h34.82q11.6,0,11.6,11.61v34.81q0,11.61-11.6,11.61H155.52q-11.61,0-11.61-11.61Z"/><path class="cls-1" d="M136.54,479.2q0-14.55,14.55-14.55h43.67q14.55,0,14.56,14.55v43.67q0,14.55-14.56,14.56H151.09q-14.55,0-14.55-14.56Z"/><path class="cls-1" d="M136.44,590.94q0-14.6,14.59-14.59h43.79q14.6,0,14.59,14.59v43.79q0,14.6-14.59,14.59H151q-14.59,0-14.59-14.59Z"/><path class="cls-1" d="M128.23,704.88q0-17.88,17.88-17.88h53.63q17.88,0,17.88,17.88v53.63q0,17.88-17.88,17.88H146.11q-17.88,0-17.88-17.88Z"/><path class="cls-1" d="M129,829.21q0-17.58,17.58-17.59H199.3q17.59,0,17.59,17.59V882q0,17.6-17.59,17.59H146.55Q129,899.55,129,882Z"/><path class="cls-1" d="M124.08,957.23q0-19.54,19.54-19.54h58.61q19.54,0,19.54,19.54v58.61q0,19.54-19.54,19.54H143.62q-19.55,0-19.54-19.54Z"/><path class="cls-1" d="M129,1091.11q0-17.59,17.58-17.59H199.3q17.59,0,17.59,17.59v52.75q0,17.58-17.59,17.58H146.55q-17.58,0-17.58-17.58Z"/><path class="cls-1" d="M128.23,1213.55q0-17.88,17.88-17.88h53.63q17.88,0,17.88,17.88v53.63q0,17.88-17.88,17.88H146.11q-17.88,0-17.88-17.88Z"/><path class="cls-1" d="M25.58,1341.36q0-14.59,14.6-14.59H84q14.6,0,14.6,14.59v43.79q0,14.6-14.6,14.59H40.18q-14.59,0-14.6-14.59Z"/><path class="cls-1" d="M33.05,1541.23q0-11.61,11.61-11.61H79.48q11.59,0,11.6,11.61V1576q0,11.61-11.6,11.61H44.66q-11.61,0-11.61-11.61Z"/><path class="cls-1" d="M40.53,1741.09q0-8.61,8.61-8.61H75q8.63,0,8.62,8.61v25.85q0,8.63-8.62,8.62H49.14q-8.61,0-8.61-8.62Z"/><path class="cls-1" d="M48,1889.56c0-3.75,1.88-5.63,5.63-5.62H70.51c3.75,0,5.63,1.87,5.63,5.62v16.88c0,3.76-1.88,5.63-5.63,5.63H53.63c-3.75,0-5.63-1.87-5.63-5.63Z"/><path class="cls-1" d="M25.68,1439.11q0-14.55,14.56-14.55H83.9q14.56,0,14.56,14.55v43.67q0,14.55-14.56,14.56H40.24q-14.57,0-14.56-14.56Z"/><path class="cls-1" d="M34,1639.48q0-11.24,11.24-11.24h33.7q11.24,0,11.23,11.24v33.7q0,11.23-11.23,11.23H45.22q-11.23,0-11.24-11.23Z"/><path class="cls-1" d="M42.29,1815.65q0-7.9,7.91-7.91H73.94q7.91,0,7.91,7.91v23.74q0,7.92-7.91,7.91H50.2q-7.92,0-7.91-7.91Z"/><path class="cls-1" d="M50.59,1948.49q0-4.59,4.59-4.59H69q4.59,0,4.59,4.59v13.78q0,4.59-4.59,4.59H55.18q-4.59,0-4.59-4.59Z"/><path class="cls-1" d="M50.59,41q0-4.59,4.59-4.59H69q4.59,0,4.59,4.59V54.81q0,4.59-4.59,4.59H55.18q-4.59,0-4.59-4.59Z"/><path class="cls-1" d="M48,90.81q0-5.62,5.63-5.62H70.51q5.63,0,5.63,5.62v16.88q0,5.63-5.63,5.63H53.63q-5.62,0-5.63-5.63Z"/><path class="cls-1" d="M42.29,147.79q0-7.92,7.91-7.92H73.94q7.91,0,7.91,7.92v23.73q0,7.92-7.91,7.92H50.2q-7.92,0-7.91-7.92Z"/><path class="cls-1" d="M40.53,220.23q0-8.61,8.61-8.61H75q8.63,0,8.62,8.61v25.85q0,8.63-8.62,8.62H49.14q-8.61,0-8.61-8.62Z"/><path class="cls-1" d="M34,296.87q0-11.24,11.24-11.24h33.7q11.24,0,11.23,11.24v33.7q0,11.24-11.23,11.23H45.22Q34,341.8,34,330.57Z"/><path class="cls-1" d="M33.05,385.94q0-11.61,11.61-11.61H79.48q11.59,0,11.6,11.61v34.81q0,11.61-11.6,11.61H44.66q-11.61,0-11.61-11.61Z"/><path class="cls-1" d="M25.68,479.2q0-14.55,14.56-14.55H83.9q14.56,0,14.56,14.55v43.67q0,14.55-14.56,14.56H40.24q-14.57,0-14.56-14.56Z"/><path class="cls-1" d="M25.58,590.94q0-14.6,14.6-14.59H84q14.6,0,14.6,14.59v43.79q0,14.6-14.6,14.59H40.18q-14.59,0-14.6-14.59Z"/><path class="cls-1" d="M17.38,704.88Q17.38,687,35.25,687H88.88q17.88,0,17.88,17.88v53.63q0,17.88-17.88,17.88H35.25q-17.88,0-17.87-17.88Z"/><path class="cls-1" d="M18.11,829.21q0-17.58,17.58-17.59H88.45q17.58,0,17.58,17.59V882q0,17.6-17.58,17.59H35.69q-17.58,0-17.58-17.59Z"/><path class="cls-1" d="M13.22,957.23q0-19.54,19.54-19.54H91.38q19.53,0,19.53,19.54v58.61q0,19.54-19.53,19.54H32.76q-19.53,0-19.54-19.54Z"/><path class="cls-1" d="M18.11,1091.11q0-17.59,17.58-17.59H88.45q17.58,0,17.58,17.59v52.75q0,17.58-17.58,17.58H35.69q-17.58,0-17.58-17.58Z"/><path class="cls-1" d="M17.38,1213.55q0-17.88,17.87-17.88H88.88q17.88,0,17.88,17.88v53.63q0,17.88-17.88,17.88H35.25q-17.88,0-17.87-17.88Z"/><rect class="cls-2" width="3000" height="2000"/></svg>