<svg id="Layer_1" data-name="Layer 1" xmlns="http://www.w3.org/2000/svg" viewBox="0 0 554.07 137.48"><defs><style>.cls-1{fill:#f6f6f4;}.cls-2{fill:#f8eee4;}.cls-3{fill:#afbab1;}.cls-4{fill:#ece0cb;}.cls-5{fill:#d9dcd7;}.cls-6{fill:#d5b18b;}.cls-7{fill:#d1d6d2;}.cls-8{fill:#b47651;}.cls-9{fill:#69615f;}.cls-10{fill:#2b2d31;}.cls-11,.cls-18{fill:#fff;}.cls-12{fill:#d3c2a9;}.cls-13{fill:#14110d;}.cls-14{fill:#385675;}.cls-15{fill:#f2c3a1;}.cls-16{fill:#fff200;}.cls-17{fill:#ff84fa;}.cls-18{stroke:#fff;stroke-miterlimit:10;stroke-width:4px;}</style></defs><path class="cls-1" d="M110.82,73.94a1.33,1.33,0,0,0,.67.69A35.13,35.13,0,0,0,117,77.09a13.72,13.72,0,0,0,5.47.56A11,11,0,0,0,127,76,17,17,0,0,0,130.64,73c.26-.28.47-.65,1-.71a3.28,3.28,0,0,1-.09,2.1c-.29.13-.4.41-.56.64a15.42,15.42,0,0,1-9.64,6.59,40.76,40.76,0,0,1-9.61.87,4.5,4.5,0,0,1-3.23-.94,1.6,1.6,0,0,0-.5-.21v0l-.23-.23a9,9,0,0,0-2.42-1.22c-.18.21-.08.34,0,.47l1.53,3.48a85.39,85.39,0,0,1,4.44,11.89,21,21,0,0,1,1,7.15,6.67,6.67,0,0,1-3.73,5.94,24.54,24.54,0,0,1-2.69,1,8.08,8.08,0,0,0,4.36.58,9.55,9.55,0,0,1,2.54-.51,19.84,19.84,0,0,1-1.24,5.74,2.52,2.52,0,0,0-.3,1.23,24.58,24.58,0,0,0-2.17,2.82,25.31,25.31,0,0,1-6.72,6.08,6.44,6.44,0,0,1-.89.38,12.45,12.45,0,0,1-8.79-1.58c.54,1.65.47,1.83-.78,2.17a.26.26,0,0,0-.29.09l-2.1.21a26.36,26.36,0,0,1-4.78-1.53v-.23c.54-.11,1.08-.24,1.63-.33a14.71,14.71,0,0,0,5.95-2.18,12.67,12.67,0,0,0,4.2-4.61,6,6,0,0,0,1-2.15c.43,0,.58-.41.79-.68a28.45,28.45,0,0,0,3.79-6.65A9.35,9.35,0,0,0,103,106a19.38,19.38,0,0,0,.6-8.25,27.41,27.41,0,0,0-2.15-8.12,13.93,13.93,0,0,0-1.7-3.49c0-.07.09-.28-.15-.22l.15.22a2.21,2.21,0,0,0,.11.85,24.23,24.23,0,0,1,1.49,6.19,14.44,14.44,0,0,1-.27,4.6,20,20,0,0,1-2,5.39l0,.41h0c-.74.54-.81,1.6-1.84,2.25a52.77,52.77,0,0,0,1.58-5.81c-.14.07-.23.09-.26.14-.15.25-.28.51-.43.76a28.15,28.15,0,0,1-5.24,7,7.6,7.6,0,0,1-3.78,2c-.31-.2-.19-.41,0-.64a12.39,12.39,0,0,0,1.19-2.06,13.78,13.78,0,0,0,1.39-6.08c0-1.66,0-3.33,0-5-.14-1-.29-1.92-.43-2.88a30.07,30.07,0,0,0-1.09-5,.59.59,0,0,0-.37-.51l.13-.33a3.86,3.86,0,0,0-.45-1.79.46.46,0,0,0-.18-.43v0a13.41,13.41,0,0,0-1-3.51,6.21,6.21,0,0,0-.92-2.17A3.75,3.75,0,0,0,87,78.27,77.32,77.32,0,0,0,83.44,69a75.43,75.43,0,0,0-4-7.45c-.09-.25-.13-.55-.52-.61a.75.75,0,0,0,.33.79,2.72,2.72,0,0,0,.19.5,62.73,62.73,0,0,1,3.54,7.57,22.75,22.75,0,0,1,2,9.16l-.48,0s-.1-.12-.16-.14a25.23,25.23,0,0,1-4.59-2.22,1.54,1.54,0,0,0-.93-.25c0-.55-.47-.55-.85-.64a18,18,0,0,0-3.08-2.63c-.39-.68-1.13-1-1.51-1.73l-.21-.24h0a4.9,4.9,0,0,0-.55-1.75A33.49,33.49,0,0,1,70.92,65a2.51,2.51,0,0,0,1.13-.33,6,6,0,0,1,5.73.28,9.72,9.72,0,0,1,1.8,1.39c.16.16.31.44.66.21a34.23,34.23,0,0,0-2.73-5.53c-.42-.71-.84-1.43-1.29-2.13-.23-.36-.49-.5-.84,0a6.07,6.07,0,0,1-1,1.1c-1.22,1-2.53,1.83-4.24,1.42-.07,0-.18.1-.27.16a58.22,58.22,0,0,1-1.94-7.1,3.2,3.2,0,0,0-.42-1.12,15.07,15.07,0,0,0,0,2.35c.34,1.9.11,3.83.36,5.74.22,1.64.39,3.29.7,4.92a8.11,8.11,0,0,0,0,.86c.43,2.57,1,5.1,1.69,7.61.17.51.36,1,.53,1.53a37.23,37.23,0,0,0,4.09,8.82,5.45,5.45,0,0,0,.86,1.23,2.47,2.47,0,0,0,.82-.51,8.44,8.44,0,0,1,3.28-1.39c3.73-.69,8.09,2.48,7,6.9-.58.29-.69.91-.93,1.42-1.32,2.81-4.1,3.79-7,3-2-.52-2.85-2-3.38-3.78a11.11,11.11,0,0,1-.48-4c0-.51-.12-.77-.68-.91a8.33,8.33,0,0,0-1.72-.15l-1.93-.44a2.8,2.8,0,0,0-.5-.41,31.56,31.56,0,0,1-8.31-6.72,8.46,8.46,0,0,0-1.47-1.58c0-.09-.07-.11-.08,0s.06,0,.09,0a1.39,1.39,0,0,0,.32.89,67,67,0,0,0,4,6.1,15.59,15.59,0,0,1-4.38-2.53A25.57,25.57,0,0,1,55,76.29a7.75,7.75,0,0,1-1.49-2.73,2.22,2.22,0,0,0-.21-1,44.44,44.44,0,0,1-2-12.71,24.09,24.09,0,0,1,1.24-7.45,3.29,3.29,0,0,0,.32-1.48c.08-.07.27-.12.08-.27l-.08.27a15.92,15.92,0,0,0-2,5.1,22.76,22.76,0,0,0-.6,3.93,12.89,12.89,0,0,0,0,3.67,5.53,5.53,0,0,1-.09,2.56.46.46,0,0,0-.21.44,11.74,11.74,0,0,0-1.33,3.06,39.71,39.71,0,0,0-2.16,13.06,13,13,0,0,0-.62,3.79c-.19,2.07-.26,4.15-.46,6.21h0l.07,0a3.13,3.13,0,0,0-.26.82c-.05,1.09-.31,2.16-.29,3.25,0,2,0,4,.18,6,.2,2.46.51,4.9.84,7.34.15,1.09.29,2.19.45,3.39a3.76,3.76,0,0,1-1.21-.71,26.35,26.35,0,0,1-3.8-3.59,22.89,22.89,0,0,1-5.18-9.46,40,40,0,0,1-1.35-10.21c0-1-.17-2-.09-2.93.11-1.19.06-2.37.06-3.56a10.52,10.52,0,0,0-.38,1.77c-.22,1.87-.3,3.76-.5,5.63a32.87,32.87,0,0,0,.15,6.73,33.7,33.7,0,0,0,2.91,10.32c.58,1.29,1.26,2.52,1.82,3.82l0,0a.79.79,0,0,1-.57-.27,32.63,32.63,0,0,1-6.75-8.32,22.54,22.54,0,0,1-2.77-9.18A44.48,44.48,0,0,1,29,86.56c.11-1.3.48-2.56.51-3.87.06-.09.17-.17.18-.26A19.41,19.41,0,0,1,30.37,79c.28-1,.58-2.07.86-3.09a.3.3,0,0,0-.36,0A14,14,0,0,1,24,79.54a23.6,23.6,0,0,1-3.11.39,29.7,29.7,0,0,1-6.18.07,43.62,43.62,0,0,1-4.42-.35A5.14,5.14,0,0,1,8.44,78.6,13.9,13.9,0,0,1,6,76.83c.28-.28.45-.06.63,0a12.54,12.54,0,0,0,6,.69,18.58,18.58,0,0,0,9.07-4.11,41.55,41.55,0,0,0,7.57-8.32c2.47-3.39,4.81-6.87,7.37-10.19a53.16,53.16,0,0,1,6.48-7,34.93,34.93,0,0,1,8.75-5.79,34.21,34.21,0,0,1,6.65-2.3,3.55,3.55,0,0,1,.65,0c0,.56-.49.85-.88,1.15-.68.53-.69.51-.33,1.21a1.14,1.14,0,0,0,.61.7A3.07,3.07,0,0,0,60,44.6a6,6,0,0,1,2.16,2.76c.08.21.17.39.44.39a14.67,14.67,0,0,0,1,3.61,24.06,24.06,0,0,0,.54-3.06,5.32,5.32,0,0,0,.22-1.82,1.46,1.46,0,0,0,.42-.95,2.29,2.29,0,0,1,.55-1.15,5.1,5.1,0,0,0,1.4-3.06c0-.18,0-.35,0-.53,0-.58,0-1-.76-1.13a1.81,1.81,0,0,1-1.2-1c1.6,0,3.2,0,4.8,0a29.71,29.71,0,0,1,10.7,2.1,39.14,39.14,0,0,1,10.79,6.39c2.4,1.93,4.67,4,7,6.07a62.06,62.06,0,0,0,9,7.33A29.85,29.85,0,0,0,117.72,65a7.73,7.73,0,0,0,1.08.07,1.43,1.43,0,0,1,1.18.43,12.59,12.59,0,0,1-7.27,3,41.13,41.13,0,0,1-5,.29c-.61,0-1.22-.47-1.92,0A11.94,11.94,0,0,0,110,73.65,1.29,1.29,0,0,0,110.82,73.94ZM97.3,76.36v0c0,.4.35.67.46,1a2,2,0,0,0,.63,1.13l0,0,0,0a1.91,1.91,0,0,0-.34-1.33,3.68,3.68,0,0,0-.41-1.15c-.18-.2-.34-.18-.51,0a.37.37,0,0,0-.07.14.17.17,0,0,1,.08-.13c.42,0,.41-.23.36-.52a.31.31,0,0,0-.14-.39c-.51-1.85-1-3.7-1.52-5.55a6.15,6.15,0,0,0-.09-.75A27,27,0,0,1,95,60.69s-.08-.11-.15-.2a15.44,15.44,0,0,1-3.45.71l-2.83-2.69C86.76,56.64,85.3,54.4,83,53a2.41,2.41,0,0,0,.23,1.1,26.64,26.64,0,0,1,.94,4.23A9.55,9.55,0,0,1,83.78,63a14.27,14.27,0,0,1-1.31,2.24c-.17.14-.23.31,0,.38.45.12.92.18,1.38.29A18.06,18.06,0,0,1,95.15,73.1c.61.85,1.18,1.74,1.76,2.61l.15.51ZM76.37,92.48a4.44,4.44,0,0,0,3.89,3,4.27,4.27,0,0,0,4.18-2.08,3.3,3.3,0,0,0,1-2.26,5.65,5.65,0,0,0-.63-3.67,4.66,4.66,0,0,0-6.51-1.91,5.13,5.13,0,0,0-2.55,4.5A3.2,3.2,0,0,0,76.37,92.48ZM66.8,60.85a1.43,1.43,0,0,0-.92.37,21,21,0,0,1-2.71,1.6,6.6,6.6,0,0,1-6.43-.06c-.6-.34-1.15-.74-1.71-1.13s-.67-.25-.8.22a9.67,9.67,0,0,0-.52,3.73,4.32,4.32,0,0,0,1.36,2.66c.41.4.63.36.84-.21A2.37,2.37,0,0,1,57.7,66.6a9.27,9.27,0,0,1,4.06.09,11.61,11.61,0,0,1,5,2.09c.25.17.51.41.92.22A30,30,0,0,1,66.8,60.85Zm11.77-.65c-.12,0-.18,0-.19.08a.22.22,0,0,0,.1.28c.12.06.22,0,.21-.12S78.6,60.26,78.57,60.2Z"/><path class="cls-2" d="M89.74,87.85a.59.59,0,0,1,.37.51.79.79,0,0,0-.22.48C89.47,91.22,89,93.59,88.6,96a28.2,28.2,0,0,0-.67,3.51,13.51,13.51,0,0,0-.75,1.91,15.2,15.2,0,0,1-5.25,6.76,30,30,0,0,1-11.11,5,8.72,8.72,0,0,1-3.14,0,44.07,44.07,0,0,1-7.93-1.68,22.3,22.3,0,0,1-7.19-3.93,9.38,9.38,0,0,1-2.32-3.37,11.24,11.24,0,0,0-.69-1.22,2.76,2.76,0,0,0-.26-1.36c-.71-1.89-1.44-3.76-2.14-5.65a15.43,15.43,0,0,1-1.09-3A2,2,0,0,1,48,94a19,19,0,0,0,1.3,1.69,12.5,12.5,0,0,0,2.51,2,6.2,6.2,0,0,0,5,1.05c2.54-.52,3.87-2,4-4.9a12.09,12.09,0,0,0-1-5.16,3.83,3.83,0,0,1-.3-1.36.23.23,0,0,1-.1-.35c0-.06.19-.06.29-.07a2.23,2.23,0,0,1,.34.06,7.28,7.28,0,0,0-2.87-1.27.4.4,0,0,1,.43-.4A2.44,2.44,0,0,0,58.79,85a5.13,5.13,0,0,0-3.63-.6,13.22,13.22,0,0,0-3,1.43l-1.36-.14c.71,1,.71,1-.19,1.67a1.69,1.69,0,0,0-.25.2c-.82.95-1.74,1.6-3.11,1,.27.39.54.68.78,1a.62.62,0,0,1,.15.68c-.61,1.71-.64,1.76-2.43,2.38a1.51,1.51,0,0,0-.28.15c.2-2.06.27-4.14.46-6.21a13,13,0,0,1,.62-3.79,1.26,1.26,0,0,0,.43-.87,3.89,3.89,0,0,0,1.46-.67,17.21,17.21,0,0,1,5.15-1.87A7.29,7.29,0,0,0,55.46,79a44.92,44.92,0,0,0,4.45,4.6,25.32,25.32,0,0,0,5.49,3.47,32.37,32.37,0,0,0,7.52,2.11,4,4,0,0,0,1.64,0c-.61-.85-1.39-1.35-1.89-2.11a8.33,8.33,0,0,1,1.72.15c.56.14.72.4.68.91a11.11,11.11,0,0,0,.48,4c.53,1.77,1.42,3.26,3.38,3.78,2.9.76,5.68-.22,7-3,.24-.51.35-1.13.93-1.42a3.22,3.22,0,0,0,1.1-2A2,2,0,0,1,89.74,87.85ZM64.6,101.46c-.44-.06-.9-.14-1,.43a4.51,4.51,0,0,0,.15,3.51,3.88,3.88,0,0,0,3.06,3.23,9.64,9.64,0,0,0,3.43,0,4.77,4.77,0,0,0,4.19-4.85,7,7,0,0,0-.47-2.71.7.7,0,0,0-1-.49c-.23-.32-.57-.27-.88-.27-.76,0-1.52,0-2.27,0a24.5,24.5,0,0,0-4.27.49C65.15,100.89,64.66,100.91,64.6,101.46Z"/><path class="cls-3" d="M38.88,111.24c-.56-1.3-1.24-2.53-1.82-3.82A33.7,33.7,0,0,1,34.15,97.1,32.87,32.87,0,0,1,34,90.37c.2-1.87.28-3.76.5-5.63A10.52,10.52,0,0,1,34.88,83c0,1.19,0,2.37-.06,3.56-.08,1,.09,2,.09,2.93a40,40,0,0,0,1.35,10.21,22.89,22.89,0,0,0,5.18,9.46,26.35,26.35,0,0,0,3.8,3.59,3.76,3.76,0,0,0,1.21.71c-.16-1.2-.3-2.3-.45-3.39-.33-2.44-.64-4.88-.84-7.34-.17-2-.15-4-.18-6,0-1.09.24-2.16.29-3.25a3.13,3.13,0,0,1,.26-.82c.08,0,.14,0,.14.13,0,1.67-.12,3.35,0,5a13.43,13.43,0,0,0,.37,3.22c.54,4.83,1.61,9.49,4.34,13.61a10.7,10.7,0,0,0,4,3.9,1.93,1.93,0,0,1,.39.37,2.7,2.7,0,0,0,.81.84l1.47,1.06c.3.21.06.26-.09.33a25.64,25.64,0,0,1-6.23-.73.85.85,0,0,1-.56-.27c-.24-.16-.48-.33-.73-.48a36.74,36.74,0,0,1-6.27-4.28c-.64-.55-1.29-1.08-1.93-1.61l-.15.17,3.92,4a11.22,11.22,0,0,1-2.91-.8,24.39,24.39,0,0,1-4.47-2,2.1,2.1,0,0,1-.93-.71l-.26-.17,0,0c-.13-.53-.59-.82-.93-1.18a26.89,26.89,0,0,1-6.48-10.55c-.08-.23-.08-.52-.41-.66a43.29,43.29,0,0,0,2.64,8.39,11.17,11.17,0,0,1-3.12-1.21,20.27,20.27,0,0,1-6.64-4.62,6.38,6.38,0,0,1-1.7-5.59,35.11,35.11,0,0,1,2.75-8.43c.41-.93.85-1.84,1.28-2.76a1.7,1.7,0,0,1,.62-.87c.06,1.73,0,3.46.16,5.2a23.54,23.54,0,0,0,1.18,5.27,1.69,1.69,0,0,0,.57,1,.32.32,0,0,0,.25-.36c0-1.63.26-3.24.43-4.85a51.14,51.14,0,0,1,1.37-7.67,7.26,7.26,0,0,1,1.05-2.71c0,1.31-.4,2.57-.51,3.87a44.48,44.48,0,0,0-.22,6.93,22.54,22.54,0,0,0,2.77,9.18A32.63,32.63,0,0,0,38.29,111a.79.79,0,0,0,.57.27l.11.09ZM28.56,101.08l0-.09a1.42,1.42,0,0,0-.05.16.32.32,0,0,0,0,.09C28.53,101.18,28.54,101.13,28.56,101.08Z"/><path class="cls-3" d="M111.28,116.9a2.52,2.52,0,0,1,.3-1.23,19.84,19.84,0,0,0,1.24-5.74c.3-.49.61-1,.9-1.48a18.28,18.28,0,0,0,2.53-7.12,17.3,17.3,0,0,0-1.8-9.7,53.77,53.77,0,0,0-5.54-8.82c-.34-.44-.85-.81-.92-1.44a1.6,1.6,0,0,1,.5.21,4.5,4.5,0,0,0,3.23.94,40.76,40.76,0,0,0,9.61-.87A15.42,15.42,0,0,0,131,75.06c.16-.23.27-.51.56-.64a15.56,15.56,0,0,1-3,7A32,32,0,0,1,121.2,88l-.93.65c1,1.37,2.08,2.64,2.92,4.07a17.62,17.62,0,0,1,2.51,7.67,36,36,0,0,1-.31,6.15,3,3,0,0,1-.21.58,1.44,1.44,0,0,1-.51-.81,15.9,15.9,0,0,0-4.53-6.42,17.81,17.81,0,0,0-1.83-1.28c-.38.17-.29.46-.29.69,0,1.27,0,2.55,0,3.81a27.51,27.51,0,0,1-.8,5.57A13.83,13.83,0,0,1,111.28,116.9Z"/><path class="cls-2" d="M64.82,38.67a1.81,1.81,0,0,0,1.2,1c.75.11.81.55.76,1.13,0,.18,0,.35,0,.53a3.17,3.17,0,0,0-2.6,3.35c0,.61.19,1.2.23,1.81a5.32,5.32,0,0,1-.22,1.82,24.06,24.06,0,0,1-.54,3.06,14.67,14.67,0,0,1-1-3.61c0-1,0-1.93,0-2.9a5,5,0,0,0-.4-2c-.34-.82-.68-1-1.52-.69a10.33,10.33,0,0,1-2.16.65,1.14,1.14,0,0,1-.61-.7c-.36-.7-.35-.68.33-1.21.39-.3.83-.59.88-1.15l.25,0a8.36,8.36,0,0,1,2,.15,1.49,1.49,0,0,0,.14-1.1,58.89,58.89,0,0,0-1-7.48c-.09-.46-.19-.92-.31-1.37s-.33-.42-.66-.29a.79.79,0,0,0-.51.51,6.26,6.26,0,0,0-2.76,3.36,10.48,10.48,0,0,0-.42,1.23.72.72,0,0,1-.86.63,19.35,19.35,0,0,0-2.51-.25c.81-1.16,1.8-2,2-3.23A2.94,2.94,0,0,0,55,30.38,18.18,18.18,0,0,0,56.1,28l.49-.26a21.27,21.27,0,0,0,2.13-1.08,2.12,2.12,0,0,0,1.08-2.18,9.52,9.52,0,0,0-.59-2.42c-.09-.57-.17-1.14-.29-1.71-.09-.42-.37-.49-.71-.22a2.64,2.64,0,0,0-.55.81,1.74,1.74,0,0,1-2,.68c-.43-.16-.41-.53-.44-.9s.17-.76-.21-.86-.6.33-.81.62c-.33.47-.63,1-1,1.45-.45.65-.61.69-1.36.48A7.42,7.42,0,0,1,50,21.53a.57.57,0,0,1-.21-.9,19.35,19.35,0,0,1,3.48-4.56,2.27,2.27,0,0,1,3.59.21c.1.11.15.25.25.35s.36.18.53-.06a2.38,2.38,0,0,0-.26-3,.85.85,0,0,1-.27-1.13A12.6,12.6,0,0,0,58,9.27c.06-.44.08-.86.1-1.3a3.86,3.86,0,0,1,.11-1.39c.38-.09.42.23.5.44A28.85,28.85,0,0,0,60.9,12a.49.49,0,0,1,0,.68,2.49,2.49,0,0,0-.4,2.83A4.63,4.63,0,0,0,61,16.72c.41-.07.58-.4.78-.68a6.71,6.71,0,0,1,1.7-1.66,1.83,1.83,0,0,1,2.14-.06,22.41,22.41,0,0,1,4.23,3.73.42.42,0,0,1,0,.66A4.75,4.75,0,0,1,68,20.16a1.07,1.07,0,0,1-1.35-.29,11.36,11.36,0,0,0-.85-.85,2.64,2.64,0,0,0-.41-.34c-.18-.11-.39-.28-.6-.15s-.16.39-.1.6.18.55.28.82,0,.59-.36.61c-.95.06-1.93.17-2.43-.94a.82.82,0,0,0-.2-.26c-.13-.12-.26-.27-.47-.21a.47.47,0,0,0-.34.49,14.65,14.65,0,0,0,0,2.39,16.19,16.19,0,0,1,.18,1.83,6.32,6.32,0,0,0,0,.87,1.94,1.94,0,0,0,1.88,1.9c.5.06,1,0,1.51,0l.49,0a6.61,6.61,0,0,0,1.52,2.61,1.83,1.83,0,0,0,.89,1.53,6.59,6.59,0,0,0,2.73,1.59c-.71.45-1.35.83-2,1.25a.48.48,0,0,1-.74-.11,8.3,8.3,0,0,1-.5-.71A9.54,9.54,0,0,0,64,30c-.33.14-.29.38-.3.59,0,1.55,0,3.11,0,4.66a7.79,7.79,0,0,0,.69,3A.85.85,0,0,0,64.82,38.67ZM62,30c.48,0,.62-.33.82-.51A1.52,1.52,0,0,1,65,29.19a3.87,3.87,0,0,0,.37.24c.13.06.29.09.39-.05s0-.27-.07-.39a6.33,6.33,0,0,0-3.18-2.17c-.62-.16-.71-.1-.75.51A24.59,24.59,0,0,1,62,30Zm-6.51,2.49a2.07,2.07,0,0,0,.9-.74,10.76,10.76,0,0,1,3-2.88c.12-.08.27-.15.26-.32s-.13-.24-.27-.28a2.36,2.36,0,0,0-2.68.83A8.76,8.76,0,0,0,55.46,32.47Z"/><path class="cls-3" d="M89.08,110a7.6,7.6,0,0,0,3.78-2,28.15,28.15,0,0,0,5.24-7c.15-.25.28-.51.43-.76,0,0,.12-.07.26-.14a52.77,52.77,0,0,1-1.58,5.81c1-.65,1.1-1.71,1.84-2.25a2.46,2.46,0,0,1-.28,1.36,24.65,24.65,0,0,1-1.47,2.9,7.83,7.83,0,0,0-.83,1.55,2.94,2.94,0,0,0,1.59-.4,26,26,0,0,0,4.89-3,9.35,9.35,0,0,1-.85,2.67,28.45,28.45,0,0,1-3.79,6.65c-.21.27-.36.64-.79.68a14.29,14.29,0,0,0-2.91.29,23.44,23.44,0,0,1-12.21-1.8c-.09,0-.15-.13-.23-.21.16-.32.49-.31.74-.4a13.11,13.11,0,0,0,4.84-3A4,4,0,0,1,89.08,110Zm8-3.75c-.11.08-.27.14-.08.29l.08-.29s.07,0,.09,0a.17.17,0,0,0,0-.08Z"/><path class="cls-4" d="M56.1,28A18.18,18.18,0,0,1,55,30.38a4.65,4.65,0,0,0-.75.07c-2.91.73-5.81,1.46-8.66,2.43a23.47,23.47,0,0,0-8.43,4.78.87.87,0,0,1-1.25.07c-.82-.58-1.67-1.14-2.46-1.77a4.21,4.21,0,0,1-1.42-1.88,4.7,4.7,0,0,1,2.17.91c.26.14.5.41.94.23a8.27,8.27,0,0,1-.72-3.39,6.93,6.93,0,0,1,.72-.48A37.08,37.08,0,0,1,41,29c1.14.4,1.64,1.53,2.5,2.29-.28-1.08.31-2.08.13-3.11a41.07,41.07,0,0,1,4.57-1.33,16.74,16.74,0,0,1,3.06-.69l1.63,2.63c.21-1.18.38-2.19.56-3.2l1-.32A5,5,0,0,0,56.1,28Z"/><path class="cls-4" d="M66.77,29.29a6.61,6.61,0,0,1-1.52-2.61c.63-.38.67-1.06.86-1.66.08-.26,0-.58.29-.76l1,0c.43,1.12.85,2.24,1.27,3.36.39-1.2,1-2.25,1.36-3.36a59.34,59.34,0,0,1,7.18.23,11.57,11.57,0,0,1,1,3.35c.36-.71.64-1.19.84-1.71s.85-.79,1-1.4a28.07,28.07,0,0,1,4.48.51,11.9,11.9,0,0,1,3.43.85c-.23,1.07-.45,2.13-.68,3.2.23,0,.31-.11.43-.18a11.25,11.25,0,0,1,2.15-1.38,10.6,10.6,0,0,1-2,2.7,1.48,1.48,0,0,1-1.54.56c-1.64-.26-3.29-.48-4.93-.71-2.65-.39-5.32-.59-8-.75C71.26,29.44,69,29.34,66.77,29.29Z"/><path class="cls-5" d="M29.5,82.69a7.26,7.26,0,0,0-1.05,2.71,51.14,51.14,0,0,0-1.37,7.67c-.17,1.61-.41,3.22-.43,4.85a.32.32,0,0,1-.25.36,1.69,1.69,0,0,1-.57-1A23.54,23.54,0,0,1,24.65,92c-.18-1.74-.1-3.47-.16-5.2a4.13,4.13,0,0,1,.69-1.47,5,5,0,0,0,.72-1.58c-1,0-1.95,0-2.88,0a22.2,22.2,0,0,1-8.93-2C13,81.27,12,80.71,11,80.19c-.26-.13-.54-.24-.66-.54a43.62,43.62,0,0,0,4.42.35,29.7,29.7,0,0,0,6.18-.07A23.6,23.6,0,0,0,24,79.54,14,14,0,0,0,30.87,76a.3.3,0,0,1,.36,0c-.28,1-.58,2-.86,3.09a19.41,19.41,0,0,0-.69,3.39C29.67,82.52,29.56,82.6,29.5,82.69Z"/><path class="cls-6" d="M66.77,29.29c2.25.05,4.49.15,6.73.28,2.66.16,5.33.36,8,.75,1.64.23,3.29.45,4.93.71A1.48,1.48,0,0,0,88,30.47a10.6,10.6,0,0,0,2-2.7,1.8,1.8,0,0,0,.68-.48,4.9,4.9,0,0,1,2.58,3.16c-.14.91-.9,1.35-1.53,1.85a19.82,19.82,0,0,1-5.83,3,7.9,7.9,0,0,1-2.9.77,3.29,3.29,0,0,0-.22-1.78c.26-.29.55-.57.79-.89.41-.56.35-.89-.23-1.26a4.31,4.31,0,0,0-1.2-.48,20.59,20.59,0,0,0-4-.6,97.91,97.91,0,0,0-10.42-.25A1.83,1.83,0,0,1,66.77,29.29Z"/><path class="cls-6" d="M32.06,34.08A4.21,4.21,0,0,0,33.48,36c.79.63,1.64,1.19,2.46,1.77a.87.87,0,0,0,1.25-.07,23.47,23.47,0,0,1,8.43-4.78c2.85-1,5.75-1.7,8.66-2.43a4.65,4.65,0,0,1,.75-.07,2.94,2.94,0,0,1-.46,1.52,42.12,42.12,0,0,0-14.2,4.81c-.83.47-.83.47-.61,1.29a2.17,2.17,0,0,0,.4,1.5c.16.31.45.55.48.93a26.21,26.21,0,0,1-8.59-1.57,4.71,4.71,0,0,1-2.55-1.74,6.26,6.26,0,0,1,2.16-3.26Z"/><path class="cls-4" d="M31.45,31.08A8.82,8.82,0,0,1,34,29.34a41.52,41.52,0,0,1,5.27-2.25c2.88-1.07,5.82-1.92,8.79-2.71,1.63-.43,3.29-.78,4.95-1.14,1.06-.23,1.31.05,1.28,1.31a4.81,4.81,0,0,0-.53.07c-3.6.83-7.18,1.74-10.71,2.84a42.37,42.37,0,0,0-9.42,3.9c-.74.45-1.46.93-2.19,1.4Z"/><path class="cls-7" d="M107.75,68.78a41.13,41.13,0,0,0,5-.29,12.59,12.59,0,0,0,7.27-3c.37-.17.74-.69,1.14-.29s-.09.8-.28,1.15a11.3,11.3,0,0,1-3.06,3.32,25.43,25.43,0,0,1-4.36,2.79,2.94,2.94,0,0,0-1.12-.65,25.86,25.86,0,0,1-4-2.29C108.08,69.3,107.78,69.16,107.75,68.78Z"/><path class="cls-4" d="M66.37,23.23c0-.22,0-.43,0-.65,0-.52.22-.72.72-.7a33.81,33.81,0,0,1,5.32.19,3.19,3.19,0,0,0,.76,0,65.5,65.5,0,0,1,9.16.82,34.49,34.49,0,0,1,7,1.57c.59.22,1.28.29,1.7.87a.85.85,0,0,1-.24.75,24.27,24.27,0,0,0-2.86-1,54.06,54.06,0,0,0-8.48-1.26c-1.45-.12-2.89-.23-4.34-.31C72.17,23.39,69.27,23.15,66.37,23.23Z"/><path class="cls-8" d="M66.37,23.23c2.9-.08,5.8.16,8.69.3,1.45.08,2.89.19,4.34.31a54.06,54.06,0,0,1,8.48,1.26,24.27,24.27,0,0,1,2.86,1,9,9,0,0,1,3.07,2.53,1.86,1.86,0,0,1-.64,1.8,4.9,4.9,0,0,0-2.58-3.15A6,6,0,0,0,88,26.13a11.9,11.9,0,0,0-3.43-.85,28.07,28.07,0,0,0-4.48-.51,22.82,22.82,0,0,0-2.86-.24,59.34,59.34,0,0,0-7.18-.23H67.43l-1,0A3,3,0,0,1,66.37,23.23Z"/><path class="cls-8" d="M31.47,32.76c.73-.47,1.45-.95,2.19-1.4a42.37,42.37,0,0,1,9.42-3.9c3.53-1.1,7.11-2,10.71-2.84a4.81,4.81,0,0,1,.53-.07,1.44,1.44,0,0,0,.2.76l-1,.32a8.84,8.84,0,0,0-2.19.57,16.74,16.74,0,0,0-3.06.69,41.07,41.07,0,0,0-4.57,1.33L41,29a37.08,37.08,0,0,0-5.87,2.31,6.93,6.93,0,0,0-.72.48,8.12,8.12,0,0,0-2.79,2,6.26,6.26,0,0,0-2.16,3.26,1.68,1.68,0,0,1-.76-1.66Z"/><path class="cls-5" d="M57,121.11c.15-.07.39-.12.09-.33l-1.47-1.06a2.7,2.7,0,0,1-.81-.84c.65.05,1.27.2,1.93.24a6.32,6.32,0,0,0,4.52-1.79l.39-.38c.26-.26.49-.2.75,0a3.56,3.56,0,0,1,1.06,1.62,1.58,1.58,0,0,1-1,2,5,5,0,0,1-2.1.48c-.83,0-1.64.33-2.48.22C57.53,121.24,57.23,121.32,57,121.11Z"/><path class="cls-4" d="M87.93,99.48A28.2,28.2,0,0,1,88.6,96c.41-2.38.87-4.75,1.29-7.13a.79.79,0,0,1,.22-.48,30.07,30.07,0,0,1,1.09,5c.14,1,.29,1.92.43,2.88a31.22,31.22,0,0,0-2.48,2.4A4.09,4.09,0,0,1,87.93,99.48Z"/><path class="cls-4" d="M46.06,101a13.43,13.43,0,0,1-.37-3.22c-.14-1.65,0-3.33,0-5l.4.15a15.43,15.43,0,0,0,1.09,3c.7,1.89,1.43,3.76,2.14,5.65a2.76,2.76,0,0,1,.26,1.36A13.82,13.82,0,0,1,46.06,101Z"/><path class="cls-9" d="M89.54,127.07l2.1-.21a.25.25,0,0,0,.29-.09c1.25-.34,1.32-.52.78-2.17a12.45,12.45,0,0,0,8.79,1.58,9.19,9.19,0,0,1-4.14,1.42A20.82,20.82,0,0,1,89.54,127.07Z"/><path class="cls-3" d="M107.75,68.78c0,.38.33.52.6.72a25.86,25.86,0,0,0,4,2.29,2.94,2.94,0,0,1,1.12.65c-.77.66-1.82.86-2.6,1.5a1.29,1.29,0,0,1-.8-.29,11.94,11.94,0,0,1-4.19-4.92C106.53,68.31,107.14,68.74,107.75,68.78Z"/><path class="cls-6" d="M59.09,30.16a.79.79,0,0,1,.51-.51c.33-.13.57-.09.66.29s.22.91.31,1.37a58.89,58.89,0,0,1,1,7.48,1.49,1.49,0,0,1-.14,1.1,8.36,8.36,0,0,0-2-.15,24.62,24.62,0,0,0-.14-8.39C59.2,31,59.14,30.56,59.09,30.16Z"/><path class="cls-9" d="M31.3,110.31a43.29,43.29,0,0,1-2.64-8.39c.33.14.33.43.41.66a26.89,26.89,0,0,0,6.48,10.55c.34.36.8.65.93,1.18a23.63,23.63,0,0,1-4-2.94Z"/><path class="cls-4" d="M40.64,40.43c0-.38-.32-.62-.48-.93a2.17,2.17,0,0,1-.4-1.5c3,1.36,6.14,1.79,9.31,2.48,0,.19-.2.13-.31.14a1.69,1.69,0,0,1-.32,0c-2.21,0-4.42,0-6.63,0A2.34,2.34,0,0,1,40.64,40.43Z"/><path class="cls-4" d="M82.69,34.3a3.29,3.29,0,0,1,.22,1.78,2.09,2.09,0,0,1-1.17.53c-1.89.48-3.79.93-5.68,1.37a3.82,3.82,0,0,1-.71,0,4.76,4.76,0,0,1,1.51-.83,26.53,26.53,0,0,0,5.33-2.66A2.75,2.75,0,0,1,82.69,34.3Z"/><path class="cls-9" d="M45,117.94l-3.92-4,.15-.17c.64.53,1.29,1.06,1.93,1.61a36.74,36.74,0,0,0,6.27,4.28c.25.15.49.32.73.48a15.48,15.48,0,0,1-4.2-1.69C45.68,118.25,45.35,118.1,45,117.94Z"/><path class="cls-8" d="M59.21,22.05a9.52,9.52,0,0,1,.59,2.42,2.12,2.12,0,0,1-1.08,2.18,21.27,21.27,0,0,1-2.13,1.08,4.7,4.7,0,0,1,1.48-2.23,3.39,3.39,0,0,0,1.11-3A2.22,2.22,0,0,1,59.21,22.05Z"/><path class="cls-6" d="M31.47,32.76l-2.73,2.7a2.29,2.29,0,0,1,.32-2,5.51,5.51,0,0,1,2.39-2.41C31.46,31.64,31.46,32.2,31.47,32.76Z"/><path class="cls-6" d="M64.76,26.65c-.5,0-1,0-1.51,0a1.94,1.94,0,0,1-1.88-1.9,6.32,6.32,0,0,1,0-.87.79.79,0,0,1,.52.09,17.84,17.84,0,0,1,2.75,2.3C64.71,26.34,64.72,26.51,64.76,26.65Z"/><path class="cls-6" d="M93.81,28.64a9,9,0,0,0-3.07-2.53.85.85,0,0,0,.24-.75A3.38,3.38,0,0,1,93.81,28.64Z"/><path class="cls-9" d="M36.46,114.29l.26.17Z"/><path class="cls-7" d="M108,81.37c.07.63.58,1,.92,1.44a53.77,53.77,0,0,1,5.54,8.82,17.3,17.3,0,0,1,1.8,9.7,18.28,18.28,0,0,1-2.53,7.12c-.29.5-.6,1-.9,1.48a9.55,9.55,0,0,0-2.54.51,8.08,8.08,0,0,1-4.36-.58,24.54,24.54,0,0,0,2.69-1,6.67,6.67,0,0,0,3.73-5.94,21,21,0,0,0-1-7.15,85.39,85.39,0,0,0-4.44-11.89l-1.53-3.48c0-.13-.15-.26,0-.47a9,9,0,0,1,2.42,1.22l.23.23Z"/><path class="cls-2" d="M74.83,73.1a18,18,0,0,1,3.08,2.63,15.64,15.64,0,0,0-2.69,1.17c.06.09.08.14.1.14,1.19,0,2.26-.61,3.44-.67a1.54,1.54,0,0,1,.93.25,25.23,25.23,0,0,0,4.59,2.22c.06,0,.11.09.16.14,1.09,1.48,2.14,3,3.27,4.42.5.65.78,1.48,1.54,1.92v0a.52.52,0,0,0,.18.43,3.86,3.86,0,0,1,.45,1.79,6.89,6.89,0,0,1-1.27-.22c-1-.19-1.31-1-1.73-1.69-.27-.42.4-.86.63-1.29a.8.8,0,0,0,0-.26,2.52,2.52,0,0,1-3.2-.27,1.32,1.32,0,0,0-.29-.15c-.7-.34-.7-.34-.42-1.09,0-.12.15-.24,0-.37l-1.32.73A8.3,8.3,0,0,0,78,82.27a2.7,2.7,0,0,0-2.47,1.46c.62-.11,1.1-.19,1.58-.29a1.09,1.09,0,0,1,1,.08,15.85,15.85,0,0,0-3.19,1.66,37.23,37.23,0,0,1-4.09-8.82c-.17-.51-.36-1-.53-1.53.35-.32.2-.74.21-1.12a4.66,4.66,0,0,1,.36-2A18.82,18.82,0,0,0,74.83,73.1Z"/><path class="cls-10" d="M96.91,75.71c-.58-.87-1.15-1.76-1.76-2.61a18.06,18.06,0,0,0-11.27-7.18c-.46-.11-.93-.17-1.38-.29-.26-.07-.2-.24,0-.38a3.72,3.72,0,0,0,1.22-.44C85.88,64,88,63,90.13,62c.74-.34.72-.39.21-1s-1.1-1.24-1.64-1.87c-.16-.17-.43-.34-.12-.61l2.83,2.69c.21.37.61.06.91.27-.34.32-.26.68-.09,1.06.57,1.25,1.09,2.52,1.68,3.76a18.07,18.07,0,0,0,1.93,3.36c.51,1.85,1,3.7,1.52,5.55l.14.39c0,.29.06.55-.36.52Z"/><path class="cls-11" d="M66.8,60.85A30,30,0,0,0,67.64,69c-.41.19-.67,0-.92-.22a11.61,11.61,0,0,0-5-2.09,9.27,9.27,0,0,0-4.06-.09A2.37,2.37,0,0,0,55.91,68c-.21.57-.43.61-.84.21a4.32,4.32,0,0,1-1.36-2.66,9.67,9.67,0,0,1,.52-3.73c.13-.47.38-.51.8-.22s1.11.79,1.71,1.13a6.6,6.6,0,0,0,6.43.06,21,21,0,0,0,2.71-1.6A1.43,1.43,0,0,1,66.8,60.85Z"/><path class="cls-5" d="M103,106a26,26,0,0,1-4.89,3,2.94,2.94,0,0,1-1.59.4,7.83,7.83,0,0,1,.83-1.55,24.65,24.65,0,0,0,1.47-2.9,2.46,2.46,0,0,0,.28-1.36h0c.2-.13.24-.26,0-.41a20,20,0,0,0,2-5.39,14.44,14.44,0,0,0,.27-4.6A24.23,24.23,0,0,0,99.81,87a2.21,2.21,0,0,1-.11-.85h0a13.93,13.93,0,0,1,1.7,3.49,27.41,27.41,0,0,1,2.15,8.12A19.38,19.38,0,0,1,103,106Z"/><path class="cls-12" d="M72.67,87.05c.5.76,1.28,1.26,1.89,2.11a4,4,0,0,1-1.64,0,32.37,32.37,0,0,1-7.52-2.11,25.32,25.32,0,0,1-5.49-3.47A44.92,44.92,0,0,1,55.46,79c-.26-.49-.46-1-1.14-1.12,0-.14,0-.32,0-.42-.65-1-1.32-2-2-3-.28-.42-.55-.21-.78.06-.45.53-.85,1.08-1.31,1.59-.63.69-1.05,1.55-1.75,2.19A4.39,4.39,0,0,1,49,76.61c.77-1.75,1.55-3.49,2.32-5.23.21-.11.34-.71.65-.07s.57,1.06.85,1.59c.15.27.25.6.63.66A7.75,7.75,0,0,0,55,76.29a25.57,25.57,0,0,0,5.49,6.06,15.59,15.59,0,0,0,4.38,2.53,16.37,16.37,0,0,0,5.92,1.73Z"/><path class="cls-9" d="M88.58,58.51c-.31.27,0,.44.12.61.54.63,1.09,1.25,1.64,1.87s.53.64-.21,1c-2.13,1-4.25,2-6.44,2.84a3.72,3.72,0,0,1-1.22.44A14.27,14.27,0,0,0,83.78,63a9.55,9.55,0,0,0,.37-4.71,26.64,26.64,0,0,0-.94-4.23A2.41,2.41,0,0,1,83,53C85.3,54.4,86.76,56.64,88.58,58.51Z"/><path class="cls-11" d="M69.82,61.57c.09-.06.2-.17.27-.16,1.71.41,3-.38,4.24-1.42a6.07,6.07,0,0,0,1-1.1c.35-.46.61-.32.84,0,.45.7.87,1.42,1.29,2.13a34.23,34.23,0,0,1,2.73,5.53c-.35.23-.5,0-.66-.21A9.72,9.72,0,0,0,77.78,65a6,6,0,0,0-5.73-.28,2.51,2.51,0,0,1-1.13.33A20.27,20.27,0,0,1,69.82,61.57Z"/><path class="cls-13" d="M46.06,92.93l-.39-.15c0-.1-.06-.13-.14-.13l-.07,0h0a1.51,1.51,0,0,1,.28-.15c1.79-.62,1.82-.67,2.43-2.38a.62.62,0,0,0-.15-.68c-.24-.3-.51-.59-.78-1,1.37.61,2.29,0,3.11-1a1.69,1.69,0,0,1,.25-.2c.9-.69.9-.69.19-1.67l1.36.14a1.41,1.41,0,0,0,1.15.11,7.86,7.86,0,0,1,3.94-.18A7.28,7.28,0,0,1,60.08,87a2.23,2.23,0,0,0-.34-.06c-.1,0-.25,0-.29.07a.23.23,0,0,0,.1.35c-.38.41-.74,0-1.09-.07a7.41,7.41,0,0,0-8.65,3.29,5.09,5.09,0,0,0-.75,4c.08.36.4.68.25,1.09A19,19,0,0,1,48,94,2,2,0,0,0,46.06,92.93Z"/><path class="cls-13" d="M82.27,82.91l1.32-.73c.14.13,0,.25,0,.37-.28.75-.28.75.42,1.09a1.32,1.32,0,0,1,.29.15,2.52,2.52,0,0,0,3.2.27.8.8,0,0,1,0,.26c-.23.43-.9.87-.63,1.29.42.65.77,1.5,1.73,1.69a6.89,6.89,0,0,0,1.27.22l-.13.33A2,2,0,0,0,88,89.42a3.22,3.22,0,0,1-1.1,2c1.09-4.42-3.27-7.59-7-6.9a8.44,8.44,0,0,0-3.28,1.39,2.47,2.47,0,0,1-.82.51,5.45,5.45,0,0,1-.86-1.23,15.85,15.85,0,0,1,3.19-1.66,10.23,10.23,0,0,1,3.81-.44A.4.4,0,0,0,82.27,82.91Z"/><path class="cls-7" d="M69.82,61.57A20.27,20.27,0,0,0,70.92,65a33.49,33.49,0,0,0,1.64,4.35,4.9,4.9,0,0,1,.55,1.75,15.76,15.76,0,0,1-2.42-2.41c-.7-.81-1.43-1.58-2.15-2.37-.31-1.63-.48-3.28-.7-4.92-.25-1.91,0-3.84-.36-5.74a15.07,15.07,0,0,1,0-2.35,3.2,3.2,0,0,1,.42,1.12A58.22,58.22,0,0,0,69.82,61.57Z"/><path class="cls-5" d="M53.46,73.56c-.38-.06-.48-.39-.63-.66-.28-.53-.59-1.05-.85-1.59s-.44,0-.65.07a37.85,37.85,0,0,1-.69-4.74.47.47,0,0,0-.43-.52h0a5.53,5.53,0,0,0,.09-2.56,12.89,12.89,0,0,1,0-3.67,22.76,22.76,0,0,1,.6-3.93,15.92,15.92,0,0,1,2-5.1h0a3.29,3.29,0,0,1-.32,1.48,24.09,24.09,0,0,0-1.24,7.45,44.44,44.44,0,0,0,2,12.71A2.22,2.22,0,0,1,53.46,73.56Z"/><path class="cls-14" d="M85.48,91.16a3.3,3.3,0,0,1-1,2.26c-.84-1.75-1.44-2.06-3.09-1.57a3.16,3.16,0,0,0,.29-1.69c-.16-1.31-.94-1.81-2.27-1.43l-.18-.17c-.48-.31-1.08-.41-1.47-.88a.66.66,0,0,1,.06-1A5.26,5.26,0,0,1,81.93,86c.56.28.65.68.35,1.26-.22.42-.7.6-1,1.08A7.83,7.83,0,0,1,85.3,91,.75.75,0,0,0,85.48,91.16Z"/><path class="cls-13" d="M85.48,91.16A.75.75,0,0,1,85.3,91a7.83,7.83,0,0,0-4.07-2.66c.35-.48.83-.66,1-1.08.3-.58.21-1-.35-1.26a5.26,5.26,0,0,0-4.15.61.66.66,0,0,0-.06,1c.39.47,1,.57,1.47.88a22,22,0,0,0-3.4,1.52,5.13,5.13,0,0,1,2.55-4.5,4.66,4.66,0,0,1,6.51,1.91A5.65,5.65,0,0,1,85.48,91.16Z"/><path class="cls-3" d="M84.92,79a22.75,22.75,0,0,0-2-9.16,62.73,62.73,0,0,0-3.54-7.57,2.72,2.72,0,0,1-.19-.5l.19-.18a75.43,75.43,0,0,1,4,7.45A77.32,77.32,0,0,1,87,78.27a3.75,3.75,0,0,1,.31,1.37A6.48,6.48,0,0,1,84.92,79Z"/><path class="cls-9" d="M95.84,69.65a18.07,18.07,0,0,1-1.93-3.36c-.59-1.24-1.11-2.51-1.68-3.76-.17-.38-.25-.74.09-1.06-.3-.21-.7.1-.91-.27a15.44,15.44,0,0,0,3.45-.71c.07.09.15.15.15.2a27,27,0,0,0,.74,8.21A6.15,6.15,0,0,1,95.84,69.65Z"/><path class="cls-12" d="M68.54,66.36c.72.79,1.45,1.56,2.15,2.37a15.76,15.76,0,0,0,2.42,2.41h0l.21.24c.38.68,1.12,1,1.51,1.73a18.82,18.82,0,0,1-4-1.39,4.66,4.66,0,0,0-.36,2c0,.38.14.8-.21,1.12-.66-2.51-1.26-5-1.69-7.61A8.11,8.11,0,0,1,68.54,66.36Z"/><path class="cls-3" d="M70.74,86.61a16.37,16.37,0,0,1-5.92-1.73,67,67,0,0,1-4-6.1,1.39,1.39,0,0,1-.32-.89h0a8.46,8.46,0,0,1,1.47,1.58,31.56,31.56,0,0,0,8.31,6.72A2.8,2.8,0,0,1,70.74,86.61Z"/><path class="cls-3" d="M81.35,91.85c1.65-.49,2.25-.18,3.09,1.57a4.27,4.27,0,0,1-4.18,2.08,5.67,5.67,0,0,1,.38-2.79s-.09-.16-.13-.25Z"/><path class="cls-6" d="M58.55,42.82a10.33,10.33,0,0,0,2.16-.65c.84-.27,1.18-.13,1.52.69a5,5,0,0,1,.4,2c0,1,0,1.94,0,2.9-.27,0-.36-.18-.44-.39A6,6,0,0,0,60,44.6,3.07,3.07,0,0,1,58.55,42.82Z"/><path class="cls-9" d="M80.51,92.46c0,.09.16.21.13.25a5.67,5.67,0,0,0-.38,2.79,4.44,4.44,0,0,1-3.89-3c.52-1.08,1.09-1.28,2.44-.88C79.26,92.11,79.65,92.74,80.51,92.46Z"/><path class="cls-5" d="M46.94,81.82a1.26,1.26,0,0,1-.43.87,39.71,39.71,0,0,1,2.16-13.06A11.74,11.74,0,0,1,50,66.57h0a3.12,3.12,0,0,1-.12,1,73.65,73.65,0,0,0-1.95,8A38.44,38.44,0,0,0,47.15,81c-.23.17-.2.41-.21.65Z"/><path class="cls-12" d="M84.92,79a6.48,6.48,0,0,0,2.36.64,6.21,6.21,0,0,1,.92,2.17,13.41,13.41,0,0,1,1,3.51c-.76-.44-1-1.27-1.54-1.92C86.58,82,85.53,80.46,84.44,79Z"/><path class="cls-14" d="M78.81,91.6c-1.35-.4-1.92-.2-2.44.88a3.2,3.2,0,0,1-.58-2.4,22,22,0,0,1,3.4-1.52l.18.17A3.22,3.22,0,0,0,78.81,91.6Z"/><path class="cls-6" d="M64.39,46.48c0-.61-.18-1.2-.23-1.81a3.17,3.17,0,0,1,2.6-3.35,5.1,5.1,0,0,1-1.4,3.06,2.29,2.29,0,0,0-.55,1.15A1.46,1.46,0,0,1,64.39,46.48Z"/><path class="cls-3" d="M78.76,76.37c-1.18.06-2.25.67-3.44.67,0,0,0-.05-.1-.14a15.64,15.64,0,0,1,2.69-1.17C78.29,75.82,78.73,75.82,78.76,76.37Z"/><path class="cls-9" d="M97.64,76.07a3.68,3.68,0,0,1,.41,1.15l-.28.2c-.11-.37-.42-.64-.46-1Z"/><path class="cls-3" d="M97.77,77.42l.28-.2a1.91,1.91,0,0,1,.34,1.33h0A2,2,0,0,1,97.77,77.42Z"/><path class="cls-7" d="M79.4,61.59l-.19.18a.75.75,0,0,1-.33-.79C79.27,61,79.31,61.34,79.4,61.59Z"/><path class="cls-7" d="M78.57,60.2c0,.06.12.15.12.24s-.09.18-.21.12a.22.22,0,0,1-.1-.28C78.39,60.19,78.45,60.16,78.57,60.2Z"/><path class="cls-5" d="M52.83,50.87l.08-.27c.19.15,0,.2-.08.27Z"/><path class="cls-5" d="M50,66.57a.46.46,0,0,1,.21-.44h0a.44.44,0,0,1-.22.44Z"/><path class="cls-5" d="M99.7,86.18,99.55,86c.24-.06.1.15.15.22Z"/><path class="cls-12" d="M89.42,85.73a.52.52,0,0,1-.18-.43A.46.46,0,0,1,89.42,85.73Z"/><path class="cls-9" d="M96.91,75.71l.23.4a.17.17,0,0,0-.08.13v0Z"/><path class="cls-3" d="M99.07,103.21c.21.15.17.28,0,.41Z"/><path class="cls-9" d="M97.5,75.59l-.14-.39A.31.31,0,0,1,97.5,75.59Z"/><path class="cls-7" d="M73.32,71.37l-.21-.24Z"/><path class="cls-10" d="M97.64,76.07l-.33.31v0l-.17-.26C97.3,75.89,97.46,75.87,97.64,76.07Z"/><polygon class="cls-3" points="98.39 78.55 98.44 78.59 98.4 78.55 98.39 78.55"/><path class="cls-9" d="M97.13,76.1l.17.26-.24-.14v0A.37.37,0,0,1,97.13,76.1Z"/><path class="cls-3" d="M108,81.39l-.23-.23Z"/><path class="cls-3" d="M60.47,77.89s-.09,0-.09,0,0,0,.08,0Z"/><path class="cls-5" d="M91.93,126.77a.25.25,0,0,1-.29.09A.26.26,0,0,1,91.93,126.77Z"/><path class="cls-15" d="M74.39,103.82a4.77,4.77,0,0,1-4.19,4.85,9.64,9.64,0,0,1-3.43,0,3.88,3.88,0,0,1-3.06-3.23,5.35,5.35,0,0,1,2.81-2.86c.28-.12.65-.2.67-.62a20.56,20.56,0,0,0,3.33-.23,1.11,1.11,0,0,0,.27.17,6.32,6.32,0,0,1,3.11,1.77A.67.67,0,0,0,74.39,103.82Z"/><path class="cls-1" d="M49.31,95.69c.15-.41-.17-.73-.25-1.09a5.09,5.09,0,0,1,.75-4,7.41,7.41,0,0,1,8.65-3.29c.35.09.71.48,1.09.07a3.83,3.83,0,0,0,.3,1.36,12.09,12.09,0,0,1,1,5.16c-.14,2.88-1.47,4.38-4,4.9a6.2,6.2,0,0,1-5-1.05A12.5,12.5,0,0,1,49.31,95.69Zm2.12-1c.1.29,0,.66.31.85a8.88,8.88,0,0,0,.52.83,4.4,4.4,0,0,0,4.81,1.83,4.12,4.12,0,0,0,3.14-3.58,3.64,3.64,0,0,0,.15-2.37,5.33,5.33,0,0,0-2.08-3.65,4,4,0,0,0-6.38,1A5.41,5.41,0,0,0,51.43,94.72Z"/><path class="cls-1" d="M70.52,101.69a20.56,20.56,0,0,1-3.33.23,5.62,5.62,0,0,1-2.59-.46c.06-.55.55-.57.89-.62a24.5,24.5,0,0,1,4.27-.49c.75,0,1.51,0,2.27,0,.31,0,.65,0,.88.27C72.31,101.42,71.37,101.44,70.52,101.69Z"/><path class="cls-3" d="M46.94,81.82V81.6c.25-.13.47-.28.47-.61h0c.4.05.66-.22,1-.41a18.9,18.9,0,0,1,5.94-2.7c.68.07.88.63,1.14,1.12a7.29,7.29,0,0,1-1.91.28,17.21,17.21,0,0,0-5.15,1.87A3.89,3.89,0,0,1,46.94,81.82Z"/><path class="cls-6" d="M64.6,101.46a5.62,5.62,0,0,0,2.59.46c0,.42-.39.5-.67.62a5.35,5.35,0,0,0-2.81,2.86,4.51,4.51,0,0,1-.15-3.51C63.7,101.32,64.16,101.4,64.6,101.46Z"/><path class="cls-12" d="M57.21,85.71a7.86,7.86,0,0,0-3.94.18,1.41,1.41,0,0,1-1.15-.11,13.22,13.22,0,0,1,3-1.43,5.13,5.13,0,0,1,3.63.6,2.44,2.44,0,0,1-1.15.36A.4.4,0,0,0,57.21,85.71Z"/><path class="cls-6" d="M70.52,101.69c.85-.25,1.79-.27,2.39-1.07a.7.7,0,0,1,1,.49,7,7,0,0,1,.47,2.71.67.67,0,0,1-.49-.19,6.32,6.32,0,0,0-3.11-1.77A1.11,1.11,0,0,1,70.52,101.69Z"/><path class="cls-9" d="M28.56,101.08l0,.16a.32.32,0,0,1,0-.09,1.42,1.42,0,0,1,.05-.16Z"/><path class="cls-1" d="M38.88,111.24l.09.11-.11-.09Z"/><path class="cls-4" d="M62,30a24.59,24.59,0,0,0-.2-2.65c0-.61.13-.67.75-.51A6.33,6.33,0,0,1,65.7,29c.1.12.17.25.07.39s-.26.11-.39.05a3.87,3.87,0,0,1-.37-.24,1.52,1.52,0,0,0-2.22.28C62.59,29.65,62.45,29.94,62,30Z"/><path class="cls-4" d="M55.46,32.47a8.76,8.76,0,0,1,1.23-3.39,2.36,2.36,0,0,1,2.68-.83c.14,0,.27.11.27.28s-.14.24-.26.32a10.76,10.76,0,0,0-3,2.88A2.07,2.07,0,0,1,55.46,32.47Z"/><path class="cls-1" d="M97.09,106.23l-.08.29c-.19-.15,0-.21.08-.29Z"/><path class="cls-1" d="M97.09,106.23l.1-.11a.17.17,0,0,1,0,.08s-.06,0-.09,0Z"/><path class="cls-15" d="M31.66,33.86a8.12,8.12,0,0,1,2.79-2,8.27,8.27,0,0,0,.72,3.39c-.44.18-.68-.09-.94-.23a4.7,4.7,0,0,0-2.17-.91Z"/><path class="cls-15" d="M41,29l2.63-.82c.18,1-.41,2-.13,3.11C42.68,30.57,42.18,29.44,41,29Z"/><path class="cls-15" d="M51.3,26.2a8.84,8.84,0,0,1,2.19-.57c-.18,1-.35,2-.56,3.2Z"/><path class="cls-15" d="M88,26.13a6,6,0,0,1,2.58,1.16,1.8,1.8,0,0,1-.68.48,11.25,11.25,0,0,0-2.15,1.38c-.12.07-.2.21-.43.18C87.56,28.26,87.78,27.2,88,26.13Z"/><path class="cls-15" d="M67.43,24.3h2.63c-.4,1.11-1,2.16-1.36,3.36C68.28,26.54,67.86,25.42,67.43,24.3Z"/><path class="cls-15" d="M77.24,24.53a22.82,22.82,0,0,1,2.86.24c-.13.61-.75.86-1,1.4s-.48,1-.84,1.71A11.57,11.57,0,0,0,77.24,24.53Z"/><path class="cls-12" d="M82.27,82.91a.4.4,0,0,1-.37.17,10.23,10.23,0,0,0-3.81.44,1.09,1.09,0,0,0-1-.08c-.48.1-1,.18-1.58.29A2.7,2.7,0,0,1,78,82.27,8.3,8.3,0,0,1,82.27,82.91Z"/><path class="cls-1" d="M50,66.56a.44.44,0,0,0,.22-.44.47.47,0,0,1,.43.52,37.85,37.85,0,0,0,.69,4.74c-.77,1.74-1.55,3.48-2.32,5.23a4.39,4.39,0,0,0-.55,1.73h0l-.24.22A6.57,6.57,0,0,0,47.42,81h0l-.26,0a38.44,38.44,0,0,1,.77-5.45,73.65,73.65,0,0,1,1.95-8A3.12,3.12,0,0,0,50,66.56Z"/><path class="cls-2" d="M47.42,81a6.57,6.57,0,0,1,.81-2.44c.3.16.2-.11.24-.22h0c.7-.64,1.12-1.5,1.75-2.19.46-.51.86-1.06,1.31-1.59.23-.27.5-.48.78-.06.68,1,1.35,2,2,3,.07.1,0,.28,0,.42a18.9,18.9,0,0,0-5.94,2.7C48.08,80.77,47.82,81,47.42,81Z"/><path class="cls-1" d="M78.81,91.6a3.22,3.22,0,0,1,.56-2.87c1.33-.38,2.11.12,2.27,1.43a3.16,3.16,0,0,1-.29,1.69l-.84.61C79.65,92.74,79.26,92.11,78.81,91.6Z"/><path class="cls-2" d="M47.15,81l.26,0c0,.33-.22.48-.47.61C47,81.36,46.92,81.12,47.15,81Z"/><path class="cls-9" d="M57.07,98.23a4.4,4.4,0,0,1-4.81-1.83,8.88,8.88,0,0,1-.52-.83,10.37,10.37,0,0,0,.63-.85,2.88,2.88,0,0,1,2.16-1.35,4.05,4.05,0,0,0,.75,1,1,1,0,0,0,1.44.06,4.69,4.69,0,0,0,.47-.42v0a3.47,3.47,0,0,0-.43,3.35C56.87,97.69,57,98,57.07,98.23Z"/><path class="cls-14" d="M51.9,89.61a4,4,0,0,1,6.38-1,3.38,3.38,0,0,1-1,1.49c-.2.23-.54.38-.47.78l-.08.08c-1-.71-1.29-.67-2.14.29C53.76,90.64,52.67,90.39,51.9,89.61Z"/><path class="cls-3" d="M57.07,98.23c-.1-.27-.2-.54-.31-.8a3.47,3.47,0,0,1,.43-3.35,2.42,2.42,0,0,1,1.92-.1,6.46,6.46,0,0,1,1.1.67A4.12,4.12,0,0,1,57.07,98.23Z"/><path class="cls-14" d="M60.21,94.65a6.46,6.46,0,0,0-1.1-.67,2.42,2.42,0,0,0-1.92.1v0A3,3,0,0,0,56.75,91l.08-.08a9.37,9.37,0,0,1,3.53,1.38A3.64,3.64,0,0,1,60.21,94.65Z"/><path class="cls-10" d="M51.9,89.61c.77.78,1.86,1,2.71,1.66a.11.11,0,0,1,0,.13.25.25,0,0,0-.15.29h0a.75.75,0,0,0-.53.06,4.16,4.16,0,0,0-2.47,3A5.41,5.41,0,0,1,51.9,89.61Z"/><path class="cls-13" d="M60.36,92.28a9.37,9.37,0,0,0-3.53-1.38c-.07-.4.27-.55.47-.78a3.38,3.38,0,0,0,1-1.49A5.33,5.33,0,0,1,60.36,92.28Z"/><path class="cls-14" d="M51.43,94.72a4.16,4.16,0,0,1,2.47-3,.75.75,0,0,1,.53-.06,7.18,7.18,0,0,0,.1,1.67,2.88,2.88,0,0,0-2.16,1.35,10.37,10.37,0,0,1-.63.85C51.38,95.38,51.53,95,51.43,94.72Z"/><path class="cls-12" d="M48.47,78.33c0,.11.06.38-.24.22Z"/><path class="cls-1" d="M54.53,93.37a7.18,7.18,0,0,1-.1-1.67h0a.26.26,0,0,0,.15-.29.11.11,0,0,0,0-.13c.85-1,1.14-1,2.14-.29a3,3,0,0,1,.44,3.07,4.69,4.69,0,0,1-.47.42,1,1,0,0,1-1.44-.06A4.05,4.05,0,0,1,54.53,93.37Z"/><path class="cls-14" d="M54.57,91.4a.26.26,0,0,1-.15.29A.25.25,0,0,1,54.57,91.4Z"/><path class="cls-11" d="M177.89,106.54l-6.27-38.05-6.46,38.05H145.38L133.93,44.48h15.64l5.78,40.08,8.26-40.08h16.83l7.82,40.08,6.22-40.08h15l-11.68,62.06Z"/><path class="cls-11" d="M223.39,106.54q-10.44,0-10.45-10.85V88.55q0-11.08,10.45-11.09h16.08a6.76,6.76,0,0,1,1.47.16,7.85,7.85,0,0,1,1.24.4V74.43A2.17,2.17,0,0,0,239.71,72H214.82V58.6h30q11.44,0,11.45,11.24V95.25q0,11.3-11,11.29Zm18.79-18.15a1.45,1.45,0,0,0-1.64-1.63H228.62A1.45,1.45,0,0,0,227,88.39v3.35a1.45,1.45,0,0,0,1.64,1.64h11.92a1.45,1.45,0,0,0,1.64-1.64Z"/><path class="cls-11" d="M263.16,106.54V58.6h14.12v47.94Z"/><path class="cls-11" d="M284.5,106.54v-52a13.75,13.75,0,0,1,.77-4.81,9.66,9.66,0,0,1,2.24-3.53A9.47,9.47,0,0,1,291.06,44a14.17,14.17,0,0,1,4.72-.74H311.3V54.85H302q-3.27,0-3.27,3.27v2.11H308.9V72H298.69v34.54Z"/><path class="cls-11" d="M326.33,106.54c-4.73-.48-7.09-1.12-8.88-3s-2.56-4.42-2.56-7.84V58.6H329V89.79c0,1.75.83,2.63,2.48,2.63H341A2.18,2.18,0,0,0,343.48,90V58.6h14c.24,15.23.19,26.7,0,31.18a16.29,16.29,0,0,1-.8,4.57,17.29,17.29,0,0,1-4,6.42,20.45,20.45,0,0,1-5.35,4,25.08,25.08,0,0,1-4,1.76A87.13,87.13,0,0,1,326.33,106.54Z"/><path class="cls-11" d="M395.93,106.54v-24H378.66l.12,23.91a36.58,36.58,0,0,1-7.22-5,16.45,16.45,0,0,1-2.73-3,19.33,19.33,0,0,1-2.16-4.3c-1.11-3.19-2.15-22.76-2.13-49.63h14.12V68.41h17.27V44.48h14v62.06Z"/><path class="cls-11" d="M428.43,106.54Q417,106.54,417,95.69V58.6h14.12V89.79c0,1.75.82,2.63,2.47,2.63h9.53A2.18,2.18,0,0,0,445.58,90V58.6h14V95.33q0,11.2-10.92,11.21Z"/><path class="cls-11" d="M495.48,106.54V75.27a2.16,2.16,0,0,0-2.43-2.47h-10a2.19,2.19,0,0,0-2.48,2.47v31.27H466.48V69.84q0-11.23,11.21-11.24h20.66q11.08,0,11.09,11.32v36.62Z"/><path class="cls-11" d="M528.22,106.54q-11.69,0-11.68-10.53V45.28h14.12v13.8h11.12V72H530.66V89.63c0,1.86.71,2.79,2.15,2.79h8.89v14.12Z"/><path class="cls-16" d="M270.22,37.63a16.8,16.8,0,0,0,13,13,20.5,20.5,0,0,0-13,13,17.46,17.46,0,0,0-13-13,15,15,0,0,0,7.84-3.4A15.35,15.35,0,0,0,270.22,37.63Z"/><path class="cls-17" d="M412.89,47.87a16.83,16.83,0,0,0,13,13,20.45,20.45,0,0,0-13,13,17.47,17.47,0,0,0-13-13,15,15,0,0,0,7.84-3.4A15.31,15.31,0,0,0,412.89,47.87Z"/><line class="cls-18" x1="133.93" y1="113.74" x2="541.78" y2="113.74"/><path class="cls-17" d="M361.41,87A30.56,30.56,0,0,0,385,110.56a37.16,37.16,0,0,0-23.55,23.55,31.71,31.71,0,0,0-23.55-23.55,27.3,27.3,0,0,0,14.22-6.17A27.8,27.8,0,0,0,361.41,87Z"/></svg>